<svg xmlns="http://www.w3.org/2000/svg" viewBox="0 0 928.65 156.53"><defs><style>.cls-1{fill:#4bbb08;}.cls-2{fill:#0d0e11;}.cls-3{fill:red;}.cls-4{fill:#fff;}</style></defs><title>MVF Progress logo</title><g id="Layer_2" data-name="Layer 2"><g id="Layer_1-2" data-name="Layer 1"><rect class="cls-1" x="422.75" width="505.9" height="156.53"/><path class="cls-2" d="M507.26,54.19V66.81c0,15.54-7.49,24-22.74,24H477.3v36.47H462.05V30.2h22.47C499.77,30.2,507.26,38.66,507.26,54.19Zm-30-10.12V76.94h7.22c4.85,0,7.49-2.22,7.49-9.16V53.22c0-6.93-2.64-9.15-7.49-9.15Z"/><path class="cls-2" d="M546.24,127.28c-.84-2.49-1.39-4-1.39-11.92V100.1c0-9-3.05-12.34-10-12.34h-5.27v39.52H514.34V30.2h23c15.81,0,22.61,7.35,22.61,22.33v7.63c0,10-3.19,16.5-10,19.69,7.63,3.19,10.12,10.54,10.12,20.66v15c0,4.72.14,8.19,1.67,11.79ZM529.59,44.07V73.89h6c5.68,0,9.15-2.5,9.15-10.27V54.05c0-6.93-2.36-10-7.77-10Z"/><path class="cls-2" d="M568.84,53.5C568.84,38,577,29.09,592,29.09S615.17,38,615.17,53.5V104c0,15.54-8.19,24.41-23.17,24.41s-23.16-8.87-23.16-24.41ZM584.1,105c0,6.94,3,9.57,7.9,9.57s7.91-2.63,7.91-9.57V52.53c0-6.94-3-9.57-7.91-9.57s-7.9,2.63-7.9,9.57Z"/><path class="cls-2" d="M647.9,73.19h21.36V104c0,15.54-7.77,24.41-22.75,24.41s-22.74-8.87-22.74-24.41V53.5c0-15.53,7.76-24.41,22.74-24.41S669.26,38,669.26,53.5v9.43H654.83V52.53c0-6.94-3.05-9.57-7.9-9.57S639,45.59,639,52.53V105c0,6.94,3.06,9.43,7.91,9.43s7.9-2.49,7.9-9.43V87.06H647.9Z"/><path class="cls-2" d="M711,127.28c-.84-2.49-1.39-4-1.39-11.92V100.1c0-9-3-12.34-10-12.34h-5.27v39.52H679.11V30.2h23c15.81,0,22.61,7.35,22.61,22.33v7.63c0,10-3.19,16.5-10,19.69,7.63,3.19,10.13,10.54,10.13,20.66v15c0,4.72.13,8.19,1.66,11.79ZM694.36,44.07V73.89h6c5.68,0,9.15-2.5,9.15-10.27V54.05c0-6.93-2.36-10-7.77-10Z"/><path class="cls-2" d="M750.12,71.11h20.94V85H750.12v28.43h26.35v13.87H734.86V30.2h41.61V44.07H750.12Z"/><path class="cls-2" d="M806.43,29.09c14.84,0,22.47,8.88,22.47,24.41v3H814.47v-4c0-6.94-2.77-9.57-7.63-9.57s-7.62,2.63-7.62,9.57c0,20,29.82,23.71,29.82,51.45,0,15.54-7.77,24.41-22.75,24.41s-22.75-8.87-22.75-24.41V98H798V105c0,6.94,3,9.43,7.9,9.43s7.91-2.49,7.91-9.43C813.78,85,784,81.24,784,53.5,784,38,791.59,29.09,806.43,29.09Z"/><path class="cls-2" d="M858.3,29.09c14.84,0,22.47,8.88,22.47,24.41v3H866.34v-4c0-6.94-2.77-9.57-7.62-9.57s-7.63,2.63-7.63,9.57c0,20,29.82,23.71,29.82,51.45,0,15.54-7.77,24.41-22.75,24.41s-22.74-8.87-22.74-24.41V98h14.42V105c0,6.94,3,9.43,7.91,9.43s7.9-2.49,7.9-9.43c0-20-29.82-23.71-29.82-51.45C835.83,38,843.46,29.09,858.3,29.09Z"/><rect class="cls-3" width="431.95" height="156.53"/><path d="M890.07,29.09a7.18,7.18,0,0,1,3.43.9,6.42,6.42,0,0,1,2.61,2.58,7,7,0,0,1,0,7,6.41,6.41,0,0,1-2.58,2.58,7,7,0,0,1-6.94,0A6.41,6.41,0,0,1,884,39.54a7,7,0,0,1,0-7A6.42,6.42,0,0,1,886.64,30,7.18,7.18,0,0,1,890.07,29.09Zm0,1.15a6,6,0,0,0-2.86.76A5.43,5.43,0,0,0,885,33.15a6,6,0,0,0-.78,2.92A5.8,5.8,0,0,0,885,39a5.39,5.39,0,0,0,2.16,2.15,5.81,5.81,0,0,0,5.78,0A5.39,5.39,0,0,0,895.12,39a5.8,5.8,0,0,0,0-5.81A5.35,5.35,0,0,0,892.93,31,6,6,0,0,0,890.07,30.24ZM887,39.92v-7.5h2.58a6.21,6.21,0,0,1,1.91.21,1.84,1.84,0,0,1,1,.72,2,2,0,0,1,.35,1.1,2,2,0,0,1-.59,1.43,2.31,2.31,0,0,1-1.56.69,1.9,1.9,0,0,1,.64.4,8.7,8.7,0,0,1,1.11,1.48l.92,1.47h-1.48l-.67-1.18A6.1,6.1,0,0,0,889.9,37a1.56,1.56,0,0,0-1-.26h-.71v3.19Zm1.21-4.22h1.47a2.38,2.38,0,0,0,1.44-.32,1.08,1.08,0,0,0,.2-1.42,1.16,1.16,0,0,0-.52-.4,3.92,3.92,0,0,0-1.21-.13h-1.38Z"/><path class="cls-4" d="M354,44h16v83.5h15.31V44h16V30H354Zm-28.81,3.34,7.38,49.26H317.84Zm12-17.26h-22.4l-15.59,97.42h14.05l2.65-17.67h18.79l2.64,17.67h15.45ZM273.86,44h25.19V30h-40.5v97.42h15.31V87.23h19.76V73.31H273.86ZM195,127.45h15.72V30H197V88.34L181.32,30H162.11v97.42h13.78V56.89ZM127.6,47.29,135,96.55H120.22Zm12-17.26H117.16l-15.59,97.42h14.06l2.64-17.67h18.79l2.64,17.67h15.45ZM51.48,30H30.18v97.42H43.54V58.56L55,127.45H69.43L80,57.59v69.86H94.48V30H73.18L62.75,99.2Z"/><polygon class="cls-4" points="229.35 55.36 221.93 55.36 229.15 102.12 240.1 102.12 247.31 55.36 240.57 55.36 234.96 93.5 229.35 55.36"/></g></g></svg>