<?xml version="1.0" standalone="no"?>
<!DOCTYPE svg PUBLIC "-//W3C//DTD SVG 1.1//EN" "http://www.w3.org/Graphics/SVG/1.1/DTD/svg11.dtd" >
<svg>
<metadata>
Created by FontForge 20090622 at Thu Jun  2 10:19:00 2016
 By deploy user
Copyright (c) 2013 by Fontfabric. All rights reserved.
</metadata>
<defs>
<font id="NexaSlabBlack" horiz-adv-x="700" >
  <font-face 
    font-family="Nexa Slab Black"
    font-weight="900"
    font-stretch="normal"
    units-per-em="1000"
    panose-1="2 0 5 0 0 0 0 0 0 0"
    ascent="700"
    descent="-300"
    x-height="496"
    cap-height="700"
    bbox="-174 -294 1263 983"
    underline-thickness="50"
    underline-position="-25"
    unicode-range="U+000D-U+FB02"
  />
<missing-glyph horiz-adv-x="629" 
d="M37 0v700h538v-700h-538zM127 444l105 -2q0 26 22 43.5t52 17.5q78 0 80 -61q0 -17 -10 -26.5t-34.5 -20t-33.5 -15.5q-2 -2 -12.5 -10.5t-14.5 -13t-13 -17t-12.5 -24.5t-6.5 -31.5t-3 -43.5h101q0 33 12 57q7 6 47.5 25t62.5 46.5t21 75.5q0 76 -52.5 115t-131.5 39
q-77 0 -128 -39.5t-51 -114.5zM236 138q0 -29 17.5 -44.5t41.5 -17.5q25 0 42.5 16t17.5 44q0 30 -17.5 45.5t-42.5 15.5q-24 0 -41.5 -15t-17.5 -44z" />
    <glyph glyph-name=".notdef" horiz-adv-x="629" 
d="M37 0v700h538v-700h-538zM127 444l105 -2q0 26 22 43.5t52 17.5q78 0 80 -61q0 -17 -10 -26.5t-34.5 -20t-33.5 -15.5q-2 -2 -12.5 -10.5t-14.5 -13t-13 -17t-12.5 -24.5t-6.5 -31.5t-3 -43.5h101q0 33 12 57q7 6 47.5 25t62.5 46.5t21 75.5q0 76 -52.5 115t-131.5 39
q-77 0 -128 -39.5t-51 -114.5zM236 138q0 -29 17.5 -44.5t41.5 -17.5q25 0 42.5 16t17.5 44q0 30 -17.5 45.5t-42.5 15.5q-24 0 -41.5 -15t-17.5 -44z" />
    <glyph glyph-name=".null" horiz-adv-x="0" 
 />
    <glyph glyph-name="nonmarkingreturn" horiz-adv-x="333" 
 />
    <glyph glyph-name="CR" unicode="&#xd;" horiz-adv-x="175" 
 />
    <glyph glyph-name="space" unicode=" " horiz-adv-x="205" 
 />
    <glyph glyph-name="exclam" unicode="!" horiz-adv-x="335" 
d="M261 230h-187l-3 470h194zM166 -5q-50 0 -78 30.5t-28 67.5t28 67.5t78 30.5t79 -30.5t29 -67.5t-28.5 -67.5t-79.5 -30.5z" />
    <glyph glyph-name="quotedbl" unicode="&#x22;" horiz-adv-x="429" 
d="M238 701h140v-279h-140v279zM51 701h139v-279h-139v279z" />
    <glyph glyph-name="numbersign" unicode="#" horiz-adv-x="699" 
d="M431 431h-109l-46 -180h109zM244 700h146l-36 -147h105l36 147h146l-36 -147h66v-132h-100l-42 -159h76v-135h-106l-32 -127h-146l32 127h-107l-31 -127h-144l32 127h-76v135h110l41 159h-83v132h114z" />
    <glyph glyph-name="dollar" unicode="$" horiz-adv-x="666" 
d="M596 635v-169h-171l-3 81q-37 11 -89 11q-36 0 -66.5 -14t-30.5 -45q0 -33 29.5 -47t88.5 -20q58 -6 103.5 -18t89.5 -36t68.5 -67t24.5 -102q0 -92 -63.5 -148t-163.5 -73v-83h-160v80q-124 15 -215 93v175h171l3 -81q58 -22 120 -22q50 0 80.5 16.5t30.5 46.5
q0 48 -118 60q-47 4 -84.5 11.5t-77 24t-66 40t-43 62t-16.5 88.5q0 87 61.5 141t153.5 71v85h160v-82q101 -15 183 -79z" />
    <glyph glyph-name="percent" unicode="%" horiz-adv-x="882" 
d="M202 710q87 0 133 -49.5t46 -118.5q0 -70 -46 -118.5t-133 -48.5t-132.5 48.5t-45.5 118.5q0 69 45.5 118.5t132.5 49.5zM579 699h180l-458 -699h-183zM202 498q23 0 35 13t12 31t-12 31t-35 13t-35 -13t-12 -31t12 -31t35 -13zM679 327q87 0 133 -49.5t46 -118.5
q0 -70 -46 -118.5t-133 -48.5t-132.5 48.5t-45.5 118.5q0 69 45.5 118.5t132.5 49.5zM679 115q23 0 35 13t12 31t-12 31t-35 13t-35 -13t-12 -31t12 -31t35 -13z" />
    <glyph glyph-name="ampersand" unicode="&#x26;" horiz-adv-x="720" 
d="M224 215q0 -34 28 -50.5t69 -16.5q46 0 79.5 23.5t33.5 63.5v47h-107q-103 0 -103 -67zM615 498h-180q-1 44 -46 61t-90 -0.5t-45 -58.5q0 -36 26 -55.5t58 -19.5h345v-140h-71v-54q0 -30 20 -47.5t55 -11.5v-173q-135 -26 -175 75q-80 -85 -215 -85q-54 0 -99 10.5
t-84.5 33.5t-62 66.5t-22.5 104.5q0 41 28 84t73 69q-39 20 -58 61t-19 78q0 60 27.5 104.5t72.5 68t92.5 34t98.5 10.5q118 0 194.5 -51.5t76.5 -163.5z" />
    <glyph glyph-name="quotesingle" unicode="'" horiz-adv-x="245" 
d="M51 702h143v-281h-143v281z" />
    <glyph glyph-name="parenleft" unicode="(" horiz-adv-x="371" 
d="M272 792l91 -111q-81 -69 -125 -168t-44 -191q0 -110 43 -205t127 -162l-92 -118q-121 79 -184.5 211.5t-63.5 272.5q0 134 63.5 260.5t184.5 210.5z" />
    <glyph glyph-name="parenright" unicode=")" horiz-adv-x="371" 
d="M8 681l91 111q121 -84 184.5 -210.5t63.5 -260.5q0 -140 -63.5 -272.5t-184.5 -211.5l-92 118q84 67 127 162t43 205q0 92 -44 191t-125 168z" />
    <glyph glyph-name="asterisk" unicode="*" horiz-adv-x="406" 
d="M358 448l-96 -69l-60 84l-54 -84l-97 71l63 73l-88 18l33 117l92 -36l-7 92h118l-9 -94l93 37l33 -115l-90 -19q3 -4 30 -32.5t39 -42.5z" />
    <glyph glyph-name="plus" unicode="+" horiz-adv-x="479" 
d="M27 273v142h134v137h150v-137h141v-142h-141v-137h-150v137h-134z" />
    <glyph glyph-name="comma" unicode="," horiz-adv-x="239" 
d="M154 -106h-99l24 118q-43 16 -46 63q-1 42 25 65t62 23t61.5 -23.5t21.5 -64.5l-1 1q1 -13 -16 -64z" />
    <glyph glyph-name="hyphen" unicode="-" horiz-adv-x="474" 
d="M48 211v146h378v-146h-378z" />
    <glyph glyph-name="period" unicode="." horiz-adv-x="246" 
d="M123 -16q-37 0 -63 23.5t-26 65.5t26 65t63 23t63.5 -23.5t26.5 -66.5q0 -41 -27 -64t-63 -23z" />
    <glyph glyph-name="slash" unicode="/" horiz-adv-x="506" 
d="M15 -79l318 836h156l-320 -836h-154z" />
    <glyph glyph-name="zero" unicode="0" horiz-adv-x="705" 
d="M230 392v-95q0 -77 34 -115.5t89 -38.5q56 0 90 38.5t34 115.5v95q0 74 -33.5 112t-88.5 38t-90 -37.5t-35 -112.5zM36 297v96q0 161 89.5 238.5t229.5 77.5t227.5 -79.5t87.5 -236.5v-95q0 -159 -88.5 -238t-224.5 -79q-65 0 -120.5 17.5t-101.5 54t-72.5 99
t-26.5 145.5z" />
    <glyph glyph-name="one" unicode="1" horiz-adv-x="450" 
d="M35 0v149h112v333l-106 -31v155l292 106v-563h104v-149h-402z" />
    <glyph glyph-name="two" unicode="2" horiz-adv-x="671" 
d="M627 0h-597v161q0 259 298 267q21 0 35.5 2t32 7t26.5 17.5t9 30.5q0 35 -27 51.5t-68 16.5q-96 0 -102 -75h-192q1 115 84 173t210 58q55 0 105.5 -12.5t93 -37.5t68 -69.5t25.5 -102.5q0 -53 -17 -92t-43.5 -61.5t-68 -36.5t-81 -19t-90.5 -6q-44 -2 -77 -26t-33 -79
h229l6 82h174v-249z" />
    <glyph glyph-name="three" unicode="3" horiz-adv-x="672" 
d="M348 315h-52l-28 56l118 169h-168l-6 -88h-166v248h581v-92l-134 -207q74 -27 110.5 -70t36.5 -118q0 -103 -72.5 -168t-233.5 -65q-60 0 -113 14.5t-96.5 43.5t-68 78.5t-24.5 113.5h192q1 -41 32.5 -63.5t80.5 -22.5q46 0 74.5 20.5t28.5 63.5q0 42 -24.5 64.5
t-67.5 22.5z" />
    <glyph glyph-name="four" unicode="4" horiz-adv-x="670" 
d="M382 700h183v-423h75v-156h-75v-121h-186v121h-357l-13 164zM213 277h166v183z" />
    <glyph glyph-name="five" unicode="5" horiz-adv-x="649" 
d="M588 699v-161h-349v-83h94q63 0 111.5 -10t91.5 -34t66 -71.5t23 -115.5q0 -62 -26 -108.5t-69 -73t-92 -39t-101 -12.5q-135 0 -213.5 57.5t-79.5 183.5h193q0 -41 30 -61.5t68 -20.5q13 0 27.5 3t31.5 10.5t27.5 23t10.5 37.5q0 24 -9.5 40.5t-26.5 23.5t-31.5 9.5
t-31.5 2.5h-277v399h532z" />
    <glyph glyph-name="six" unicode="6" horiz-adv-x="683" 
d="M639 497h-189q-3 30 -32 45.5t-73 15.5t-77 -23t-33 -61v-66q64 48 162 48q115 0 186.5 -59.5t71.5 -167.5q0 -62 -25.5 -110t-69.5 -75.5t-97 -41.5t-113 -14q-80 0 -147.5 23.5t-114.5 80.5t-47 139v243q0 79 44.5 134.5t111 79.5t147.5 24q62 0 113 -11t93 -35
t65.5 -67t23.5 -102zM350 150q47 0 77.5 21.5t30.5 57.5q0 40 -29 62.5t-78 22.5q-55 0 -84.5 -23.5t-29.5 -60.5q0 -33 30 -56.5t83 -23.5z" />
    <glyph glyph-name="seven" unicode="7" horiz-adv-x="612" 
d="M328 0h-214l251 537h-163l-6 -95h-173v258h587l5 -89z" />
    <glyph glyph-name="eight" unicode="8" horiz-adv-x="697" 
d="M349 292q-52 0 -83 -19.5t-31 -54.5t32.5 -54.5t80.5 -19.5q47 0 79.5 19t31.5 54q0 34 -29 54.5t-81 20.5zM30 218q1 35 24.5 78t68.5 67q-70 50 -72 139q0 103 80.5 158t208.5 55q131 0 219.5 -55.5t88.5 -155.5q1 -41 -18.5 -76.5t-55.5 -57.5q49 -27 70 -70t22 -82
q2 -121 -84.5 -177t-233.5 -56q-95 0 -164.5 21.5t-112.5 75t-41 136.5zM344 422q37 0 62 14.5t31 36t0.5 42.5t-30.5 35.5t-62 14.5t-62 -14.5t-31 -35.5t0 -42.5t31 -36t61 -14.5z" />
    <glyph glyph-name="nine" unicode="9" horiz-adv-x="685" 
d="M39 203h189q3 -30 32 -45.5t73 -15.5q46 0 81.5 24t35.5 66v60q-60 -48 -162 -48q-115 0 -186.5 59.5t-71.5 167.5q0 62 25.5 110t69.5 75.5t97 41.5t113 14q80 0 147.5 -23.5t114.5 -80.5t47 -139v-236q0 -63 -26 -112t-71 -77t-98.5 -42t-113.5 -14q-49 0 -91.5 6.5
t-81 22.5t-65 40t-42.5 61.5t-16 84.5zM335 550q-47 0 -77.5 -21.5t-30.5 -57.5q0 -40 29 -62.5t78 -22.5q55 0 84.5 23.5t29.5 60.5q0 33 -30 56.5t-83 23.5z" />
    <glyph glyph-name="colon" unicode=":" horiz-adv-x="259" 
d="M130 271q-35 0 -60 22.5t-25 62.5q0 39 25 61.5t60 22.5q34 0 59 -22.5t25 -61.5q0 -40 -25 -62.5t-59 -22.5zM130 -8q-35 0 -60 22.5t-25 62.5t25 62t60 22q34 0 59 -22t25 -62t-25 -62.5t-59 -22.5z" />
    <glyph glyph-name="semicolon" unicode=";" horiz-adv-x="261" 
d="M132 271q-35 -1 -60 21t-25 62q0 39 25 61t60 23q34 0 59 -22t25 -60q0 -40 -25 -62.5t-59 -22.5zM163 -106h-96l24 117q-44 13 -47 64q-1 41 23 63.5t59 22.5t61 -22.5t28 -61.5l-7 6q5 -15 -11 -75z" />
    <glyph glyph-name="less" unicode="&#x3c;" horiz-adv-x="388" 
d="M21 319l234 239l99 -104l-144 -144l145 -140l-100 -105l-234 238v16z" />
    <glyph glyph-name="equal" unicode="=" horiz-adv-x="511" 
d="M48 354v135h415v-135h-415zM48 160v137h415v-137h-415z" />
    <glyph glyph-name="greater" unicode="&#x3e;" horiz-adv-x="390" 
d="M134 558l235 -239v-16l-235 -238l-99 98l144 147l-145 149z" />
    <glyph glyph-name="question" unicode="?" horiz-adv-x="602" 
d="M385 231h-200q2 39 12.5 70.5t20 49.5t32.5 37t32 24l36 21q48 28 50 62q1 26 -19 45.5t-57 19.5q-85 0 -85 -74h-182q-11 111 66 173t201 62q127 0 206.5 -56.5t78.5 -167.5q0 -34 -14 -61t-35.5 -43l-46 -34l-45.5 -33t-35.5 -39.5t-15.5 -55.5zM287 -5q-52 0 -81.5 31
t-29.5 67.5t29.5 67.5t81.5 31q42 0 71.5 -20.5t36 -49t0 -57.5t-35.5 -49.5t-72 -20.5z" />
    <glyph glyph-name="at" unicode="@" horiz-adv-x="910" 
d="M578 -19l45 -91q-80 -47 -175 -47q-63 0 -122.5 14t-114 45.5t-94.5 77.5t-64 113.5t-24 149.5q0 96 36.5 175.5t97.5 129.5t136.5 77t155.5 27q90 0 165 -24t133 -71t90.5 -125.5t32.5 -180.5q0 -119 -52.5 -190t-141.5 -71q-77 0 -101 79q-44 -72 -149 -72
q-107 0 -172 65t-65 181q0 114 70.5 179t166.5 65q46 0 83.5 -17.5t54.5 -47.5l6 49l107 -17v-321q0 -16 7.5 -22.5t14.5 -6.5q28 0 44 37t16 107q0 157 -79.5 227.5t-230.5 70.5q-127 0 -218.5 -84t-91.5 -219q0 -77 25 -135t68.5 -92t97 -50.5t115.5 -16.5q74 0 127 32z
M448 363q-56 0 -85 -35t-29 -84t29.5 -83t85.5 -34q55 0 85 34.5t30 87.5q0 49 -30 81.5t-86 32.5z" />
    <glyph glyph-name="A" unicode="A" horiz-adv-x="882" 
d="M878 0h-348v141l62 6l-22 61h-248l-22 -62l66 -5v-141h-351v156h78l174 389h-79v155h370l243 -544h77v-156zM381 363h130l-66 169z" />
    <glyph glyph-name="B" unicode="B" horiz-adv-x="789" 
d="M125 545h-76v155h434q112 0 184 -49.5t72 -145.5q0 -100 -78 -135q47 -25 72 -70t25 -94q0 -57 -24 -98.5t-65 -64t-86.5 -33t-97.5 -10.5h-436v156h76v389zM319 545v-115h157q27 0 46 15t19 42q0 23 -16.5 40.5t-44.5 17.5h-161zM319 292v-141h167q36 0 55.5 20.5
t19.5 49.5q0 33 -21 52t-54 19h-167z" />
    <glyph glyph-name="C" unicode="C" horiz-adv-x="708" 
d="M580 222l116 -130q-111 -108 -283 -110q-172 -1 -278.5 97t-107.5 271q-1 69 23.5 133.5t70.5 117.5t122.5 85t171.5 32q152 0 245 -92v-202h-168l-5 112q-31 11 -72 11q-90 0 -141 -55.5t-51 -141.5q0 -88 52 -142t138 -55q99 0 167 69z" />
    <glyph glyph-name="D" unicode="D" horiz-adv-x="823" 
d="M125 545h-76v155h376q178 0 273 -96t95 -247q0 -155 -94.5 -256t-273.5 -101h-376v156h76v389zM322 536v-369h103q88 0 130 55.5t42 136.5q0 77 -43 127t-129 50h-103z" />
    <glyph glyph-name="E" unicode="E" horiz-adv-x="711" 
d="M520 167l4 70h150v-237h-627v156h77v389h-77v155h614v-235h-150l-4 70h-187v-108h168v-154h-168v-106h200z" />
    <glyph glyph-name="F" unicode="F" horiz-adv-x="680" 
d="M321 156h91v-156h-365v156h77v389h-77v155h616v-235h-149l-5 70h-188v-122h181v-161h-181v-96z" />
    <glyph glyph-name="G" unicode="G" horiz-adv-x="752" 
d="M525 535q-46 23 -106 23q-88 0 -141.5 -54t-53.5 -154q0 -95 56.5 -149.5t139.5 -54.5q74 0 126 38v63h-175v138h342v-267q-32 -65 -115 -102t-187 -37q-175 0 -279 97.5t-104 273.5q0 172 110 272.5t281 100.5q87 0 152.5 -26t126.5 -86l-1 -163h-166z" />
    <glyph glyph-name="H" unicode="H" horiz-adv-x="888" 
d="M762 156h84v-156h-359v156h80v119h-246v-119h79v-156h-358v156h83v389h-83v155h358v-155h-79v-111h246v111h-80v155h359v-155h-84v-389z" />
    <glyph glyph-name="I" unicode="I" horiz-adv-x="451" 
d="M127 545h-82v155h364v-155h-83v-389h83v-156h-364v156h82v389z" />
    <glyph glyph-name="J" unicode="J" horiz-adv-x="735" 
d="M15 303h192q3 -75 39 -111t92 -36q62 0 97 38t35 109v231h-187v166h384v-397q0 -143 -87 -231t-246 -88q-154 0 -236.5 78.5t-82.5 240.5z" />
    <glyph glyph-name="K" unicode="K" horiz-adv-x="846" 
d="M319 543v-138l187 141l-53 10v144h358v-157h-79l-182 -146l190 -241h89v-156h-306v121l-121 154l-83 -56v-63h66v-156h-336v156h76v387h-77v157h325v-157h-54z" />
    <glyph glyph-name="L" unicode="L" horiz-adv-x="697" 
d="M126 543h-80v157h362v-157h-83v-375h170l8 111h173v-279h-625v156h75v387z" />
    <glyph glyph-name="M" unicode="M" horiz-adv-x="1019" 
d="M508 473l178 227h288v-157h-82v-387h82v-156h-361v156h83v272l-179 -213h-20l-175 212v-271h84v-156h-361v156h82v387h-82v157h288z" />
    <glyph glyph-name="N" unicode="N" horiz-adv-x="897" 
d="M293 700l296 -383q-2 35 -3 66.5t-1.5 48.5t-1.5 28v83h-68v157h349v-157h-81v-543h-169l-291 377l3 -152v-69h68v-156h-352v156h83v387h-83v157h251z" />
    <glyph glyph-name="O" unicode="O" horiz-adv-x="833" 
d="M805 350q0 -173 -106 -270t-282 -97q-175 0 -282 97t-107 270q0 169 107.5 267.5t281.5 98.5q175 0 281.5 -97.5t106.5 -268.5zM607 350q0 91 -51.5 144t-138.5 53q-84 0 -137.5 -55t-53.5 -142q0 -88 53.5 -143t137.5 -55q86 0 138 55t52 143z" />
    <glyph glyph-name="P" unicode="P" horiz-adv-x="746" 
d="M42 700h409q128 0 204 -59t76 -178q0 -115 -81.5 -175t-198.5 -61h-127v-71l89 -5v-151h-371v156h83v387h-83v157zM324 529v-141h127q36 0 59 18.5t23 54.5q0 33 -23 50.5t-59 17.5h-127z" />
    <glyph glyph-name="Q" unicode="Q" horiz-adv-x="834" 
d="M805 352q0 -112 -61 -209l78 -82l-131 -130l-89 90q-84 -38 -186 -38q-175 0 -281.5 99t-106.5 270q0 169 106.5 266.5t281.5 97.5q174 0 281.5 -97.5t107.5 -266.5zM608 352q0 86 -53.5 141t-138.5 55t-138.5 -55t-53.5 -141q0 -91 53 -145t139 -54q87 0 139.5 53
t52.5 146z" />
    <glyph glyph-name="R" unicode="R" horiz-adv-x="797" 
d="M126 156v389h-84v155h426q128 0 200 -70t72 -171q0 -68 -30 -118.5t-106 -86.5l74 -98h91v-156h-282v101l-87 125h-77v-80l78 -6v-140h-359v156h84zM467 542h-144v-168h146q35 0 55 24t20 60t-19.5 60t-57.5 24z" />
    <glyph glyph-name="S" unicode="S" horiz-adv-x="669" 
d="M599 635v-169h-171l-3 81q-37 11 -89 11q-36 0 -66.5 -14t-30.5 -45q0 -33 29.5 -47t88.5 -20q58 -6 103.5 -18t89.5 -36t68.5 -67t24.5 -102q0 -111 -89.5 -169t-219.5 -59q-176 -2 -293 97v175h171l3 -81q58 -22 120 -22q50 0 80.5 16.5t30.5 46.5q0 48 -118 60
q-47 4 -84.5 11.5t-77 24t-66 40t-43 62t-16.5 88.5q0 55 27 99t70.5 69.5t94 38.5t103.5 13q156 0 263 -84z" />
    <glyph glyph-name="T" unicode="T" horiz-adv-x="719" 
d="M23 700h673v-271h-167l-6 103h-63v-376h82v-156h-365v156h83v376h-64l-6 -103h-167v271z" />
    <glyph glyph-name="U" unicode="U" horiz-adv-x="854" 
d="M561 545h-84v155h361v-155h-81v-237q1 -154 -86.5 -239t-242.5 -85q-157 0 -244 83.5t-87 242.5v235h-81v155h362v-155h-85v-235q0 -157 135 -157q62 0 97.5 38.5t35.5 116.5v237z" />
    <glyph glyph-name="V" unicode="V" horiz-adv-x="841" 
d="M368 700v-155h-68l120 -311l122 311h-68v155h358v-155h-73l-243 -548h-191l-243 548h-73v155h359z" />
    <glyph glyph-name="W" unicode="W" horiz-adv-x="1134" 
d="M1124 545h-74l-199 -545h-162l-124 335l-119 -335h-160l-203 545h-75v155h360v-155h-70l33 -91q14 -44 37 -163l125 398h143l130 -398q12 64 39 168l31 86h-72v155h360v-155z" />
    <glyph glyph-name="X" unicode="X" horiz-adv-x="781" 
d="M330 590l86 -115l52 74l-50 5v146h334v-151h-74l-154 -221l127 -172h106v-156h-308v106l-90 121l-50 -71l48 -8v-148h-341v156h80l153 223l-125 170h-81v151h287v-110z" />
    <glyph glyph-name="Y" unicode="Y" horiz-adv-x="783" 
d="M574 0h-365v156h83v85l-204 304h-74v155h347v-152l-46 -3q27 -38 77 -127q57 100 75 127l-44 3v152h346v-155h-75l-203 -304v-85h83v-156z" />
    <glyph glyph-name="Z" unicode="Z" horiz-adv-x="680" 
d="M211 540l-7 -98h-159v258h586v-56l-303 -474h144l6 100h167v-270h-614v61l311 479h-131z" />
    <glyph glyph-name="bracketleft" unicode="[" horiz-adv-x="370" 
d="M72 -171v868h270v-143h-110v-582h110v-143h-270z" />
    <glyph glyph-name="backslash" unicode="\" horiz-adv-x="506" 
d="M491 -79h-158l-317 836h156z" />
    <glyph glyph-name="bracketright" unicode="]" horiz-adv-x="374" 
d="M302 698v-868h-274v143h110v582h-110v143h274z" />
    <glyph glyph-name="asciicircum" unicode="^" horiz-adv-x="632" 
d="M180 310h-153v19l241 365h89l249 -364v-20h-161l-132 202z" />
    <glyph glyph-name="underscore" unicode="_" horiz-adv-x="562" 
d="M44 -113v134h474v-134h-474z" />
    <glyph glyph-name="grave" unicode="`" horiz-adv-x="307" 
d="M17 687v12h197l67 -137v-8h-158z" />
    <glyph glyph-name="a" unicode="a" horiz-adv-x="682" 
d="M409 443l9 53h234v-136h-67v-224h67v-136h-231l-8 55q-30 -35 -74 -50t-89 -13q-107 6 -167 76t-60 181t67 184.5t174 73.5q104 0 145 -64zM306 358q-46 0 -72.5 -31t-26.5 -78q0 -50 28 -79t71 -29q45 0 73.5 31.5t28.5 76.5q0 50 -27 79.5t-75 29.5z" />
    <glyph glyph-name="b" unicode="b" horiz-adv-x="671" 
d="M271 700v-247q43 52 137 52q108 0 174 -72t66 -185q0 -117 -58.5 -183.5t-166.5 -72.5q-46 -2 -90 13t-73 49l-8 -54h-231v136h67v429h-67v135h250zM366 357q-46 0 -72 -33t-26 -81q0 -42 27 -73t71 -31q43 0 71 29.5t28 79.5t-28 79.5t-71 29.5z" />
    <glyph glyph-name="c" unicode="c" horiz-adv-x="543" 
d="M435 185l96 -108q-41 -40 -99.5 -63.5t-115.5 -23.5q-127 0 -210.5 67.5t-83.5 190.5t82.5 191.5t209.5 68.5q123 0 200 -65l-8 -149h-147v62q-22 6 -34 6q-52 0 -84 -30.5t-32 -82.5q0 -44 31 -74.5t83 -30.5q66 0 112 41z" />
    <glyph glyph-name="d" unicode="d" horiz-adv-x="670" 
d="M400 453v112h-68v135h251v-564h68v-136h-232l-7 54q-30 -34 -74 -49t-89 -13q-109 6 -167.5 72.5t-58.5 183.5q0 113 66.5 185t173.5 72q94 0 137 -52zM305 357q-43 0 -71 -29.5t-28 -79.5t28 -79.5t71 -29.5q44 0 71.5 31.5t27.5 72.5q0 48 -26 81t-73 33z" />
    <glyph glyph-name="e" unicode="e" horiz-adv-x="584" 
d="M209 313h179q-2 28 -28.5 44.5t-58.5 17t-60 -16t-32 -45.5zM297 509q136 0 212.5 -86t45.5 -228h-347q9 -30 42 -46.5t68 -16.5q76 0 129 40l90 -101q-88 -82 -227 -82q-126 0 -207 64.5t-81 192.5q0 126 82 194.5t193 68.5z" />
    <glyph glyph-name="f" unicode="f" horiz-adv-x="442" 
d="M298 135h90v-135h-357v135h83v212h-85v142h85v20q0 101 64 152t150 51q90 0 148 -55l-56 -111q-27 23 -67 23q-55 -2 -55 -60v-20h128v-142h-128v-212z" />
    <glyph glyph-name="g" unicode="g" horiz-adv-x="620" 
d="M29 -35h177q-2 -96 96 -96q40 0 67 19t27 54q0 64 -92 64q-128 0 -205 68t-77 184t81 186t201 70q48 0 106 -20q48 61 54 70l136 -96l-64 -76q52 -62 47 -135q-1 -47 -25 -91.5t-68 -74.5q100 -55 100 -149q0 -77 -42.5 -129t-105 -73t-140.5 -21q-135 0 -208 66t-65 180
zM304 363q-43 0 -70.5 -28t-27.5 -77q0 -43 28 -70t70 -27q41 0 69 25t28 72q0 44 -27.5 74.5t-69.5 30.5z" />
    <glyph glyph-name="h" unicode="h" horiz-adv-x="689" 
d="M88 563h-67v138h253v-261q27 35 58 50t75 15q83 0 142 -57.5t59 -173.5v-139h68v-135h-302v135h52v139q0 34 -20 53.5t-49 19.5q-41 0 -62 -28t-21 -70v-114h56v-135h-309v135h67v428z" />
    <glyph glyph-name="i" unicode="i" horiz-adv-x="375" 
d="M88 632q0 45 31 70t75 25q41 0 71.5 -25t30.5 -70q0 -43 -31 -68.5t-71 -25.5q-43 0 -74.5 25t-31.5 69zM29 138v-138h326v138h-70v358h-254v-137h68v-221h-70z" />
    <glyph glyph-name="j" unicode="j" horiz-adv-x="331" 
d="M79 627q0 44 31 68.5t73 24.5t73.5 -24.5t31.5 -68.5q0 -43 -31.5 -68.5t-73.5 -25.5t-73 25.5t-31 68.5zM91 355v-373q0 -46 -24.5 -59t-64.5 10l-35 -130q59 -28 115 -30.5t99 19t69 71t26 119.5v509h-253v-136h68z" />
    <glyph glyph-name="k" unicode="k" horiz-adv-x="667" 
d="M274 185v-50h38v-135h-292v135h69v428h-68v138h253v-382l99 62l-44 6v109h304v-133h-80l-100 -63l119 -165h75v-135h-245v69l-96 138z" />
    <glyph glyph-name="l" unicode="l" horiz-adv-x="367" 
d="M21 0v135h70v428h-67v138h252v-566h70v-135h-325z" />
    <glyph glyph-name="m" unicode="m" horiz-adv-x="982" 
d="M587 135h46v-135h-269v135h43v139q0 39 -15.5 57.5t-38.5 18.5q-33 0 -53 -23t-20 -57v-135h44v-135h-295v135h68v225h-67v136h222l14 -56q53 66 144 63q89 0 124 -69q57 71 170 71q87 0 141 -56.5t54 -173.5v-140h69v-135h-293v135h39v139q0 36 -17 55t-41 19
q-28 0 -48.5 -21t-20.5 -55v-137z" />
    <glyph glyph-name="n" unicode="n" horiz-adv-x="706" 
d="M620 136h68v-136h-306v136h53v137q0 43 -19.5 63t-48.5 20q-36 0 -61 -24.5t-25 -70.5v-125h54v-136h-304v136h68v225h-68v135h230l10 -55q57 68 156 66q87 -1 140 -55t53 -178v-138z" />
    <glyph glyph-name="o" unicode="o" horiz-adv-x="608" 
d="M304 505q119 0 200.5 -66t81.5 -193q0 -126 -83.5 -192t-198.5 -66q-55 0 -104.5 15.5t-89.5 45.5t-64 81t-24 116q0 87 41.5 147.5t103.5 86t137 25.5zM304 139q46 0 74 30.5t28 76.5q0 45 -27.5 76.5t-74.5 31.5t-74.5 -31.5t-27.5 -76.5t27.5 -76t74.5 -31z" />
    <glyph glyph-name="p" unicode="p" horiz-adv-x="672" 
d="M272 44v-112h70v-137h-322v137h68v429h-68v135h232l8 -53q30 35 74 50t89 13q110 -8 168 -73.5t58 -183.5q0 -114 -66 -186t-173 -72q-95 0 -138 53zM367 140q43 0 71.5 29.5t28.5 79.5t-28.5 79.5t-71.5 29.5q-44 0 -71.5 -31t-27.5 -72q0 -48 26 -81.5t73 -33.5z" />
    <glyph glyph-name="q" unicode="q" horiz-adv-x="639" 
d="M652 -205h-322v137h70v112q-43 -53 -138 -53q-107 0 -173 72t-66 186q0 117 58.5 183t167.5 74q45 2 89 -13t74 -50l8 53h164v-564h68v-137zM305 140q47 0 73 33.5t26 81.5q0 41 -27.5 72t-71.5 31q-43 0 -71 -29.5t-28 -79.5t28.5 -79.5t70.5 -29.5z" />
    <glyph glyph-name="r" unicode="r" horiz-adv-x="529" 
d="M99 361h-68v135h231l13 -55q46 66 128 66t130 -53l-72 -141q-34 27 -85 27q-93 -1 -93 -100v-104h70v-136h-322v136h68v225z" />
    <glyph glyph-name="s" unicode="s" horiz-adv-x="513" 
d="M31 33v137l157 -3v-37q40 -10 51 -10q32 0 49.5 8.5t16.5 28.5q0 13 -16 23t-42 11q-55 2 -99.5 15t-80 48t-35.5 89q0 84 66.5 126.5t162.5 42.5q127 0 205 -57l-6 -120h-149v35q-17 4 -42 4q-53 -2 -53 -31t39 -31q36 -1 65 -4.5t62.5 -13.5t56 -26t38 -44t15.5 -66
q1 -85 -68 -129.5t-172 -44.5q-60 -1 -121 12.5t-100 36.5z" />
    <glyph glyph-name="t" unicode="t" horiz-adv-x="418" 
d="M88 614l183 20v-143h111v-141h-112v-162q1 -48 49 -48q29 0 54 17l40 -136q-58 -33 -142 -33q-83 0 -134 46t-49 154v162h-79v141h79v123z" />
    <glyph glyph-name="u" unicode="u" horiz-adv-x="688" 
d="M78 360h-66v136h250v-274q0 -43 20.5 -63t49.5 -20q37 0 61.5 23.5t24.5 69.5v128h-69v136h251v-360h67v-136h-231l-7 54q-57 -68 -157 -66q-87 1 -140.5 55t-53.5 178v139z" />
    <glyph glyph-name="v" unicode="v" horiz-adv-x="687" 
d="M11 361v136h303v-136h-40l19 -49l50 -133l74 182h-40v136h300v-136h-71l-161 -362h-204l-161 362h-69z" />
    <glyph glyph-name="w" unicode="w" horiz-adv-x="912" 
d="M401 487h110l85 -273l48 147h-48v136h303v-136h-68l-130 -362h-180l-66 188l-66 -188h-177l-132 362h-70v136h305v-136h-43l43 -147z" />
    <glyph glyph-name="x" unicode="x" horiz-adv-x="645" 
d="M353 95l-75 82l-39 -49l40 -4v-124h-253v136h55l110 135l-83 90h-74v136h264v-91l68 -74l35 42l-40 5v118h249v-136h-58l-100 -124l93 -101h75v-136h-267v95z" />
    <glyph glyph-name="y" unicode="y" horiz-adv-x="668" 
d="M215 -29l20 45l-154 345h-71v136h306v-136h-41l60 -165l58 165h-34v136h298v-136h-68l-207 -461q-33 -74 -85.5 -106.5t-112 -25.5t-126.5 47l50 136q82 -44 107 20z" />
    <glyph glyph-name="z" unicode="z" horiz-adv-x="540" 
d="M170 351l-5 -41h-128v187h456v-63l-199 -275h77l5 53h133v-212h-480v57l204 294h-63z" />
    <glyph glyph-name="braceleft" unicode="{" horiz-adv-x="376" 
d="M346 -14v-132q-53 -10 -93 -10q-167 0 -167 175v141q0 11 -2 19t-8 17t-19.5 14t-33.5 5v128q38 0 50.5 15.5t12.5 40.5v133q0 90 39 137t128 47q42 0 93 -9v-122q-87 18 -87 -60v-140q0 -23 -0.5 -33.5t-4.5 -26.5t-14.5 -27t-27.5 -21q29 -16 38 -40.5t9 -63.5v-136
q0 -29 13 -42t32.5 -12t41.5 3z" />
    <glyph glyph-name="bar" unicode="|" horiz-adv-x="325" 
d="M252 750v-820h-179v820h179z" />
    <glyph glyph-name="braceright" unicode="}" horiz-adv-x="376" 
d="M30 -146v132q22 -2 41.5 -3t32.5 12t13 42v136q0 39 9 63.5t38 40.5q-17 10 -27.5 21t-14.5 27t-4.5 26.5t-0.5 33.5v140q0 78 -87 60v122q51 9 93 9q89 0 128 -47t39 -137v-133q0 -16 3.5 -26.5t18 -20t41.5 -9.5v-128q-38 0 -50.5 -15.5t-12.5 -39.5v-141
q0 -175 -167 -175q-40 0 -93 10z" />
    <glyph glyph-name="asciitilde" unicode="~" horiz-adv-x="581" 
d="M150 208l-123 45q10 71 54 113.5t115 41.5q27 -1 59.5 -14t56.5 -26.5t47.5 -21.5t41.5 3t30 46l123 -45q-10 -71 -54 -113.5t-115 -41.5q-32 1 -69.5 20t-61 34t-52 8.5t-52.5 -49.5z" />
    <glyph glyph-name="uni00A0" unicode="&#xa0;" horiz-adv-x="204" 
 />
    <glyph glyph-name="exclamdown" unicode="&#xa1;" horiz-adv-x="319" 
d="M65 280h187l3 -470h-194zM160 515q50 0 78 -30.5t28 -67.5t-28 -67.5t-78 -30.5t-79 30.5t-29 67.5t28.5 67.5t79.5 30.5z" />
    <glyph glyph-name="cent" unicode="&#xa2;" horiz-adv-x="543" 
d="M414 184l105 -110q-67 -61 -144 -77v-76h-161v82q-82 23 -130.5 83t-48.5 160q0 98 49.5 159.5t129.5 85.5v85h161v-78q75 -16 131 -70l-98 -106q-35 36 -85 36q-51 0 -79.5 -32t-28.5 -81q0 -43 28.5 -72.5t78.5 -29.5q54 0 92 41z" />
    <glyph glyph-name="sterling" unicode="&#xa3;" horiz-adv-x="658" 
d="M357 555q-40 0 -60 -23.5t-17.5 -55.5t11.5 -64h133v-124h-110q3 -26 -4 -66t-21 -58h162l6 99h166v-263h-583v156q30 1 51.5 24.5t29.5 53t6 54.5h-87v124h60q-12 51 -12 59q-5 107 65.5 173t198.5 66q119 0 187 -57t63 -169h-176q-1 35 -19.5 53t-49.5 18z" />
    <glyph glyph-name="currency" unicode="&#xa4;" horiz-adv-x="609" 
d="M305 233q35 0 55.5 20t20.5 56t-20.5 56t-55.5 20t-55.5 -20t-20.5 -56t20.5 -56t55.5 -20zM305 520q37 0 80 -10l68 69l121 -121l-56 -56q18 -39 18 -93q0 -50 -18 -93l55 -54l-121 -121l-67 67q-41 -11 -80 -11q-44 0 -81 10l-66 -67l-121 121l55 56q-17 40 -17 92
q0 51 17 91l-58 58l121 121l70 -69q36 10 80 10z" />
    <glyph glyph-name="yen" unicode="&#xa5;" horiz-adv-x="778" 
d="M129 193v79h157v34h-157v91h68q-19 31 -55 82.5l-46 65.5h-73v156h346v-153l-39 -3l56 -107q14 24 59 107l-37 3v153h346v-156h-74l-101 -148h61v-91h-159v-34h159v-79h-159v-37h82v-156h-360v156h83v37h-157z" />
    <glyph glyph-name="brokenbar" unicode="&#xa6;" horiz-adv-x="334" 
d="M260 339h-186v360h186v-360zM74 280h186v-366h-186v366z" />
    <glyph glyph-name="section" unicode="&#xa7;" horiz-adv-x="619" 
d="M27 63l79 117q93 -63 203 -63q95 0 95 33q0 34 -91 32q-50 -1 -96.5 7.5t-86 27t-62.5 52.5t-20 78q1 23 21 51t50 40q-65 35 -65 101q0 48 25 84.5t66.5 56.5t87 29.5t92.5 9.5q70 0 126 -15t110 -63l-97 -96q-47 36 -139 36q-42 0 -66 -10.5t-24 -25.5q0 -30 84 -30
q51 0 93.5 -6.5t85.5 -23t66 -51.5t19 -85q-3 -23 -20 -48.5t-42 -41.5q28 -19 44.5 -48.5t16.5 -57.5q0 -43 -20 -76.5t-49.5 -52t-69 -30t-72.5 -15t-66 -3.5q-87 0 -154 18t-124 69zM411 351q0 20 -28.5 31.5t-67.5 11.5q-38 0 -67 -12t-29 -31q0 -20 29.5 -30.5
t69.5 -9.5q37 1 65 12t28 28z" />
    <glyph glyph-name="dieresis" unicode="&#xa8;" horiz-adv-x="569" 
d="M44 617q0 42 28 66.5t67 24.5t68 -24.5t29 -66.5q0 -41 -29 -65t-68 -24t-67 24t-28 65zM340 617q0 42 28.5 66.5t68.5 24.5q38 0 66.5 -24.5t28.5 -66.5q0 -41 -28.5 -65t-66.5 -24q-40 0 -68.5 24t-28.5 65z" />
    <glyph glyph-name="copyright" unicode="&#xa9;" horiz-adv-x="797" 
d="M403 721q171 0 268 -102t97 -263q0 -162 -97 -263.5t-268 -101.5q-170 0 -272 102.5t-102 262.5q0 156 102.5 260.5t271.5 104.5zM215 352q0 -88 57.5 -138.5t138.5 -50.5q91 0 157 65l-68 68q-33 -33 -80 -33q-41 0 -70 23.5t-29 65.5q0 47 28.5 71.5t70.5 24.5
q44 0 78 -30l67 66q-65 63 -150 63q-82 0 -138.5 -51.5t-61.5 -143.5zM139 356q0 -120 72.5 -194t191.5 -74q120 0 188 72.5t68 195.5t-68 195t-188 72q-118 0 -191 -74.5t-73 -192.5z" />
    <glyph glyph-name="ordfeminine" unicode="&#xaa;" horiz-adv-x="430" 
d="M273 652l13 42h107v-332h-113l-8 44q-27 -52 -102 -52q-70 4 -112.5 48t-42.5 126t44.5 127.5t114.5 45.5q67 0 99 -49zM198 588q-26 0 -42 -16t-16 -44q0 -29 16 -45t42 -16q27 0 42.5 18t15.5 43q0 24 -15.5 42t-42.5 18zM35 206v106h355v-106h-355z" />
    <glyph glyph-name="guillemotleft" unicode="&#xab;" horiz-adv-x="550" 
d="M25 297l139 222h153v1l-139 -223q98 -162 139 -223h-153zM231 297l139 222h154v1l-139 -223l139 -223h-154z" />
    <glyph glyph-name="logicalnot" unicode="&#xac;" horiz-adv-x="525" 
d="M473 394v-259h-154v125h-279v134h433z" />
    <glyph glyph-name="uni00AD" unicode="&#xad;" horiz-adv-x="784" 
d="M566 170l-83 129q34 10 55 37t22 59.5t-12 63.5t-48 52t-84 21h-166v-362h103v108h42l60 -108h111zM351 443h69q14 0 24 -8.5t12.5 -20.5t0.5 -23.5t-12 -20t-24 -8.5h-70v81zM396 721q171 0 268 -102t97 -263q0 -162 -97 -263.5t-268 -101.5q-170 0 -272 102.5
t-102 262.5q0 156 102.5 260.5t271.5 104.5zM132 356q0 -120 72.5 -194t191.5 -74q120 0 188 72.5t68 195.5t-68 195t-188 72q-118 0 -191 -74.5t-73 -192.5z" />
    <glyph glyph-name="registered" unicode="&#xae;" horiz-adv-x="442" 
d="M46 561v140h350v-140h-350z" />
    <glyph glyph-name="macron" unicode="&#xaf;" horiz-adv-x="389" 
d="M195 708q75 0 117.5 -43.5t42.5 -101.5q0 -59 -42.5 -101.5t-119.5 -42.5q-76 0 -117.5 42t-41.5 101q0 58 42.5 102t118.5 44zM194 607q-22 0 -34 -13t-12 -31t12.5 -30.5t33.5 -12.5t33.5 12.5t12.5 30.5t-11.5 31t-34.5 13z" />
    <glyph glyph-name="degree" unicode="&#xb0;" horiz-adv-x="533" 
d="M45 328v156h137v134h170v-134h136v-156h-136v-134h-170v134h-137zM43 -2v147h447v-147h-447z" />
    <glyph glyph-name="plusminus" unicode="&#xb1;" horiz-adv-x="533" 
d="M45 328v156h137v134h170v-134h136v-156h-136v-134h-170v134h-137zM43 -2v147h447v-147h-447z" />
    <glyph glyph-name="twosuperior" unicode="&#xb2;" horiz-adv-x="379" 
d="M148 667h-102q1 56 42.5 88.5t106.5 32.5q70 0 108.5 -29.5t38.5 -89.5q0 -92 -132 -105q-72 -7 -72 -60h108l4 44h94v-141h-309v97q0 48 37 85.5t82 45.5q9 2 26 4t24 3.5t16.5 5t13 9t3.5 14.5q0 27 -42 29q-47 0 -47 -33z" />
    <glyph glyph-name="threesuperior" unicode="&#xb3;" horiz-adv-x="360" 
d="M125 686l-3 -28h-90v118h301v-17l-93 -128q40 -5 64.5 -31.5t24.5 -69.5q0 -31 -10 -55.5t-26 -38.5t-37.5 -23t-42 -12t-42.5 -3q-61 0 -103.5 31t-43.5 92h101q9 -28 48 -28q22 0 35.5 10.5t13.5 29.5q0 14 -11 25.5t-34 11.5h-48l-10 15l74 101h-68z" />
    <glyph glyph-name="acute" unicode="&#xb4;" horiz-adv-x="303" 
d="M289 699v-12l-106 -133h-158v8l67 137h197z" />
    <glyph glyph-name="_181" unicode="&#xb5;" horiz-adv-x="641" 
d="M597 0h-149l-18 63q-14 -38 -50 -56t-77 -8.5t-68 45.5v-249h-172v699h179v-235q0 -51 26.5 -74t63.5 -23q38 0 63 24.5t26 73.5v234h176v-494z" />
    <glyph glyph-name="paragraph" unicode="&#xb6;" horiz-adv-x="871" 
d="M446 532v-732h-178v392q-128 0 -199 99q-60 86 -45 194q15 114 107 172q67 43 162 43h548v-168h-91v-732h-182v732h-122z" />
    <glyph glyph-name="periodcentered" unicode="&#xb7;" horiz-adv-x="278" 
d="M138 199q-49 0 -77 29.5t-28 65.5t28 65.5t77 29.5t77 -29.5t28 -65.5t-28 -65.5t-77 -29.5z" />
    <glyph glyph-name="cedilla" unicode="&#xb8;" horiz-adv-x="407" 
d="M42 -211l67 73q26 -25 65 -28.5t50 26.5q7 27 -27.5 40t-62.5 -6l-30 22l45 113h125l-20 -55q67 -6 96.5 -51t13.5 -98q-18 -62 -83 -87.5t-134 -10t-105 61.5z" />
    <glyph glyph-name="onesuperior" unicode="&#xb9;" horiz-adv-x="273" 
d="M28 382v90h59v184l-51 -15v89l157 39v-297h60v-90h-225z" />
    <glyph glyph-name="ordmasculine" unicode="&#xba;" horiz-adv-x="423" 
d="M34 181v124h356v-124h-356zM211 344q-87 0 -141 48t-54 138q0 89 53.5 135.5t141.5 46.5q89 0 142 -46.5t53 -135.5q0 -90 -54 -138t-141 -48zM211 469q26 0 43 16t17 45q0 28 -17 44.5t-43 16.5q-25 0 -42.5 -16.5t-17.5 -44.5q0 -29 17.5 -45t42.5 -16z" />
    <glyph glyph-name="guillemotright" unicode="&#xbb;" horiz-adv-x="549" 
d="M385 521l139 -222l-139 -222h-154l139 222l-139 223v-1h154zM180 521l139 -222l-139 -222h-153l139 222l-139 223v-1h153z" />
    <glyph glyph-name="onequarter" unicode="&#xbc;" horiz-adv-x="788" 
d="M254 -2h-124l387 710h128zM33 332v90h62v174l-52 -14v92l157 39v-291h60v-90h-227zM579 370h135v-223h50v-92h-50v-55h-101v55h-194l-5 91zM521 147h92v126z" />
    <glyph glyph-name="onehalf" unicode="&#xbd;" horiz-adv-x="818" 
d="M250 -1l-127 -1l388 710h129zM30 331v90h59v179l-51 -14v92l159 39v-296h60v-90h-227zM594 260h-102q1 56 42.5 88.5t106.5 32.5q70 0 108.5 -29.5t38.5 -89.5q0 -92 -132 -105q-72 -7 -72 -60h108l4 44h94v-141h-309v97q0 48 37 85.5t82 45.5q9 2 26 4t24 3.5t16.5 5
t13 9t3.5 14.5q0 27 -42 29q-47 0 -47 -33z" />
    <glyph glyph-name="threequarters" unicode="&#xbe;" horiz-adv-x="844" 
d="M307 1h-124l371 706h127zM635 388h134v-237h50v-93h-50v-58h-102v58h-194l-5 91zM575 151h92v133zM129 616l-3 -28h-90v118h301v-17l-93 -128q40 -5 64.5 -31.5t24.5 -69.5q0 -31 -10 -55.5t-26 -38.5t-37.5 -23t-42 -12t-42.5 -3q-61 0 -103.5 31t-43.5 92h101
q9 -28 48 -28q22 0 35.5 10.5t13.5 29.5q0 14 -11 25.5t-34 11.5h-48l-10 15l74 101h-68z" />
    <glyph glyph-name="questiondown" unicode="&#xbf;" horiz-adv-x="594" 
d="M213 280h200q-2 -39 -12.5 -70.5t-20 -49.5t-32.5 -37t-32 -24l-36 -21q-48 -28 -50 -62q-1 -26 19 -45.5t57 -19.5q85 0 85 74h182q11 -112 -66.5 -175t-200.5 -63q-84 0 -146 19.5t-100.5 68t-38.5 123.5q0 33 14 61t35.5 46l46 37.5l45.5 37t35.5 43.5t15.5 57z
M311 516q52 0 81.5 -31t29.5 -67.5t-29.5 -67.5t-81.5 -31q-42 0 -71.5 20.5t-36 49.5t0 57.5t35.5 49t72 20.5z" />
    <glyph glyph-name="Agrave" unicode="&#xc0;" horiz-adv-x="882" 
d="M878 0h-348v141l62 6l-22 61h-248l-22 -62l66 -5v-141h-351v156h78l174 389h-79v155h370l243 -544h77v-156zM381 363h130l-66 169zM234 880v13h223l76 -139v-8h-179z" />
    <glyph glyph-name="Aacute" unicode="&#xc1;" horiz-adv-x="882" 
d="M633 893v-13l-120 -134h-179v8l76 139h223zM878 0h-348v141l62 6l-22 61h-248l-22 -62l66 -5v-141h-351v156h78l174 389h-79v155h370l243 -544h77v-156zM381 363h130l-66 169z" />
    <glyph glyph-name="Acircumflex" unicode="&#xc2;" horiz-adv-x="882" 
d="M878 0h-348v141l62 6l-22 61h-248l-22 -62l66 -5v-141h-351v156h78l174 389h-79v155h370l243 -544h77v-156zM381 363h130l-66 169zM372 910h120l160 -157v-8h-166l-54 47l-54 -47h-166v8z" />
    <glyph glyph-name="Atilde" unicode="&#xc3;" horiz-adv-x="882" 
d="M878 0h-348v141l62 6l-22 61h-248l-22 -62l66 -5v-141h-351v156h78l174 389h-79v155h370l243 -544h77v-156zM381 363h130l-66 169zM423 766q-31 21 -64.5 16t-51.5 -41l-98 65q19 53 58.5 81t81 26t82.5 -22q74 -41 109 20l95 -64q-29 -76 -84 -96.5t-128 15.5z" />
    <glyph glyph-name="Adieresis" unicode="&#xc4;" horiz-adv-x="882" 
d="M878 0h-348v141l62 6l-22 61h-248l-22 -62l66 -5v-141h-351v156h78l174 389h-79v155h370l243 -544h77v-156zM381 363h130l-66 169zM199 827q0 41 28 64.5t66 23.5t67 -24t29 -64t-29 -63.5t-67 -23.5q-39 0 -66.5 23t-27.5 64zM492 827q0 41 28 64.5t68 23.5
q37 0 65.5 -24t28.5 -64t-28.5 -63.5t-65.5 -23.5q-40 0 -68 23t-28 64z" />
    <glyph glyph-name="Aring" unicode="&#xc5;" horiz-adv-x="880" 
d="M876 0h-348v141l62 6l-22 61h-248l-22 -62l66 -5v-141h-351v156h78l226 508q-27 30 -32.5 70.5t8 76.5t52 61t93.5 25q54 0 92 -23.5t53 -57t11.5 -72.5t-27.5 -69l232 -519h77v-156zM379 363h130l-66 180zM440 789q-29 0 -41 -21t0 -42t41 -21t40.5 21t-0.5 42t-40 21z
" />
    <glyph glyph-name="AE" unicode="&#xc6;" horiz-adv-x="1034" 
d="M267 544v156h717v-235h-150l-4 70h-126v-108h107v-154h-107v-109h139l4 73h150v-237h-539v153h74v68h-188l-42 -67h52v-154h-345v154h81l249 390h-72zM532 540l-101 -167h101v167z" />
    <glyph glyph-name="Ccedilla" unicode="&#xc7;" horiz-adv-x="709" 
d="M221 -226l67 68q26 -23 65 -26t51 25q7 25 -28 37t-63 -5l-30 20l40 97q-135 23 -214.5 117t-80.5 243q-1 69 23.5 133.5t70.5 117.5t122.5 85t171.5 32q152 0 245 -92v-202h-168l-5 112q-31 11 -72 11q-90 0 -141 -55.5t-51 -141.5q0 -88 52 -142t138 -55q99 0 167 69
l116 -130q-101 -98 -249 -109l-14 -41q68 3 97 -39.5t13 -94.5q-20 -61 -84 -86t-133 -9.5t-106 61.5z" />
    <glyph glyph-name="Egrave" unicode="&#xc8;" horiz-adv-x="711" 
d="M520 167l4 70h150v-237h-627v156h77v389h-77v155h614v-235h-150l-4 70h-187v-108h168v-154h-168v-106h200zM197 878v12h197l67 -137v-8h-158z" />
    <glyph glyph-name="Eacute" unicode="&#xc9;" horiz-adv-x="711" 
d="M520 167l4 70h150v-237h-627v156h77v389h-77v155h614v-235h-150l-4 70h-187v-108h168v-154h-168v-106h200zM545 892v-12l-106 -133h-158v8l67 137h197z" />
    <glyph glyph-name="Ecircumflex" unicode="&#xca;" horiz-adv-x="711" 
d="M520 167l4 70h150v-237h-627v156h77v389h-77v155h614v-235h-150l-4 70h-187v-108h168v-154h-168v-106h200zM310 909h120l160 -157v-8h-166l-54 47l-54 -47h-166v8z" />
    <glyph glyph-name="Edieresis" unicode="&#xcb;" horiz-adv-x="711" 
d="M520 167l4 70h150v-237h-627v156h77v389h-77v155h614v-235h-150l-4 70h-187v-108h168v-154h-168v-106h200zM136 825q0 41 27.5 64t65.5 23q39 0 67.5 -23t28.5 -64q0 -40 -28.5 -63t-67.5 -23q-38 0 -65.5 23t-27.5 63zM427 825q0 41 28 64t67 23q37 0 65 -23.5t28 -63.5
t-28 -63t-65 -23q-39 0 -67 23t-28 63z" />
    <glyph glyph-name="Igrave" unicode="&#xcc;" horiz-adv-x="451" 
d="M127 545h-82v155h364v-155h-83v-389h83v-156h-364v156h82v389zM50 876v12h197l67 -137v-8h-158z" />
    <glyph glyph-name="Iacute" unicode="&#xcd;" horiz-adv-x="451" 
d="M127 545h-82v155h364v-155h-83v-389h83v-156h-364v156h82v389zM407 892v-12l-106 -133h-158v8l67 137h197z" />
    <glyph glyph-name="Icircumflex" unicode="&#xce;" horiz-adv-x="451" 
d="M127 545h-82v155h364v-155h-83v-389h83v-156h-364v156h82v389zM173 909h120l160 -157v-8h-166l-54 47l-54 -47h-166v8z" />
    <glyph glyph-name="Idieresis" unicode="&#xcf;" horiz-adv-x="451" 
d="M8 825q0 42 28 66.5t67 24.5t68 -24.5t29 -66.5q0 -41 -29 -65t-68 -24t-67 24t-28 65zM266 825q0 42 28.5 66.5t68.5 24.5q38 0 66.5 -24.5t28.5 -66.5q0 -41 -28.5 -65t-66.5 -24q-40 0 -68.5 24t-28.5 65zM127 545h-82v155h364v-155h-83v-389h83v-156h-364v156h82v389
z" />
    <glyph glyph-name="Eth" unicode="&#xd0;" horiz-adv-x="825" 
d="M62 274v149h65v122h-76v155h376q178 0 273 -96t95 -247q0 -155 -94.5 -256t-273.5 -101h-376v156h76v118h-65zM324 536v-113h94v-149h-94v-107h103q88 0 130 55.5t42 136.5q0 77 -43 127t-129 50h-103z" />
    <glyph glyph-name="Ntilde" unicode="&#xd1;" horiz-adv-x="897" 
d="M293 700l296 -383q-2 35 -3 66.5t-1.5 48.5t-1.5 28v83h-68v157h349v-157h-81v-543h-169l-291 377l3 -152v-69h68v-156h-352v156h83v387h-83v157h251zM433 772q-33 21 -68 16t-53 -42l-103 67q21 54 62 83t85 27t86 -22q77 -43 114 20l98 -66q-30 -78 -87.5 -99.5
t-133.5 16.5z" />
    <glyph glyph-name="Ograve" unicode="&#xd2;" horiz-adv-x="833" 
d="M805 350q0 -173 -106 -270t-282 -97q-175 0 -282 97t-107 270q0 169 107.5 267.5t281.5 98.5q175 0 281.5 -97.5t106.5 -268.5zM607 350q0 91 -51.5 144t-138.5 53q-84 0 -137.5 -55t-53.5 -142q0 -88 53.5 -143t137.5 -55q86 0 138 55t52 143zM230 902v12h215l72 -139
v-9h-171z" />
    <glyph glyph-name="Oacute" unicode="&#xd3;" horiz-adv-x="833" 
d="M608 916v-12l-116 -136h-171v9l72 139h215zM805 350q0 -173 -106 -270t-282 -97q-175 0 -282 97t-107 270q0 169 107.5 267.5t281.5 98.5q175 0 281.5 -97.5t106.5 -268.5zM607 350q0 91 -51.5 144t-138.5 53q-84 0 -137.5 -55t-53.5 -142q0 -88 53.5 -143t137.5 -55
q86 0 138 55t52 143z" />
    <glyph glyph-name="Ocircumflex" unicode="&#xd4;" horiz-adv-x="833" 
d="M805 350q0 -173 -106 -270t-282 -97q-175 0 -282 97t-107 270q0 169 107.5 267.5t281.5 98.5q175 0 281.5 -97.5t106.5 -268.5zM607 350q0 91 -51.5 144t-138.5 53q-84 0 -137.5 -55t-53.5 -142q0 -88 53.5 -143t137.5 -55q86 0 138 55t52 143zM352 919h125l166 -153v-8
h-172l-56 46l-56 -46h-172v8z" />
    <glyph glyph-name="Otilde" unicode="&#xd5;" horiz-adv-x="833" 
d="M805 350q0 -173 -106 -270t-282 -97q-175 0 -282 97t-107 270q0 169 107.5 267.5t281.5 98.5q175 0 281.5 -97.5t106.5 -268.5zM607 350q0 91 -51.5 144t-138.5 53q-84 0 -137.5 -55t-53.5 -142q0 -88 53.5 -143t137.5 -55q86 0 138 55t52 143zM417 778q-32 20 -66.5 15
t-52.5 -40l-101 64q20 52 60.5 80t83.5 26t85 -21q76 -41 112 19l97 -63q-30 -75 -86 -95.5t-132 15.5z" />
    <glyph glyph-name="Odieresis" unicode="&#xd6;" horiz-adv-x="833" 
d="M805 350q0 -173 -106 -270t-282 -97q-175 0 -282 97t-107 270q0 169 107.5 267.5t281.5 98.5q175 0 281.5 -97.5t106.5 -268.5zM607 350q0 91 -51.5 144t-138.5 53q-84 0 -137.5 -55t-53.5 -142q0 -88 53.5 -143t137.5 -55q86 0 138 55t52 143zM173 835q0 42 28 66.5
t67 24.5t68 -24.5t29 -66.5q0 -41 -29 -65t-68 -24t-67 24t-28 65zM469 835q0 42 28.5 66.5t68.5 24.5q38 0 66.5 -24.5t28.5 -66.5q0 -41 -28.5 -65t-66.5 -24q-40 0 -68.5 24t-28.5 65z" />
    <glyph glyph-name="multiply" unicode="&#xd7;" horiz-adv-x="460" 
d="M153 508l79 -84l83 85l111 -111l-87 -89l87 -87l-113 -106l-83 84l-81 -85l-116 114l84 83l-81 83z" />
    <glyph glyph-name="Oslash" unicode="&#xd8;" horiz-adv-x="835" 
d="M607 769h173l-91 -140q118 -99 118 -279q0 -172 -106.5 -269.5t-282.5 -97.5q-71 0 -136 17l-48 -74h-171l90 139q-124 100 -124 285q0 170 107.5 268.5t281.5 98.5q76 0 142 -20zM418 548q-85 0 -138 -55.5t-53 -142.5q0 -68 33 -118l202 312q-28 4 -44 4zM609 350
q0 64 -28 112l-199 -307q18 -3 36 -3q86 0 138.5 55t52.5 143z" />
    <glyph glyph-name="Ugrave" unicode="&#xd9;" horiz-adv-x="854" 
d="M561 545h-84v155h361v-155h-81v-237q1 -154 -86.5 -239t-242.5 -85q-157 0 -244 83.5t-87 242.5v235h-81v155h362v-155h-85v-235q0 -157 135 -157q62 0 97.5 38.5t35.5 116.5v237zM246 883v12h197l67 -137v-8h-158z" />
    <glyph glyph-name="Uacute" unicode="&#xda;" horiz-adv-x="854" 
d="M561 545h-84v155h361v-155h-81v-237q1 -154 -86.5 -239t-242.5 -85q-157 0 -244 83.5t-87 242.5v235h-81v155h362v-155h-85v-235q0 -157 135 -157q62 0 97.5 38.5t35.5 116.5v237zM606 895v-12l-106 -133h-158v8l67 137h197z" />
    <glyph glyph-name="Ucircumflex" unicode="&#xdb;" horiz-adv-x="854" 
d="M561 545h-84v155h361v-155h-81v-237q1 -154 -86.5 -239t-242.5 -85q-157 0 -244 83.5t-87 242.5v235h-81v155h362v-155h-85v-235q0 -157 135 -157q62 0 97.5 38.5t35.5 116.5v237zM363 906h120l160 -157v-8h-166l-54 47l-54 -47h-166v8z" />
    <glyph glyph-name="Udieresis" unicode="&#xdc;" horiz-adv-x="854" 
d="M168 839q0 42 28 66.5t67 24.5t68 -24.5t29 -66.5q0 -41 -29 -65t-68 -24t-67 24t-28 65zM494 839q0 42 28.5 66.5t68.5 24.5q38 0 66.5 -24.5t28.5 -66.5q0 -41 -28.5 -65t-66.5 -24q-40 0 -68.5 24t-28.5 65zM561 545h-84v155h361v-155h-81v-237q1 -154 -86.5 -239
t-242.5 -85q-157 0 -244 83.5t-87 242.5v235h-81v155h362v-155h-85v-235q0 -157 135 -157q62 0 97.5 38.5t35.5 116.5v237z" />
    <glyph glyph-name="Yacute" unicode="&#xdd;" horiz-adv-x="783" 
d="M574 0h-365v156h83v85l-204 304h-74v155h347v-152l-46 -3q27 -38 77 -127q57 100 75 127l-44 3v152h346v-155h-75l-203 -304v-85h83v-156zM578 895v-12l-106 -133h-158v8l67 137h197z" />
    <glyph glyph-name="Thorn" unicode="&#xde;" horiz-adv-x="749" 
d="M322 0h-275v156h77v389h-77v155h275v-108h133q67 0 122 -20.5t88.5 -54.5t51.5 -77.5t18 -88.5t-18 -88.5t-51.5 -77.5t-88.5 -54.5t-122 -20.5h-133v-110zM322 427v-155h133q40 0 62.5 24t22 53.5t-23 53.5t-61.5 24h-133z" />
    <glyph glyph-name="germandbls" unicode="&#xdf;" horiz-adv-x="668" 
d="M327 -5v147q29 -6 42 -6q85 0 85 90q0 44 -27.5 59t-74.5 15h-25v164h15q31 0 48.5 13t17.5 36t-17.5 36t-40.5 13q-30 0 -48.5 -14.5t-18.5 -40.5v-507h-263v136h69v375q0 95 78.5 150.5t182.5 55.5q67 0 121.5 -19t92 -65t37.5 -114q0 -88 -89 -128q135 -49 135 -178
q0 -109 -69.5 -166.5t-178.5 -57.5q-43 0 -72 6z" />
    <glyph glyph-name="agrave" unicode="&#xe0;" horiz-adv-x="682" 
d="M409 443l9 53h234v-136h-67v-224h67v-136h-231l-8 55q-30 -35 -74 -50t-89 -13q-107 6 -167 76t-60 181t67 184.5t174 73.5q104 0 145 -64zM306 358q-46 0 -72.5 -31t-26.5 -78q0 -50 28 -79t71 -29q45 0 73.5 31.5t28.5 76.5q0 50 -27 79.5t-75 29.5zM173 687v12h192
l66 -134v-8h-155z" />
    <glyph glyph-name="aacute" unicode="&#xe1;" horiz-adv-x="682" 
d="M409 443l9 53h234v-136h-67v-224h67v-136h-231l-8 55q-30 -35 -74 -50t-89 -13q-107 6 -167 76t-60 181t67 184.5t174 73.5q104 0 145 -64zM306 358q-46 0 -72.5 -31t-26.5 -78q0 -50 28 -79t71 -29q45 0 73.5 31.5t28.5 76.5q0 50 -27 79.5t-75 29.5zM508 699v-12
l-103 -129h-154v8l65 133h192z" />
    <glyph glyph-name="acircumflex" unicode="&#xe2;" horiz-adv-x="682" 
d="M409 443l9 53h234v-136h-67v-224h67v-136h-231l-8 55q-30 -35 -74 -50t-89 -13q-107 6 -167 76t-60 181t67 184.5t174 73.5q104 0 145 -64zM306 358q-46 0 -72.5 -31t-26.5 -78q0 -50 28 -79t71 -29q45 0 73.5 31.5t28.5 76.5q0 50 -27 79.5t-75 29.5zM303 705h116
l154 -151v-7h-160l-52 45l-52 -45h-161v7z" />
    <glyph glyph-name="atilde" unicode="&#xe3;" horiz-adv-x="682" 
d="M353 565q-30 22 -64 19t-53 -38l-96 70q22 52 63 78t84 23.5t81 -26.5q72 -45 111 15l92 -70q-34 -76 -90 -94t-128 23zM409 443l9 53h234v-136h-67v-224h67v-136h-231l-8 55q-30 -35 -74 -50t-89 -13q-107 6 -167 76t-60 181t67 184.5t174 73.5q104 0 145 -64zM306 358
q-46 0 -72.5 -31t-26.5 -78q0 -50 28 -79t71 -29q45 0 73.5 31.5t28.5 76.5q0 50 -27 79.5t-75 29.5z" />
    <glyph glyph-name="adieresis" unicode="&#xe4;" horiz-adv-x="682" 
d="M116 629q0 39 27 62t65 23t66 -23t28 -62q0 -38 -28 -60.5t-66 -22.5t-65 22t-27 61zM373 629q0 39 28 62t66 23q37 0 65 -23t28 -62q0 -38 -28 -60.5t-65 -22.5q-38 0 -66 22t-28 61zM409 443l9 53h234v-136h-67v-224h67v-136h-231l-8 55q-30 -35 -74 -50t-89 -13
q-107 6 -167 76t-60 181t67 184.5t174 73.5q104 0 145 -64zM306 358q-46 0 -72.5 -31t-26.5 -78q0 -50 28 -79t71 -29q45 0 73.5 31.5t28.5 76.5q0 50 -27 79.5t-75 29.5z" />
    <glyph glyph-name="aring" unicode="&#xe5;" horiz-adv-x="682" 
d="M343 536q-68 0 -106 35.5t-37 78.5t39 78.5t104 35.5q52 0 87.5 -23.5t44.5 -57t1 -67t-44 -57t-89 -23.5zM342 686q-15 0 -25.5 -7.5t-13 -19t0 -22.5t12.5 -18.5t25 -7.5q27 0 37.5 18.5t0 37.5t-36.5 19zM409 443l9 53h234v-136h-67v-224h67v-136h-231l-8 55
q-30 -35 -74 -50t-89 -13q-107 6 -167 76t-60 181t67 184.5t174 73.5q104 0 145 -64zM306 358q-46 0 -72.5 -31t-26.5 -78q0 -50 28 -79t71 -29q45 0 73.5 31.5t28.5 76.5q0 50 -27 79.5t-75 29.5z" />
    <glyph glyph-name="ae" unicode="&#xe6;" horiz-adv-x="937" 
d="M311 356q-43 0 -71 -29.5t-28 -79.5t28 -79t71 -29q46 0 75 28.5t29 74.5q0 54 -27.5 84t-76.5 30zM569 313h182q-2 37 -45 52.5t-87 0.5t-50 -53zM906 195h-338q9 -30 43.5 -46.5t69.5 -16.5q74 0 127 40l90 -101q-88 -82 -225 -82q-94 0 -137 56l-3 -45h-113l-8 53
q-30 -34 -74 -49t-89 -13q-107 7 -166.5 76.5t-59.5 179.5q0 111 66.5 184.5t173.5 73.5q103 0 145 -64l9 53h116l3 -41q63 52 148 50q116 -1 184.5 -84.5t37.5 -223.5z" />
    <glyph glyph-name="ccedilla" unicode="&#xe7;" horiz-adv-x="543" 
d="M139 -196l63 65q24 -22 60.5 -25.5t47.5 23.5q7 24 -26 35.5t-59 -5.5l-28 20l34 82q-95 20 -152 84t-57 165q0 123 82.5 191.5t209.5 68.5q123 0 200 -65l-8 -149h-147v62q-22 6 -34 6q-52 0 -84 -30.5t-32 -82.5q0 -44 31 -74.5t83 -30.5q66 0 112 41l96 -108
q-77 -74 -185 -85l-8 -23q63 -6 90 -45.5t13 -87.5q-19 -57 -78.5 -80.5t-124 -9t-99.5 57.5z" />
    <glyph glyph-name="egrave" unicode="&#xe8;" horiz-adv-x="584" 
d="M209 313h179q-2 28 -28.5 44.5t-58.5 17t-60 -16t-32 -45.5zM297 509q136 0 212.5 -86t45.5 -228h-347q9 -30 42 -46.5t68 -16.5q76 0 129 40l90 -101q-88 -82 -227 -82q-126 0 -207 64.5t-81 192.5q0 126 82 194.5t193 68.5zM136 691v12h197l67 -137v-8h-158z" />
    <glyph glyph-name="eacute" unicode="&#xe9;" horiz-adv-x="584" 
d="M209 313h179q-2 28 -28.5 44.5t-58.5 17t-60 -16t-32 -45.5zM297 509q136 0 212.5 -86t45.5 -228h-347q9 -30 42 -46.5t68 -16.5q76 0 129 40l90 -101q-88 -82 -227 -82q-126 0 -207 64.5t-81 192.5q0 126 82 194.5t193 68.5zM475 700v-12l-106 -133h-158v8l67 137h197z
" />
    <glyph glyph-name="ecircumflex" unicode="&#xea;" horiz-adv-x="584" 
d="M209 313h179q-2 28 -28.5 44.5t-58.5 17t-60 -16t-32 -45.5zM297 509q136 0 212.5 -86t45.5 -228h-347q9 -30 42 -46.5t68 -16.5q76 0 129 40l90 -101q-88 -82 -227 -82q-126 0 -207 64.5t-81 192.5q0 126 82 194.5t193 68.5zM246 703h112l148 -147v-8h-154l-50 44
l-50 -44h-154v8z" />
    <glyph glyph-name="edieresis" unicode="&#xeb;" horiz-adv-x="584" 
d="M90 628q0 39 26.5 61t64.5 22q37 0 65 -22.5t28 -60.5t-28 -60t-65 -22q-38 0 -64.5 21.5t-26.5 60.5zM331 628q0 38 27.5 60.5t65.5 22.5q37 0 64.5 -22.5t27.5 -60.5t-27.5 -60t-64.5 -22q-38 0 -65.5 22t-27.5 60zM209 313h179q-2 28 -28.5 44.5t-58.5 17t-60 -16
t-32 -45.5zM297 509q136 0 212.5 -86t45.5 -228h-347q9 -30 42 -46.5t68 -16.5q76 0 129 40l90 -101q-88 -82 -227 -82q-126 0 -207 64.5t-81 192.5q0 126 82 194.5t193 68.5z" />
    <glyph glyph-name="igrave" unicode="&#xec;" horiz-adv-x="375" 
d="M111 554l-78 154h184l46 -146v-8h-152zM29 138v-138h326v138h-70v358h-254v-137h68v-221h-70z" />
    <glyph glyph-name="iacute" unicode="&#xed;" horiz-adv-x="375" 
d="M324 708l-78 -154h-152v8l46 146h184zM29 0v138h70v221h-68v137h254v-358h70v-138h-326z" />
    <glyph glyph-name="icircumflex" unicode="&#xee;" horiz-adv-x="375" 
d="M29 138v-138h326v138h-70v358h-254v-137h68v-221h-70zM114 698h124l115 -146v-8h-144l-32 43l-33 -43h-145v8z" />
    <glyph glyph-name="idieresis" unicode="&#xef;" horiz-adv-x="375" 
d="M293 538q-36 0 -60.5 22.5t-24.5 64.5q0 40 25 62t61 22q35 0 61 -22.5t26 -61.5q0 -42 -26.5 -64.5t-61.5 -22.5zM78 538q-36 0 -62 22.5t-26 64.5q0 40 26 62t62 22q35 0 60.5 -22t25.5 -62q0 -42 -25 -64.5t-61 -22.5zM29 138v-138h326v138h-70v358h-254v-137h68v-221
h-70z" />
    <glyph glyph-name="eth" unicode="&#xf0;" horiz-adv-x="575" 
d="M289 656l53 63l103 -79l-43 -50q81 -63 116 -153.5t32 -186.5q-7 -119 -72 -188.5t-192 -69.5q-125 0 -194.5 72.5t-69.5 173.5q0 107 69 175.5t179 68.5q21 0 32 -1q-76 66 -197 81l28 131q96 -12 156 -37zM286 141q41 0 64.5 30.5t24 67t-23 67t-65.5 30.5
q-40 0 -63 -30.5t-23 -67t22.5 -67t63.5 -30.5z" />
    <glyph glyph-name="ntilde" unicode="&#xf1;" horiz-adv-x="706" 
d="M620 136h68v-136h-306v136h53v137q0 43 -19.5 63t-48.5 20q-36 0 -61 -24.5t-25 -70.5v-125h54v-136h-304v136h68v225h-68v135h230l10 -55q57 68 156 66q87 -1 140 -55t53 -178v-138zM351 571q-31 22 -64.5 16.5t-51.5 -44.5l-98 71q14 44 40.5 72t57 37.5t63 5.5
t61.5 -22q74 -45 109 21l95 -69q-29 -83 -84 -105.5t-128 17.5z" />
    <glyph glyph-name="ograve" unicode="&#xf2;" horiz-adv-x="608" 
d="M304 505q119 0 200.5 -66t81.5 -193q0 -126 -83.5 -192t-198.5 -66q-55 0 -104.5 15.5t-89.5 45.5t-64 81t-24 116q0 87 41.5 147.5t103.5 86t137 25.5zM304 139q46 0 74 30.5t28 76.5q0 45 -27.5 76.5t-74.5 31.5t-74.5 -31.5t-27.5 -76.5t27.5 -76t74.5 -31zM128 693
v12h197l67 -137v-8h-158z" />
    <glyph glyph-name="oacute" unicode="&#xf3;" horiz-adv-x="608" 
d="M304 505q119 0 200.5 -66t81.5 -193q0 -126 -83.5 -192t-198.5 -66q-55 0 -104.5 15.5t-89.5 45.5t-64 81t-24 116q0 87 41.5 147.5t103.5 86t137 25.5zM304 139q46 0 74 30.5t28 76.5q0 45 -27.5 76.5t-74.5 31.5t-74.5 -31.5t-27.5 -76.5t27.5 -76t74.5 -31zM482 703
v-12l-106 -133h-158v8l67 137h197z" />
    <glyph glyph-name="ocircumflex" unicode="&#xf4;" horiz-adv-x="608" 
d="M304 505q119 0 200.5 -66t81.5 -193q0 -126 -83.5 -192t-198.5 -66q-55 0 -104.5 15.5t-89.5 45.5t-64 81t-24 116q0 87 41.5 147.5t103.5 86t137 25.5zM304 139q46 0 74 30.5t28 76.5q0 45 -27.5 76.5t-74.5 31.5t-74.5 -31.5t-27.5 -76.5t27.5 -76t74.5 -31zM254 705
h113l150 -153v-7h-156l-51 45l-51 -45h-156v7z" />
    <glyph glyph-name="otilde" unicode="&#xf5;" horiz-adv-x="608" 
d="M304 505q119 0 200.5 -66t81.5 -193q0 -126 -83.5 -192t-198.5 -66q-55 0 -104.5 15.5t-89.5 45.5t-64 81t-24 116q0 87 41.5 147.5t103.5 86t137 25.5zM304 139q46 0 74 30.5t28 76.5q0 45 -27.5 76.5t-74.5 31.5t-74.5 -31.5t-27.5 -76.5t27.5 -76t74.5 -31zM299 572
q-30 19 -61.5 14.5t-48.5 -38.5l-94 62q19 51 56.5 78t77.5 25t79 -20q70 -41 104 18l90 -61q-28 -73 -80.5 -93t-122.5 15z" />
    <glyph glyph-name="odieresis" unicode="&#xf6;" horiz-adv-x="608" 
d="M93 621q0 41 27.5 64.5t64.5 23.5t65.5 -24t28.5 -64t-28.5 -63t-65.5 -23t-64.5 23t-27.5 63zM340 621q0 41 28 64.5t66 23.5q37 0 64.5 -23.5t27.5 -64.5q0 -40 -27.5 -63t-64.5 -23q-38 0 -66 23t-28 63zM304 505q119 0 200.5 -66t81.5 -193q0 -126 -83.5 -192
t-198.5 -66q-55 0 -104.5 15.5t-89.5 45.5t-64 81t-24 116q0 87 41.5 147.5t103.5 86t137 25.5zM304 139q46 0 74 30.5t28 76.5q0 45 -27.5 76.5t-74.5 31.5t-74.5 -31.5t-27.5 -76.5t27.5 -76t74.5 -31z" />
    <glyph glyph-name="divide" unicode="&#xf7;" horiz-adv-x="521" 
d="M28 399v-145h465v145h-465zM167 133q0 43 28.5 66t69.5 23q40 0 69 -23.5t29 -65.5q0 -41 -29 -64t-69 -23t-69 23t-29 64zM167 521q0 42 28.5 65t69.5 23q40 0 69 -23t29 -65t-29 -65t-69 -23t-69 23t-29 65z" />
    <glyph glyph-name="oslash" unicode="&#xf8;" horiz-adv-x="609" 
d="M305 139q47 0 72.5 30t25.5 77t-25.5 77.5t-72.5 30.5t-72.5 -30.5t-25.5 -77.5t25.5 -77t72.5 -30zM305 505q28 0 61 -5l33 55h170l-67 -110q85 -69 85 -199q0 -67 -24 -118.5t-65 -81t-90 -44t-103 -14.5q-19 0 -57 4l-31 -52h-171l65 107q-88 68 -88 199
q0 130 81.5 194.5t200.5 64.5z" />
    <glyph glyph-name="ugrave" unicode="&#xf9;" horiz-adv-x="688" 
d="M78 360h-66v136h250v-274q0 -43 20.5 -63t49.5 -20q37 0 61.5 23.5t24.5 69.5v128h-69v136h251v-360h67v-136h-231l-7 54q-57 -68 -157 -66q-87 1 -140.5 55t-53.5 178v139zM158 687v12h197l67 -137v-8h-158z" />
    <glyph glyph-name="uacute" unicode="&#xfa;" horiz-adv-x="688" 
d="M78 360h-66v136h250v-274q0 -43 20.5 -63t49.5 -20q37 0 61.5 23.5t24.5 69.5v128h-69v136h251v-360h67v-136h-231l-7 54q-57 -68 -157 -66q-87 1 -140.5 55t-53.5 178v139zM516 699v-12l-106 -133h-158v8l67 137h197z" />
    <glyph glyph-name="ucircumflex" unicode="&#xfb;" horiz-adv-x="688" 
d="M78 360h-66v136h250v-274q0 -43 20.5 -63t49.5 -20q37 0 61.5 23.5t24.5 69.5v128h-69v136h251v-360h67v-136h-231l-7 54q-57 -68 -157 -66q-87 1 -140.5 55t-53.5 178v139zM268 708h119l158 -155v-8h-164l-54 46l-53 -46h-164v8z" />
    <glyph glyph-name="udieresis" unicode="&#xfc;" horiz-adv-x="688" 
d="M78 360h-66v136h250v-274q0 -43 20.5 -63t49.5 -20q37 0 61.5 23.5t24.5 69.5v128h-69v136h251v-360h67v-136h-231l-7 54q-57 -68 -157 -66q-87 1 -140.5 55t-53.5 178v139zM90 625q0 41 28 65t67 24t68.5 -24t29.5 -65q0 -40 -29.5 -63t-68.5 -23t-67 23t-28 63z
M387 625q0 41 28.5 65t68.5 24q38 0 66.5 -24t28.5 -65q0 -40 -28.5 -63t-66.5 -23q-40 0 -68.5 23t-28.5 63z" />
    <glyph glyph-name="yacute" unicode="&#xfd;" horiz-adv-x="668" 
d="M215 -29l20 45l-154 345h-71v136h306v-136h-41l60 -165l58 165h-34v136h298v-136h-68l-207 -461q-33 -74 -85.5 -106.5t-112 -25.5t-126.5 47l50 136q82 -44 107 20zM521 702v-13l-110 -138h-164v8l69 143h205z" />
    <glyph glyph-name="thorn" unicode="&#xfe;" horiz-adv-x="639" 
d="M55 -68v632h-66v136h251v-249q58 54 152 54q104 0 164 -75t60 -180q0 -109 -60.5 -184.5t-174.5 -75.5q-83 0 -141 52v-110h69v-137h-320v137h66zM342 147q38 0 64.5 27.5t26.5 71.5q0 45 -26 72t-65 27q-36 0 -63 -29.5t-27 -69.5t26.5 -69.5t63.5 -29.5z" />
    <glyph glyph-name="ydieresis" unicode="&#xff;" horiz-adv-x="668" 
d="M215 -29q-25 -64 -107 -20l-50 -136q67 -40 126.5 -47t112 25.5t85.5 106.5l207 461h68v136h-298v-136h34l-58 -165l-60 165h41v136h-306v-136h71l154 -345zM107 621q0 41 27 64.5t64 23.5t65 -23.5t28 -64.5q0 -40 -28 -63t-65 -23t-64 23t-27 63zM390 621
q0 41 27.5 64.5t65.5 23.5q36 0 63.5 -23.5t27.5 -64.5q0 -40 -27.5 -63t-63.5 -23q-38 0 -65.5 23t-27.5 63z" />
    <glyph glyph-name="Amacron" unicode="&#x100;" horiz-adv-x="882" 
d="M265 756v136h326v-136h-326zM878 0h-348v141l62 6l-22 61h-248l-22 -62l66 -5v-141h-351v156h78l174 389h-79v155h370l243 -544h77v-156zM381 363h130l-66 169z" />
    <glyph glyph-name="amacron" unicode="&#x101;" horiz-adv-x="682" 
d="M188 570v136h312v-136h-312zM409 443l9 53h234v-136h-67v-224h67v-136h-231l-8 55q-30 -35 -74 -50t-89 -13q-107 6 -167 76t-60 181t67 184.5t174 73.5q104 0 145 -64zM306 358q-46 0 -72.5 -31t-26.5 -78q0 -50 28 -79t71 -29q45 0 73.5 31.5t28.5 76.5q0 50 -27 79.5
t-75 29.5z" />
    <glyph glyph-name="Abreve" unicode="&#x102;" horiz-adv-x="882" 
d="M878 0h-348v141l62 6l-22 61h-248l-22 -62l66 -5v-141h-351v156h78l174 389h-79v155h370l243 -544h77v-156zM381 363h130l-66 169zM236 913h144q0 -18 9.5 -28.5t18 -13t16.5 -2.5t16.5 2.5t17.5 13t9 28.5h145q2 -80 -51 -126.5t-137 -46.5q-85 0 -137.5 46.5
t-50.5 126.5z" />
    <glyph glyph-name="abreve" unicode="&#x103;" horiz-adv-x="682" 
d="M409 443l9 53h234v-136h-67v-224h67v-136h-231l-8 55q-30 -35 -74 -50t-89 -13q-107 6 -167 76t-60 181t67 184.5t174 73.5q104 0 145 -64zM306 358q-46 0 -72.5 -31t-26.5 -78q0 -50 28 -79t71 -29q45 0 73.5 31.5t28.5 76.5q0 50 -27 79.5t-75 29.5zM155 712h143
q0 -18 9 -28.5t17.5 -12.5t16.5 -2t16.5 2t17.5 12.5t9 28.5h143q2 -77 -50.5 -121.5t-135.5 -44.5t-135.5 44.5t-50.5 121.5z" />
    <glyph glyph-name="Aogonek" unicode="&#x104;" horiz-adv-x="882" 
d="M878 0h-63q-25 -1 -41 -12t-20 -25t-3.5 -26.5t3.5 -18.5q10 -23 42.5 -27.5t75.5 17.5l30 -114q-52 -30 -118.5 -37.5t-123 19t-69.5 86.5q-10 42 11 80t63 58h-135v141l62 6l-22 61h-248l-22 -62l66 -5v-141h-351v156h78l174 389h-79v155h370l243 -544h77v-156z
M381 363h130l-66 169z" />
    <glyph glyph-name="aogonek" unicode="&#x105;" horiz-adv-x="682" 
d="M409 443l9 53h234v-136h-67v-224h67v-136h-36q-36 0 -54.5 -17t-17 -33.5t2.5 -25.5q10 -22 40 -26.5t70 16.5l28 -105q-35 -21 -79.5 -29.5t-86.5 -4.5t-75 29t-42 68q-8 39 12 76t62 52h-55l-8 55q-30 -35 -74 -50t-89 -13q-107 6 -167 76t-60 181t67 184.5t174 73.5
q104 0 145 -64zM306 358q-46 0 -72.5 -31t-26.5 -78q0 -50 28 -79t71 -29q45 0 73.5 31.5t28.5 76.5q0 50 -27 79.5t-75 29.5z" />
    <glyph glyph-name="Cacute" unicode="&#x106;" horiz-adv-x="708" 
d="M580 222l116 -130q-111 -108 -283 -110q-172 -1 -278.5 97t-107.5 271q-1 69 23.5 133.5t70.5 117.5t122.5 85t171.5 32q152 0 245 -92v-202h-168l-5 112q-31 11 -72 11q-90 0 -141 -55.5t-51 -141.5q0 -88 52 -142t138 -55q99 0 167 69zM576 915v-12l-106 -133h-158v8
l67 137h197z" />
    <glyph glyph-name="cacute" unicode="&#x107;" horiz-adv-x="543" 
d="M435 185l96 -108q-41 -40 -99.5 -63.5t-115.5 -23.5q-127 0 -210.5 67.5t-83.5 190.5t82.5 191.5t209.5 68.5q123 0 200 -65l-8 -149h-147v62q-22 6 -34 6q-52 0 -84 -30.5t-32 -82.5q0 -44 31 -74.5t83 -30.5q66 0 112 41zM466 700v-11l-98 -128h-148v8l63 131h183z" />
    <glyph glyph-name="Ccircumflex" unicode="&#x108;" horiz-adv-x="708" 
d="M580 222l116 -130q-111 -108 -283 -110q-172 -1 -278.5 97t-107.5 271q-1 69 23.5 133.5t70.5 117.5t122.5 85t171.5 32q152 0 245 -92v-202h-168l-5 112q-31 11 -72 11q-90 0 -141 -55.5t-51 -141.5q0 -88 52 -142t138 -55q99 0 167 69zM334 932h120l160 -157v-8h-166
l-54 47l-54 -47h-166v8z" />
    <glyph glyph-name="ccircumflex" unicode="&#x109;" horiz-adv-x="543" 
d="M435 185l96 -108q-41 -40 -99.5 -63.5t-115.5 -23.5q-127 0 -210.5 67.5t-83.5 190.5t82.5 191.5t209.5 68.5q123 0 200 -65l-8 -149h-147v62q-22 6 -34 6q-52 0 -84 -30.5t-32 -82.5q0 -44 31 -74.5t83 -30.5q66 0 112 41zM239 711h110l147 -151v-8h-152l-50 46l-49 -46
h-152v8z" />
    <glyph glyph-name="Cdotaccent" unicode="&#x10a;" horiz-adv-x="708" 
d="M580 222l116 -130q-111 -108 -283 -110q-172 -1 -278.5 97t-107.5 271q-1 69 23.5 133.5t70.5 117.5t122.5 85t171.5 32q152 0 245 -92v-202h-168l-5 112q-31 11 -72 11q-90 0 -141 -55.5t-51 -141.5q0 -88 52 -142t138 -55q99 0 167 69zM305 855q0 42 30 65.5t71 23.5
t71 -23.5t30 -65.5t-30 -65.5t-71 -23.5t-71 23.5t-30 65.5z" />
    <glyph glyph-name="cdotaccent" unicode="&#x10b;" horiz-adv-x="543" 
d="M300 558q-35 0 -60.5 20t-25.5 56q0 37 25.5 57.5t59.5 20.5q36 0 62.5 -20.5t26.5 -57.5q0 -36 -26 -56t-62 -20zM435 185l96 -108q-41 -40 -99.5 -63.5t-115.5 -23.5q-127 0 -210.5 67.5t-83.5 190.5t82.5 191.5t209.5 68.5q123 0 200 -65l-8 -149h-147v62q-22 6 -34 6
q-52 0 -84 -30.5t-32 -82.5q0 -44 31 -74.5t83 -30.5q66 0 112 41z" />
    <glyph glyph-name="Ccaron" unicode="&#x10c;" horiz-adv-x="708" 
d="M580 222l116 -130q-111 -108 -283 -110q-172 -1 -278.5 97t-107.5 271q-1 69 23.5 133.5t70.5 117.5t122.5 85t171.5 32q152 0 245 -92v-202h-168l-5 112q-31 11 -72 11q-90 0 -141 -55.5t-51 -141.5q0 -88 52 -142t138 -55q99 0 167 69zM459 763h-116l-154 144v7h160
l52 -43l52 43h160v-7z" />
    <glyph glyph-name="ccaron" unicode="&#x10d;" horiz-adv-x="543" 
d="M435 185l96 -108q-41 -40 -99.5 -63.5t-115.5 -23.5q-127 0 -210.5 67.5t-83.5 190.5t82.5 191.5t209.5 68.5q123 0 200 -65l-8 -149h-147v62q-22 6 -34 6q-52 0 -84 -30.5t-32 -82.5q0 -44 31 -74.5t83 -30.5q66 0 112 41zM348 551h-107l-142 139v7h148l48 -41l48 41
h147v-7z" />
    <glyph glyph-name="Dcaron" unicode="&#x10e;" horiz-adv-x="823" 
d="M125 545h-76v155h376q178 0 273 -96t95 -247q0 -155 -94.5 -256t-273.5 -101h-376v156h76v389zM322 536v-369h103q88 0 130 55.5t42 136.5q0 77 -43 127t-129 50h-103zM415 744h-121l-162 141v7h168l55 -42l54 42h168v-7z" />
    <glyph glyph-name="dcaron" unicode="&#x10f;" horiz-adv-x="670" 
d="M632 519l21 182h155l-56 -182h-120zM400 453v112h-68v135h251v-564h68v-136h-232l-7 54q-30 -34 -74 -49t-89 -13q-109 6 -167.5 72.5t-58.5 183.5q0 113 66.5 185t173.5 72q94 0 137 -52zM305 357q-43 0 -71 -29.5t-28 -79.5t28 -79.5t71 -29.5q44 0 71.5 31.5
t27.5 72.5q0 48 -26 81t-73 33z" />
    <glyph glyph-name="Dcroat" unicode="&#x110;" horiz-adv-x="825" 
d="M62 274v149h65v122h-76v155h376q178 0 273 -96t95 -247q0 -155 -94.5 -256t-273.5 -101h-376v156h76v118h-65zM324 536v-113h94v-149h-94v-107h103q88 0 130 55.5t42 136.5q0 77 -43 127t-129 50h-103z" />
    <glyph glyph-name="dcroat" unicode="&#x111;" horiz-adv-x="676" 
d="M400 453v112h-68v135h251v-114h72v-139h-72v-311h68v-136h-232l-7 54q-30 -34 -74 -49t-89 -13q-109 6 -167.5 72.5t-58.5 183.5q0 113 66.5 185t173.5 72q94 0 137 -52zM305 357q-43 0 -71 -29.5t-28 -79.5t28 -79.5t71 -29.5q44 0 71.5 31.5t27.5 72.5q0 48 -26 81
t-73 33z" />
    <glyph glyph-name="Emacron" unicode="&#x112;" horiz-adv-x="711" 
d="M548 883v-132h-340v132h340zM520 167l4 70h150v-237h-627v156h77v389h-77v155h614v-235h-150l-4 70h-187v-108h168v-154h-168v-106h200z" />
    <glyph glyph-name="emacron" unicode="&#x113;" horiz-adv-x="584" 
d="M158 702h289v-130h-289v130zM209 313h179q-2 28 -28.5 44.5t-58.5 17t-60 -16t-32 -45.5zM297 509q136 0 212.5 -86t45.5 -228h-347q9 -30 42 -46.5t68 -16.5q76 0 129 40l90 -101q-88 -82 -227 -82q-126 0 -207 64.5t-81 192.5q0 126 82 194.5t193 68.5z" />
    <glyph glyph-name="Ebreve" unicode="&#x114;" horiz-adv-x="711" 
d="M520 167l4 70h150v-237h-627v156h77v389h-77v155h614v-235h-150l-4 70h-187v-108h168v-154h-168v-106h200zM175 901h150q0 -24 15 -33t30 -9q9 0 17.5 2.5t18 12.5t9.5 27h150q2 -75 -52.5 -118.5t-142.5 -43.5t-143 43.5t-52 118.5z" />
    <glyph glyph-name="ebreve" unicode="&#x115;" horiz-adv-x="584" 
d="M110 706h146q0 -41 44 -41q8 0 16.5 2t17.5 12t9 27h146q2 -73 -51 -115.5t-138 -42.5t-138.5 42.5t-51.5 115.5zM209 313h179q-2 28 -28.5 44.5t-58.5 17t-60 -16t-32 -45.5zM297 509q136 0 212.5 -86t45.5 -228h-347q9 -30 42 -46.5t68 -16.5q76 0 129 40l90 -101
q-88 -82 -227 -82q-126 0 -207 64.5t-81 192.5q0 126 82 194.5t193 68.5z" />
    <glyph glyph-name="Edotaccent" unicode="&#x116;" horiz-adv-x="711" 
d="M520 167l4 70h150v-237h-627v156h77v389h-77v155h614v-235h-150l-4 70h-187v-108h168v-154h-168v-106h200zM271 831q0 40 29 62.5t69 22.5q39 0 68.5 -22.5t29.5 -62.5t-29.5 -62t-68.5 -22q-40 0 -69 22t-29 62z" />
    <glyph glyph-name="edotaccent" unicode="&#x117;" horiz-adv-x="584" 
d="M305 555q-36 0 -63.5 20.5t-27.5 57.5q0 38 27 59.5t62 21.5q37 0 64 -21.5t27 -59.5q0 -36 -26.5 -57t-62.5 -21zM209 313h179q-2 28 -28.5 44.5t-58.5 17t-60 -16t-32 -45.5zM297 509q136 0 212.5 -86t45.5 -228h-347q9 -30 42 -46.5t68 -16.5q76 0 129 40l90 -101
q-88 -82 -227 -82q-126 0 -207 64.5t-81 192.5q0 126 82 194.5t193 68.5z" />
    <glyph glyph-name="Eogonek" unicode="&#x118;" horiz-adv-x="711" 
d="M520 167l4 70h150v-237h-39q-26 0 -44 -10.5t-22.5 -24t-7 -26.5t2.5 -18q9 -23 40.5 -27.5t71.5 17.5l29 -108q-37 -21 -83 -31.5t-90 -7.5t-78 28t-44 69q-8 41 16 82t67 57h-446v156h77v389h-77v155h614v-235h-150l-4 70h-187v-108h168v-154h-168v-106h200z" />
    <glyph glyph-name="eogonek" unicode="&#x119;" horiz-adv-x="584" 
d="M297 509q136 0 212.5 -86t45.5 -228h-347q9 -30 42 -46.5t68 -16.5q76 0 129 40l90 -101q-42 -39 -101 -61q-23 -13 -30 -38.5t0 -32.5q9 -22 41.5 -26t71.5 17l27 -106q-35 -21 -78 -31.5t-84.5 -8t-73 26.5t-40.5 67q-13 64 43 111h-3q-126 0 -207 64.5t-81 192.5
q0 126 82 194.5t193 68.5zM209 313h179q-2 28 -28.5 44.5t-58.5 17t-60 -16t-32 -45.5z" />
    <glyph glyph-name="Ecaron" unicode="&#x11a;" horiz-adv-x="711" 
d="M520 167l4 70h150v-237h-627v156h77v389h-77v155h614v-235h-150l-4 70h-187v-108h168v-154h-168v-106h200zM438 742h-124l-165 143v7h171l56 -42l56 42h172v-7z" />
    <glyph glyph-name="ecaron" unicode="&#x11b;" horiz-adv-x="584" 
d="M209 313h179q-2 28 -28.5 44.5t-58.5 17t-60 -16t-32 -45.5zM297 509q136 0 212.5 -86t45.5 -228h-347q9 -30 42 -46.5t68 -16.5q76 0 129 40l90 -101q-88 -82 -227 -82q-126 0 -207 64.5t-81 192.5q0 126 82 194.5t193 68.5zM357 552h-114l-151 144v7h157l51 -43l51 43
h157v-7z" />
    <glyph glyph-name="Gcircumflex" unicode="&#x11c;" horiz-adv-x="752" 
d="M525 535q-46 23 -106 23q-88 0 -141.5 -54t-53.5 -154q0 -95 56.5 -149.5t139.5 -54.5q74 0 126 38v63h-175v138h342v-267q-32 -65 -115 -102t-187 -37q-175 0 -279 97.5t-104 273.5q0 172 110 272.5t281 100.5q87 0 152.5 -26t126.5 -86l-1 -163h-166zM349 931h127
l170 -160v-8h-176l-57 48l-57 -48h-176v8z" />
    <glyph glyph-name="gcircumflex" unicode="&#x11d;" horiz-adv-x="614" 
d="M442 534h14l130 -83l-50 -59q52 -62 47 -135q-1 -47 -25 -91.5t-68 -74.5q100 -55 100 -149q0 -77 -42.5 -129t-105 -73t-140.5 -21q-135 0 -208 66t-65 180h177q-2 -96 96 -96q40 0 67 19t27 54q0 64 -92 64q-128 0 -205 68t-77 184t81 186t201 70q48 0 106 -20z
M304 363q-43 0 -70.5 -28t-27.5 -77q0 -43 28 -70t70 -27q41 0 69 25t28 72q0 44 -27.5 74.5t-69.5 30.5zM236 708h148l146 -143v-8h-166l-54 47l-54 -47h-166v8z" />
    <glyph glyph-name="Gbreve" unicode="&#x11e;" horiz-adv-x="752" 
d="M525 535q-46 23 -106 23q-88 0 -141.5 -54t-53.5 -154q0 -95 56.5 -149.5t139.5 -54.5q74 0 126 38v63h-175v138h342v-267q-32 -65 -115 -102t-187 -37q-175 0 -279 97.5t-104 273.5q0 172 110 272.5t281 100.5q87 0 152.5 -26t126.5 -86l-1 -163h-166zM209 930h155
q0 -24 15.5 -33t30.5 -9q9 0 18.5 2.5t19 12.5t9.5 27h155q2 -75 -54.5 -118.5t-147.5 -43.5q-90 0 -147 43.5t-54 118.5z" />
    <glyph glyph-name="gbreve" unicode="&#x11f;" horiz-adv-x="613" 
d="M453 553l137 -95l-54 -66q52 -62 47 -135q-1 -47 -25 -91.5t-68 -74.5q100 -55 100 -149q0 -77 -42.5 -129t-105 -73t-140.5 -21q-135 0 -208 66t-65 180h177q-2 -96 96 -96q40 0 67 19t27 54q0 64 -92 64q-128 0 -205 68t-77 184t81 186t201 70q48 0 106 -20zM304 363
q-43 0 -70.5 -28t-27.5 -77q0 -43 28 -70t70 -27q41 0 69 25t28 72q0 44 -27.5 74.5t-69.5 30.5zM112 720h149q0 -27 15 -36.5t30 -9.5q9 0 17.5 2.5t18 13.5t9.5 30h150q2 -81 -52.5 -128t-142.5 -47q-87 0 -142 47t-52 128z" />
    <glyph glyph-name="Gdotaccent" unicode="&#x120;" horiz-adv-x="752" 
d="M525 535q-46 23 -106 23q-88 0 -141.5 -54t-53.5 -154q0 -95 56.5 -149.5t139.5 -54.5q74 0 126 38v63h-175v138h342v-267q-32 -65 -115 -102t-187 -37q-175 0 -279 97.5t-104 273.5q0 172 110 272.5t281 100.5q87 0 152.5 -26t126.5 -86l-1 -163h-166zM312 857
q0 40 29.5 63t70.5 23q40 0 69.5 -23t29.5 -63t-29.5 -63.5t-69.5 -23.5t-70 23t-30 64z" />
    <glyph glyph-name="gdotaccent" unicode="&#x121;" horiz-adv-x="620" 
d="M311 552q-42 0 -70.5 22.5t-28.5 61.5q0 38 28 60.5t68 22.5q42 0 70.5 -22.5t28.5 -60.5q0 -39 -27 -61.5t-69 -22.5zM29 -35h177q-2 -96 96 -96q40 0 67 19t27 54q0 64 -92 64q-128 0 -205 68t-77 184t81 186t201 70q48 0 106 -20q48 61 54 70l136 -96l-64 -76
q52 -62 47 -135q-1 -47 -25 -91.5t-68 -74.5q100 -55 100 -149q0 -77 -42.5 -129t-105 -73t-140.5 -21q-135 0 -208 66t-65 180zM304 363q-43 0 -70.5 -28t-27.5 -77q0 -43 28 -70t70 -27q41 0 69 25t28 72q0 44 -27.5 74.5t-69.5 30.5z" />
    <glyph glyph-name="Gcommaaccent" unicode="&#x122;" horiz-adv-x="752" 
d="M450 -290h-97l34 76q-30 4 -50 22.5t-20 45.5q0 59 55 77q49 17 94 -10q53 -33 34 -96q-19 -60 -50 -115zM525 535q-46 23 -106 23q-88 0 -141.5 -54t-53.5 -154q0 -95 56.5 -149.5t139.5 -54.5q74 0 126 38v63h-175v138h342v-267q-32 -65 -115 -102t-187 -37
q-175 0 -279 97.5t-104 273.5q0 172 110 272.5t281 100.5q87 0 152.5 -26t126.5 -86l-1 -163h-166z" />
    <glyph glyph-name="gcommaaccent" unicode="&#x123;" horiz-adv-x="620" 
d="M263 774h99l-30 -65q30 -4 50 -22.5t20 -45.5q0 -58 -55 -77q-50 -17 -95 10q-54 32 -34 96q15 48 45 104zM29 -35h177q-2 -96 96 -96q40 0 67 19t27 54q0 64 -92 64q-128 0 -205 68t-77 184t81 186t201 70q48 0 106 -20q48 61 54 70l136 -96l-64 -76q52 -62 47 -135
q-1 -47 -25 -91.5t-68 -74.5q100 -55 100 -149q0 -77 -42.5 -129t-105 -73t-140.5 -21q-135 0 -208 66t-65 180zM304 363q-43 0 -70.5 -28t-27.5 -77q0 -43 28 -70t70 -27q41 0 69 25t28 72q0 44 -27.5 74.5t-69.5 30.5z" />
    <glyph glyph-name="Hcircumflex" unicode="&#x124;" horiz-adv-x="888" 
d="M762 156h84v-156h-359v156h80v119h-246v-119h79v-156h-358v156h83v389h-83v155h358v-155h-79v-111h246v111h-80v155h359v-155h-84v-389zM382 907h127l169 -153v-8h-176l-57 46l-57 -46h-175v8z" />
    <glyph glyph-name="hcircumflex" unicode="&#x125;" horiz-adv-x="689" 
d="M88 563h-67v138h253v-261q27 35 58 50t75 15q83 0 142 -57.5t59 -173.5v-139h68v-135h-302v135h52v139q0 34 -20 53.5t-49 19.5q-41 0 -62 -28t-21 -70v-114h56v-135h-309v135h67v428zM219 906h120l160 -157v-8h-166l-54 47l-54 -47h-166v8z" />
    <glyph glyph-name="Hbar" unicode="&#x126;" horiz-adv-x="892" 
d="M72 382v102h57v61h-83v155h358v-155h-79v-111h246v111h-80v155h359v-155h-84v-61h56v-102h-56v-226h84v-156h-359v156h80v119h-246v-119h79v-156h-358v156h83v226h-57z" />
    <glyph glyph-name="hbar" unicode="&#x127;" horiz-adv-x="692" 
d="M91 563h-67v138h253v-261q27 35 58 50t75 15q83 0 142 -57.5t59 -173.5v-139h68v-135h-302v135h52v139q0 34 -20 53.5t-49 19.5q-41 0 -62 -28t-21 -70v-114h56v-135h-309v135h67v284h-51v100h51v44z" />
    <glyph glyph-name="Itilde" unicode="&#x128;" horiz-adv-x="451" 
d="M228 766q-29 20 -60 15t-48 -40l-91 65q18 53 54.5 81t75.5 26t77 -21q68 -43 102 19l88 -64q-28 -76 -79 -97t-119 16zM127 545h-82v155h364v-155h-83v-389h83v-156h-364v156h82v389z" />
    <glyph glyph-name="itilde" unicode="&#x129;" horiz-adv-x="375" 
d="M29 138v-138h326v138h-70v358h-254v-137h68v-221h-70zM179 557q-25 21 -52.5 17t-42.5 -40l-80 65q16 53 48 82.5t66.5 29t67.5 -20.5q63 -43 89 14l78 -64q-24 -76 -68.5 -97.5t-105.5 14.5z" />
    <glyph glyph-name="Imacron" unicode="&#x12a;" horiz-adv-x="451" 
d="M74 747v138h312v-138h-312zM127 545h-82v155h364v-155h-83v-389h83v-156h-364v156h82v389z" />
    <glyph glyph-name="imacron" unicode="&#x12b;" horiz-adv-x="375" 
d="M38 555v140h287v-140h-287zM29 138v-138h326v138h-70v358h-254v-137h68v-221h-70z" />
    <glyph glyph-name="Ibreve" unicode="&#x12c;" horiz-adv-x="451" 
d="M51 896h137q0 -25 14 -34t27 -9q8 0 16 2.5t17 13t9 27.5h137q2 -76 -48 -120t-131 -44q-80 0 -130 44t-48 120zM127 545h-82v155h364v-155h-83v-389h83v-156h-364v156h82v389z" />
    <glyph glyph-name="ibreve" unicode="&#x12d;" horiz-adv-x="375" 
d="M29 138v-138h326v138h-70v358h-254v-137h68v-221h-70zM21 700h131q0 -17 8 -27t15.5 -12t15.5 -2q7 0 14.5 2t16 12t8.5 27h130q2 -73 -45.5 -115.5t-123.5 -42.5t-123.5 42.5t-46.5 115.5z" />
    <glyph glyph-name="Iogonek" unicode="&#x12e;" horiz-adv-x="451" 
d="M127 545h-82v155h364v-155h-83v-389h83v-156h-71q-47 -3 -63.5 -29.5t-6.5 -48.5q10 -23 41.5 -27.5t72.5 16.5l29 -107q-51 -29 -114.5 -37t-118.5 15.5t-67 81.5q-9 41 13.5 80.5t68.5 55.5h-148v156h82v389z" />
    <glyph glyph-name="iogonek" unicode="&#x12f;" horiz-adv-x="375" 
d="M29 138v-138h118q-41 -13 -62 -54t-12 -83q13 -60 66.5 -85t115.5 -17t113 38l-29 111q-41 -22 -72.5 -17.5t-41.5 27.5q-3 7 -3.5 18.5t4 26t24 25t51.5 10.5h54v138h-70v358h-254v-137h68v-221h-70zM88 632q0 45 31 70t75 25q41 0 71.5 -25t30.5 -70q0 -43 -31 -68.5
t-71 -25.5q-43 0 -74.5 25t-31.5 69z" />
    <glyph glyph-name="Idotaccent" unicode="&#x130;" horiz-adv-x="451" 
d="M117 837q0 45 32.5 71t77.5 26q47 0 80 -26.5t33 -72.5q0 -44 -32 -70.5t-80 -25.5q-46 0 -78.5 27t-32.5 71zM127 545h-82v155h364v-155h-83v-389h83v-156h-364v156h82v389z" />
    <glyph glyph-name="dotlessi" unicode="&#x131;" horiz-adv-x="375" 
d="M29 0v138h70v221h-68v137h254v-358h70v-138h-326z" />
    <glyph glyph-name="IJ" unicode="&#x132;" horiz-adv-x="1177" 
d="M127 545h-82v155h364v-155h-83v-389h83v-156h-364v156h82v389zM457 303h192q3 -75 39 -111t92 -36q62 0 97 38t35 109v231h-187v166h384v-397q0 -143 -87 -231t-246 -88q-154 0 -236.5 78.5t-82.5 240.5z" />
    <glyph glyph-name="ij" unicode="&#x133;" horiz-adv-x="706" 
d="M88 632q0 45 31 70t75 25q41 0 71.5 -25t30.5 -70q0 -43 -31 -68.5t-71 -25.5q-43 0 -74.5 25t-31.5 69zM29 138v-138h326v138h-70v358h-254v-137h68v-221h-70zM454 627q0 44 31 68.5t73 24.5t73.5 -24.5t31.5 -68.5q0 -43 -31.5 -68.5t-73.5 -25.5t-73 25.5t-31 68.5z
M466 355v-373q0 -46 -24 -59t-65 10l-35 -130q59 -28 115 -30.5t99 19t69 71t26 119.5v509h-253v-136h68z" />
    <glyph glyph-name="Jcircumflex" unicode="&#x134;" horiz-adv-x="735" 
d="M15 303h192q3 -75 39 -111t92 -36q62 0 97 38t35 109v231h-187v166h384v-397q0 -143 -87 -231t-246 -88q-154 0 -236.5 78.5t-82.5 240.5zM383 921h123l164 -161v-8h-170l-56 48l-55 -48h-171v8z" />
    <glyph glyph-name="jcircumflex" unicode="&#x135;" horiz-adv-x="331" 
d="M105 708h120l130 -143v-8h-142l-45 48l-40 -48h-144v8zM91 355v-373q0 -46 -24.5 -59t-64.5 10l-35 -130q59 -28 115 -30.5t99 19t69 71t26 119.5v509h-253v-136h68z" />
    <glyph glyph-name="Kcommaaccent" unicode="&#x136;" horiz-adv-x="846" 
d="M392 -276l36 77q-30 5 -48.5 25t-18.5 49q0 32 19.5 53.5t47 26t55 -1t47 -27.5t19.5 -53q0 -53 -62 -149h-95zM319 543v-138l187 141l-53 10v144h358v-157h-79l-182 -146l190 -241h89v-156h-306v121l-121 154l-83 -56v-63h66v-156h-336v156h76v387h-77v157h325v-157h-54
z" />
    <glyph glyph-name="kcommaaccent" unicode="&#x137;" horiz-adv-x="667" 
d="M298 -268l36 75q-30 5 -48 24.5t-18 47.5q0 31 19 52t46 25.5t54 -1t46 -26.5t19 -52q0 -51 -61 -145h-93zM274 185v-50h38v-135h-292v135h69v428h-68v138h253v-382l99 62l-44 6v109h304v-133h-80l-100 -63l119 -165h75v-135h-245v69l-96 138z" />
    <glyph glyph-name="kgreenlandic" unicode="&#x138;" horiz-adv-x="676" 
d="M283 185v-50h38v-135h-292v135h69v224h-68v138h253v-178l99 62l-44 6v109h304v-133h-80l-100 -63l119 -165h75v-135h-245v69l-96 138z" />
    <glyph glyph-name="Lacute" unicode="&#x139;" horiz-adv-x="697" 
d="M126 543h-80v157h362v-157h-83v-375h170l8 111h173v-279h-625v156h75v387zM403 888v-12l-106 -133h-158v8l67 137h197z" />
    <glyph glyph-name="lacute" unicode="&#x13a;" horiz-adv-x="367" 
d="M21 0v135h70v428h-67v138h252v-566h70v-135h-325zM361 892v-12l-106 -133h-158v8l67 137h197z" />
    <glyph glyph-name="Lcommaaccent" unicode="&#x13b;" horiz-adv-x="697" 
d="M305 -276l36 77q-30 5 -48.5 25t-18.5 49q0 32 19.5 53.5t47 26t55 -1t47 -27.5t19.5 -53q0 -53 -62 -149h-95zM126 543h-80v157h362v-157h-83v-375h170l8 111h173v-279h-625v156h75v387z" />
    <glyph glyph-name="lcommaaccent" unicode="&#x13c;" horiz-adv-x="367" 
d="M123 -265l34 73q-28 5 -46 24.5t-18 46.5q0 31 18.5 51.5t45 24.5t53 -1t45 -26t18.5 -51q0 -50 -59 -142h-91zM21 0v135h70v428h-67v138h252v-566h70v-135h-325z" />
    <glyph glyph-name="Lcaron" unicode="&#x13d;" 
d="M607 485h-133l29 216h178zM126 543h-80v157h362v-157h-83v-375h170l8 111h173v-279h-625v156h75v387z" />
    <glyph glyph-name="lcaron" unicode="&#x13e;" horiz-adv-x="367" 
d="M312 519l21 182h155l-56 -182h-120zM21 135v-135h325v135h-70v566h-252v-138h67v-428h-70z" />
    <glyph glyph-name="Ldot" unicode="&#x13f;" horiz-adv-x="697" 
d="M453 312q-35 0 -60.5 21.5t-25.5 61.5t25 62.5t59 22.5q35 0 60.5 -22.5t25.5 -62.5q0 -38 -25 -60.5t-59 -22.5zM126 543h-80v157h362v-157h-83v-375h170l8 111h173v-279h-625v156h75v387z" />
    <glyph glyph-name="ldot" unicode="&#x140;" horiz-adv-x="436" 
d="M403 292q-35 0 -61.5 22t-26.5 61q0 40 26 62.5t60 22.5q35 0 61 -22.5t26 -62.5q0 -38 -25.5 -60.5t-59.5 -22.5zM21 0v135h70v428h-67v138h252v-566h70v-135h-325z" />
    <glyph glyph-name="Lslash" unicode="&#x141;" horiz-adv-x="699" 
d="M128 543h-80v157h362v-157h-83v-95l62 29v-119l-62 -28v-162h170l8 111h173v-279h-625v156h75v106l-58 -28v117l58 29v163z" />
    <glyph glyph-name="lslash" unicode="&#x142;" horiz-adv-x="370" 
d="M23 0v135h70v130l-58 -31v110l58 30v189h-67v138h252v-237l60 30v-112l-60 -31v-216h70v-135h-325z" />
    <glyph glyph-name="Nacute" unicode="&#x143;" horiz-adv-x="897" 
d="M293 700l296 -383q-2 35 -3 66.5t-1.5 48.5t-1.5 28v83h-68v157h349v-157h-81v-543h-169l-291 377l3 -152v-69h68v-156h-352v156h83v387h-83v157h251zM600 904v-12l-106 -133h-158v8l67 137h197z" />
    <glyph glyph-name="nacute" unicode="&#x144;" horiz-adv-x="706" 
d="M423 566h-145v5l73 130h189zM620 136h68v-136h-306v136h53v137q0 43 -19.5 63t-48.5 20q-36 0 -61 -24.5t-25 -70.5v-125h54v-136h-304v136h68v225h-68v135h230l10 -55q57 68 156 66q87 -1 140 -55t53 -178v-138z" />
    <glyph glyph-name="Ncommaaccent" unicode="&#x145;" horiz-adv-x="897" 
d="M415 -275l36 77q-30 5 -48.5 25t-18.5 49q0 32 19.5 53.5t47 26t55 -1t47 -27.5t19.5 -53q0 -53 -62 -149h-95zM293 700l296 -383q-2 35 -3 66.5t-1.5 48.5t-1.5 28v83h-68v157h349v-157h-81v-543h-169l-291 377l3 -152v-69h68v-156h-352v156h83v387h-83v157h251z" />
    <glyph glyph-name="ncommaaccent" unicode="&#x146;" horiz-adv-x="706" 
d="M303 -272l36 77q-30 5 -48.5 25t-18.5 49q0 32 19.5 53.5t47 26t55 -1t47 -27.5t19.5 -53q0 -53 -62 -149h-95zM620 136h68v-136h-306v136h53v137q0 43 -19.5 63t-48.5 20q-36 0 -61 -24.5t-25 -70.5v-125h54v-136h-304v136h68v225h-68v135h230l10 -55q57 68 156 66
q87 -1 140 -55t53 -178v-138z" />
    <glyph glyph-name="Ncaron" unicode="&#x147;" horiz-adv-x="897" 
d="M489 745h-124l-166 152v8h172l56 -46l56 46h173v-8zM293 700l296 -383q-2 35 -3 66.5t-1.5 48.5t-1.5 28v83h-68v157h349v-157h-81v-543h-169l-291 377l3 -152v-69h68v-156h-352v156h83v387h-83v157h251z" />
    <glyph glyph-name="ncaron" unicode="&#x148;" horiz-adv-x="706" 
d="M620 136h68v-136h-306v136h53v137q0 43 -19.5 63t-48.5 20q-36 0 -61 -24.5t-25 -70.5v-125h54v-136h-304v136h68v225h-68v135h230l10 -55q57 68 156 66q87 -1 140 -55t53 -178v-138zM425 556h-123l-165 141v7h171l56 -42l55 42h172v-7z" />
    <glyph glyph-name="napostrophe" unicode="&#x149;" horiz-adv-x="706" 
d="M620 136h68v-136h-306v136h53v137q0 43 -19.5 63t-48.5 20q-36 0 -61 -24.5t-25 -70.5v-125h54v-136h-304v136h68v225h-68v135h230l10 -55q57 68 156 66q87 -1 140 -55t53 -178v-138z" />
    <glyph glyph-name="Eng" unicode="&#x14a;" horiz-adv-x="897" 
d="M293 700l296 -383q-2 35 -3 66.5t-1.5 48.5t-1.5 28v83h-68v157h349v-157h-81v-554q0 -142 -92 -197t-231 4l44 126q49 -19 76 -3.5t27 70.5v20l-284 368l3 -152v-69h68v-156h-352v156h83v387h-83v157h251z" />
    <glyph glyph-name="eng" unicode="&#x14b;" horiz-adv-x="665" 
d="M323 -192l27 133q36 -18 60.5 -3.5t24.5 57.5v278q0 43 -19.5 63t-48.5 20q-36 0 -61 -24.5t-25 -70.5v-125h54v-136h-304v136h68v225h-68v135h230l10 -55q57 68 156 66q87 -1 140 -55t53 -178v-279q0 -68 -25 -116.5t-66.5 -70t-95 -24t-110.5 23.5z" />
    <glyph glyph-name="Omacron" unicode="&#x14c;" horiz-adv-x="833" 
d="M239 769v144h361v-144h-361zM805 350q0 -173 -106 -270t-282 -97q-175 0 -282 97t-107 270q0 169 107.5 267.5t281.5 98.5q175 0 281.5 -97.5t106.5 -268.5zM607 350q0 91 -51.5 144t-138.5 53q-84 0 -137.5 -55t-53.5 -142q0 -88 53.5 -143t137.5 -55q86 0 138 55
t52 143z" />
    <glyph glyph-name="omacron" unicode="&#x14d;" horiz-adv-x="608" 
d="M147 564v135h317v-135h-317zM304 505q119 0 200.5 -66t81.5 -193q0 -126 -83.5 -192t-198.5 -66q-55 0 -104.5 15.5t-89.5 45.5t-64 81t-24 116q0 87 41.5 147.5t103.5 86t137 25.5zM304 139q46 0 74 30.5t28 76.5q0 45 -27.5 76.5t-74.5 31.5t-74.5 -31.5t-27.5 -76.5
t27.5 -76t74.5 -31z" />
    <glyph glyph-name="Obreve" unicode="&#x14e;" horiz-adv-x="833" 
d="M805 350q0 -173 -106 -270t-282 -97q-175 0 -282 97t-107 270q0 169 107.5 267.5t281.5 98.5q175 0 281.5 -97.5t106.5 -268.5zM607 350q0 91 -51.5 144t-138.5 53q-84 0 -137.5 -55t-53.5 -142q0 -88 53.5 -143t137.5 -55q86 0 138 55t52 143zM223 929h156
q0 -18 10 -28.5t19 -13t18 -2.5t18 2.5t19 13t10 28.5h156q3 -79 -54.5 -125t-148.5 -46t-148.5 46t-54.5 125z" />
    <glyph glyph-name="obreve" unicode="&#x14f;" horiz-adv-x="608" 
d="M118 706h147q0 -17 9.5 -27t18 -12t16.5 -2q44 0 44 41h147q3 -73 -51 -115.5t-140 -42.5t-139.5 42.5t-51.5 115.5zM304 505q119 0 200.5 -66t81.5 -193q0 -126 -83.5 -192t-198.5 -66q-55 0 -104.5 15.5t-89.5 45.5t-64 81t-24 116q0 87 41.5 147.5t103.5 86t137 25.5z
M304 139q46 0 74 30.5t28 76.5q0 45 -27.5 76.5t-74.5 31.5t-74.5 -31.5t-27.5 -76.5t27.5 -76t74.5 -31z" />
    <glyph glyph-name="Ohungarumlaut" unicode="&#x150;" horiz-adv-x="833" 
d="M604 763h-152l97 144h177zM391 765h-150l76 142h174zM805 350q0 -173 -106 -270t-282 -97q-175 0 -282 97t-107 270q0 169 107.5 267.5t281.5 98.5q175 0 281.5 -97.5t106.5 -268.5zM607 350q0 91 -51.5 144t-138.5 53q-84 0 -137.5 -55t-53.5 -142q0 -88 53.5 -143
t137.5 -55q86 0 138 55t52 143z" />
    <glyph glyph-name="ohungarumlaut" unicode="&#x151;" horiz-adv-x="608" 
d="M459 556h-137l86 141h160zM264 558h-133l65 139h157zM304 505q119 0 200.5 -66t81.5 -193q0 -126 -83.5 -192t-198.5 -66q-55 0 -104.5 15.5t-89.5 45.5t-64 81t-24 116q0 87 41.5 147.5t103.5 86t137 25.5zM304 139q46 0 74 30.5t28 76.5q0 45 -27.5 76.5t-74.5 31.5
t-74.5 -31.5t-27.5 -76.5t27.5 -76t74.5 -31z" />
    <glyph glyph-name="OE" unicode="&#x152;" horiz-adv-x="1013" 
d="M657 535v-108h135v-154h-135v-106h165l4 70h150v-237h-449q-56 -17 -130 -17q-181 0 -274.5 101t-93.5 269q0 165 94.5 264.5t273.5 99.5q50 0 126 -16h440v-236h-150l-4 70h-152zM218 352q0 -93 50 -155t141 -62q52 0 88 16v398q-41 16 -93 16q-82 0 -134 -61.5
t-52 -151.5z" />
    <glyph glyph-name="oe" unicode="&#x153;" horiz-adv-x="955" 
d="M579 315h179q-1 23 -19 38.5t-42.5 19.5t-50 0.5t-44.5 -19.5t-23 -39zM309 139q48 0 73.5 30.5t25.5 77.5q0 48 -25.5 79t-73.5 31t-74 -31t-26 -79q0 -47 26 -77.5t74 -30.5zM309 510q120 0 185 -76q30 34 77 55.5t95 21.5q139 0 215 -86t45 -229h-348
q10 -31 42.5 -47.5t66.5 -16.5q76 0 129 40l94 -107q-89 -77 -234 -77q-121 0 -183 75q-83 -77 -196 -77q-117 0 -196 68t-79 193q0 132 83 197.5t204 65.5z" />
    <glyph glyph-name="Racute" unicode="&#x154;" horiz-adv-x="797" 
d="M126 156v389h-84v155h426q128 0 200 -70t72 -171q0 -68 -30 -118.5t-106 -86.5l74 -98h91v-156h-282v101l-87 125h-77v-80l78 -6v-140h-359v156h84zM467 542h-144v-168h146q35 0 55 24t20 60t-19.5 60t-57.5 24zM548 892v-12l-106 -133h-158v8l67 137h197z" />
    <glyph glyph-name="racute" unicode="&#x155;" horiz-adv-x="529" 
d="M331 567h-146v6l70 129h188zM99 361h-68v135h231l13 -55q46 66 128 66t130 -53l-72 -141q-34 27 -85 27q-93 -1 -93 -100v-104h70v-136h-322v136h68v225z" />
    <glyph glyph-name="Rcommaaccent" unicode="&#x156;" horiz-adv-x="797" 
d="M388 -275l36 77q-30 5 -48.5 25t-18.5 49q0 32 19.5 53.5t47 26t55 -1t47 -27.5t19.5 -53q0 -53 -62 -149h-95zM126 156v389h-84v155h426q128 0 200 -70t72 -171q0 -68 -30 -118.5t-106 -86.5l74 -98h91v-156h-282v101l-87 125h-77v-80l78 -6v-140h-359v156h84zM467 542
h-144v-168h146q35 0 55 24t20 60t-19.5 60t-57.5 24z" />
    <glyph glyph-name="rcommaaccent" unicode="&#x157;" horiz-adv-x="529" 
d="M137 -266l36 77q-30 5 -48.5 25t-18.5 49q0 32 19.5 53.5t47 26t55 -1t47 -27.5t19.5 -53q0 -53 -62 -149h-95zM99 361h-68v135h231l13 -55q46 66 128 66t130 -53l-72 -141q-34 27 -85 27q-93 -1 -93 -100v-104h70v-136h-322v136h68v225z" />
    <glyph glyph-name="Rcaron" unicode="&#x158;" horiz-adv-x="797" 
d="M126 156v389h-84v155h426q128 0 200 -70t72 -171q0 -68 -30 -118.5t-106 -86.5l74 -98h91v-156h-282v101l-87 125h-77v-80l78 -6v-140h-359v156h84zM467 542h-144v-168h146q35 0 55 24t20 60t-19.5 60t-57.5 24zM441 736h-125l-165 151v8h172l56 -46l56 46h172v-8z" />
    <glyph glyph-name="rcaron" unicode="&#x159;" horiz-adv-x="529" 
d="M99 361h-68v135h231l13 -55q46 66 128 66t130 -53l-72 -141q-34 27 -85 27q-93 -1 -93 -100v-104h70v-136h-322v136h68v225zM343 559h-118l-156 142v7h162l53 -42l53 42h163v-7z" />
    <glyph glyph-name="Sacute" unicode="&#x15a;" horiz-adv-x="669" 
d="M599 635v-169h-171l-3 81q-37 11 -89 11q-36 0 -66.5 -14t-30.5 -45q0 -33 29.5 -47t88.5 -20q58 -6 103.5 -18t89.5 -36t68.5 -67t24.5 -102q0 -111 -89.5 -169t-219.5 -59q-176 -2 -293 97v175h171l3 -81q58 -22 120 -22q50 0 80.5 16.5t30.5 46.5q0 48 -118 60
q-47 4 -84.5 11.5t-77 24t-66 40t-43 62t-16.5 88.5q0 55 27 99t70.5 69.5t94 38.5t103.5 13q156 0 263 -84zM512 915v-12l-106 -133h-158v8l67 137h197z" />
    <glyph glyph-name="sacute" unicode="&#x15b;" horiz-adv-x="513" 
d="M31 33v137l157 -3v-37q40 -10 51 -10q32 0 49.5 8.5t16.5 28.5q0 13 -16 23t-42 11q-55 2 -99.5 15t-80 48t-35.5 89q0 84 66.5 126.5t162.5 42.5q127 0 205 -57l-6 -120h-149v35q-17 4 -42 4q-53 -2 -53 -31t39 -31q36 -1 65 -4.5t62.5 -13.5t56 -26t38 -44t15.5 -66
q1 -85 -68 -129.5t-172 -44.5q-60 -1 -121 12.5t-100 36.5zM423 697v-11l-97 -122h-144v7l61 126h180z" />
    <glyph glyph-name="Scircumflex" unicode="&#x15c;" horiz-adv-x="669" 
d="M599 635v-169h-171l-3 81q-37 11 -89 11q-36 0 -66.5 -14t-30.5 -45q0 -33 29.5 -47t88.5 -20q58 -6 103.5 -18t89.5 -36t68.5 -67t24.5 -102q0 -111 -89.5 -169t-219.5 -59q-176 -2 -293 97v175h171l3 -81q58 -22 120 -22q50 0 80.5 16.5t30.5 46.5q0 48 -118 60
q-47 4 -84.5 11.5t-77 24t-66 40t-43 62t-16.5 88.5q0 55 27 99t70.5 69.5t94 38.5t103.5 13q156 0 263 -84zM287 910h121l161 -147v-7h-167l-55 44l-54 -44h-168v7z" />
    <glyph glyph-name="scircumflex" unicode="&#x15d;" horiz-adv-x="513" 
d="M31 33v137l157 -3v-37q40 -10 51 -10q32 0 49.5 8.5t16.5 28.5q0 13 -16 23t-42 11q-55 2 -99.5 15t-80 48t-35.5 89q0 84 66.5 126.5t162.5 42.5q127 0 205 -57l-6 -120h-149v35q-17 4 -42 4q-53 -2 -53 -31t39 -31q36 -1 65 -4.5t62.5 -13.5t56 -26t38 -44t15.5 -66
q1 -85 -68 -129.5t-172 -44.5q-60 -1 -121 12.5t-100 36.5zM211 709h109l145 -147v-8h-151l-48 44l-49 -44h-150v8z" />
    <glyph glyph-name="Scedilla" unicode="&#x15e;" horiz-adv-x="669" 
d="M180 -227l64 69q25 -23 62.5 -26.5t48.5 25.5q7 25 -26.5 36.5t-60.5 -6.5l-29 21l39 91q-138 11 -237 95v175h171l3 -81q58 -22 120 -22q50 0 80.5 16.5t30.5 46.5q0 48 -118 60q-47 4 -84.5 11.5t-77 24t-66 40t-43 62t-16.5 88.5q0 55 27 99t70.5 69.5t94 38.5
t103.5 13q156 0 263 -84v-169h-171l-3 81q-37 11 -89 11q-36 0 -66.5 -14t-30.5 -45q0 -33 29.5 -47t88.5 -20q58 -6 103.5 -18t89.5 -36t68.5 -67t24.5 -102q0 -96 -68.5 -152.5t-175.5 -70.5l-15 -40q65 -6 93.5 -47t12.5 -92q-18 -58 -80 -82.5t-129 -10t-101 58.5z" />
    <glyph glyph-name="scedilla" unicode="&#x15f;" horiz-adv-x="513" 
d="M119 -198l58 62q22 -21 56.5 -24.5t44.5 22.5q7 23 -24 34t-55 -5l-26 19l31 76q-108 10 -173 47v137l157 -3v-37q40 -10 51 -10q32 0 49.5 8.5t16.5 28.5q0 13 -16 23t-42 11q-55 2 -99.5 15t-80 48t-35.5 89q0 84 66.5 126.5t162.5 42.5q127 0 205 -57l-6 -120h-149v35
q-17 4 -42 4q-53 -2 -53 -31t39 -31q36 -1 65 -4.5t62.5 -13.5t56 -26t38 -44t15.5 -66q1 -71 -48 -114t-129 -55l-11 -30q59 -6 84.5 -44t11.5 -83q-16 -52 -72.5 -74t-117 -8.5t-91.5 52.5z" />
    <glyph glyph-name="Scaron" unicode="&#x160;" horiz-adv-x="669" 
d="M599 635v-169h-171l-3 81q-37 11 -89 11q-36 0 -66.5 -14t-30.5 -45q0 -33 29.5 -47t88.5 -20q58 -6 103.5 -18t89.5 -36t68.5 -67t24.5 -102q0 -111 -89.5 -169t-219.5 -59q-176 -2 -293 97v175h171l3 -81q58 -22 120 -22q50 0 80.5 16.5t30.5 46.5q0 48 -118 60
q-47 4 -84.5 11.5t-77 24t-66 40t-43 62t-16.5 88.5q0 55 27 99t70.5 69.5t94 38.5t103.5 13q156 0 263 -84zM403 760h-122l-162 151v8h168l55 -46l55 46h168v-8z" />
    <glyph glyph-name="scaron" unicode="&#x161;" horiz-adv-x="513" 
d="M31 33v137l157 -3v-37q40 -10 51 -10q32 0 49.5 8.5t16.5 28.5q0 13 -16 23t-42 11q-55 2 -99.5 15t-80 48t-35.5 89q0 84 66.5 126.5t162.5 42.5q127 0 205 -57l-6 -120h-149v35q-17 4 -42 4q-53 -2 -53 -31t39 -31q36 -1 65 -4.5t62.5 -13.5t56 -26t38 -44t15.5 -66
q1 -85 -68 -129.5t-172 -44.5q-60 -1 -121 12.5t-100 36.5zM317 547h-107l-143 139v7h148l48 -41l49 41h148v-7z" />
    <glyph glyph-name="Tcommaaccent" unicode="&#x162;" horiz-adv-x="719" 
d="M199 -216l67 73q26 -25 65 -28.5t50 26.5q7 27 -27.5 40t-62.5 -6l-30 22l35 89h-119v156h83v376h-64l-6 -103h-167v271h673v-271h-167l-6 103h-63v-376h82v-156h-119l-12 -38q68 -6 97 -47.5t13 -94.5q-18 -62 -83 -87.5t-134 -10t-105 61.5z" />
    <glyph glyph-name="tcommaaccent" unicode="&#x163;" horiz-adv-x="420" 
d="M90 614l183 20v-143h111v-141h-112v-162q1 -48 49 -48q29 0 54 17l40 -136q-51 -29 -122 -32l-15 -41q61 -6 87.5 -45t12.5 -86q-17 -54 -76 -76.5t-122 -9t-96 53.5l61 65q24 -22 59.5 -25t45.5 23q7 23 -25 34.5t-57 -4.5l-27 19l43 107q-97 41 -94 184v162h-79v141h79
v123z" />
    <glyph glyph-name="Tcaron" unicode="&#x164;" horiz-adv-x="719" 
d="M418 736h-120l-160 157v8h166l54 -47l54 47h166v-8zM696 700h-673v-271h167l6 103h64v-376h-83v-156h365v156h-82v376h63l6 -103h167v271z" />
    <glyph glyph-name="tcaron" unicode="&#x165;" horiz-adv-x="510" 
d="M507 431h-117l43 210h147zM88 614l183 20v-143h84v-141h-85v-162q1 -48 49 -48q29 0 54 17l40 -136q-58 -33 -142 -33q-83 0 -134 46t-49 154v162h-79v141h79v123z" />
    <glyph glyph-name="Tbar" unicode="&#x166;" horiz-adv-x="719" 
d="M23 700h673v-271h-167l-6 103h-63v-162h91v-115h-91v-99h82v-156h-365v156h83v99h-84v115h84v162h-64l-6 -103h-167v271z" />
    <glyph glyph-name="tbar" unicode="&#x167;" horiz-adv-x="420" 
d="M90 614l183 20v-143h111v-141h-112v-47h76v-89h-76v-26q1 -48 49 -48q29 0 54 17l40 -136q-58 -33 -142 -33q-83 0 -134 46t-49 154v26h-51v89h51v47h-79v141h79v123z" />
    <glyph glyph-name="Utilde" unicode="&#x168;" horiz-adv-x="854" 
d="M561 545h-84v155h361v-155h-81v-237q1 -154 -86.5 -239t-242.5 -85q-157 0 -244 83.5t-87 242.5v235h-81v155h362v-155h-85v-235q0 -157 135 -157q62 0 97.5 38.5t35.5 116.5v237zM426 770q-31 20 -64.5 15t-51.5 -40l-98 64q19 52 58.5 80t81 26t82.5 -21q74 -41 109 19
l95 -63q-29 -75 -84 -95.5t-128 15.5z" />
    <glyph glyph-name="utilde" unicode="&#x169;" horiz-adv-x="688" 
d="M78 360h-66v136h250v-274q0 -43 20.5 -63t49.5 -20q37 0 61.5 23.5t24.5 69.5v128h-69v136h251v-360h67v-136h-231l-7 54q-57 -68 -157 -66q-87 1 -140.5 55t-53.5 178v139zM333 569q-30 20 -63 15t-50 -41l-96 66q19 54 57.5 83t79 27t80.5 -22q72 -43 106 19l92 -65
q-28 -78 -81.5 -99t-124.5 17z" />
    <glyph glyph-name="Umacron" unicode="&#x16a;" horiz-adv-x="854" 
d="M259 749v137h346v-137h-346zM561 545h-84v155h361v-155h-81v-237q1 -154 -86.5 -239t-242.5 -85q-157 0 -244 83.5t-87 242.5v235h-81v155h362v-155h-85v-235q0 -157 135 -157q62 0 97.5 38.5t35.5 116.5v237z" />
    <glyph glyph-name="umacron" unicode="&#x16b;" horiz-adv-x="688" 
d="M181 568v132h300v-132h-300zM78 360h-66v136h250v-274q0 -43 20.5 -63t49.5 -20q37 0 61.5 23.5t24.5 69.5v128h-69v136h251v-360h67v-136h-231l-7 54q-57 -68 -157 -66q-87 1 -140.5 55t-53.5 178v139z" />
    <glyph glyph-name="Ubreve" unicode="&#x16c;" horiz-adv-x="854" 
d="M561 545h-84v155h361v-155h-81v-237q1 -154 -86.5 -239t-242.5 -85q-157 0 -244 83.5t-87 242.5v235h-81v155h362v-155h-85v-235q0 -157 135 -157q62 0 97.5 38.5t35.5 116.5v237zM218 911h161q0 -18 10 -29t19.5 -13.5t18.5 -2.5t19 2.5t20 13.5t10 29h161
q3 -80 -56 -127t-154 -47q-94 0 -153 47t-56 127z" />
    <glyph glyph-name="ubreve" unicode="&#x16d;" horiz-adv-x="688" 
d="M78 360h-66v136h250v-274q0 -43 20.5 -63t49.5 -20q37 0 61.5 23.5t24.5 69.5v128h-69v136h251v-360h67v-136h-231l-7 54q-57 -68 -157 -66q-87 1 -140.5 55t-53.5 178v139zM144 707h145q0 -18 9.5 -28.5t18 -12.5t16.5 -2t16.5 2t18 12.5t9.5 28.5h145q2 -77 -51 -121.5
t-138 -44.5t-138 44.5t-51 121.5z" />
    <glyph glyph-name="Uring" unicode="&#x16e;" horiz-adv-x="854" 
d="M561 545h-84v155h361v-155h-81v-237q1 -154 -86.5 -239t-242.5 -85q-157 0 -244 83.5t-87 242.5v235h-81v155h362v-155h-85v-235q0 -157 135 -157q62 0 97.5 38.5t35.5 116.5v237zM425 979q51 0 88.5 -18.5t54.5 -45.5t17.5 -59.5t-16.5 -59.5t-54.5 -45.5t-89.5 -18.5
q-50 0 -87 18.5t-53.5 45.5t-16.5 59.5t16.5 59.5t53.5 45.5t87 18.5zM427 890q-28 0 -39.5 -17t0 -34.5t39.5 -17.5q27 0 38.5 17.5t0 34.5t-38.5 17z" />
    <glyph glyph-name="uring" unicode="&#x16f;" horiz-adv-x="688" 
d="M328 531q-41 0 -72.5 13t-47.5 33.5t-23 45t1 49t24.5 45t48 33.5t70.5 13q38 0 67.5 -13t45.5 -33.5t23.5 -45t0.5 -49t-22.5 -45t-46 -33.5t-69.5 -13zM327 678q-26 0 -36.5 -15.5t-0.5 -31t36 -15.5q25 0 35.5 15.5t0 31t-34.5 15.5zM78 360h-66v136h250v-274
q0 -43 20.5 -63t49.5 -20q37 0 61.5 23.5t24.5 69.5v128h-69v136h251v-360h67v-136h-231l-7 54q-57 -68 -157 -66q-87 1 -140.5 55t-53.5 178v139z" />
    <glyph glyph-name="Uhungarumlaut" unicode="&#x170;" horiz-adv-x="854" 
d="M612 738h-156l100 142h181zM394 740h-157l78 140h181zM561 545h-84v155h361v-155h-81v-237q1 -154 -86.5 -239t-242.5 -85q-157 0 -244 83.5t-87 242.5v235h-81v155h362v-155h-85v-235q0 -157 135 -157q62 0 97.5 38.5t35.5 116.5v237z" />
    <glyph glyph-name="uhungarumlaut" unicode="&#x171;" horiz-adv-x="688" 
d="M488 559h-148l95 138h171zM282 561h-149l74 136h171zM78 360h-66v136h250v-274q0 -43 20.5 -63t49.5 -20q37 0 61.5 23.5t24.5 69.5v128h-69v136h251v-360h67v-136h-231l-7 54q-57 -68 -157 -66q-87 1 -140.5 55t-53.5 178v139z" />
    <glyph glyph-name="Uogonek" unicode="&#x172;" horiz-adv-x="855" 
d="M561 545h-84v155h361v-155h-81v-237q1 -109 -43.5 -184t-127.5 -111q-23 -9 -33.5 -26t-8.5 -30.5t4 -21.5q10 -23 42 -28t73 17l29 -117q-50 -30 -114 -37t-119 20t-68 87q-12 58 30 107q-154 2 -239 85t-85 241v235h-81v155h362v-155h-85v-235q0 -157 135 -157
q62 0 97.5 38.5t35.5 116.5v237z" />
    <glyph glyph-name="uogonek" unicode="&#x173;" horiz-adv-x="688" 
d="M78 360h-66v136h250v-274q0 -43 20.5 -63t49.5 -20q37 0 61.5 23.5t24.5 69.5v128h-69v136h251v-360h67v-136h-34q-49 0 -64.5 -26.5t-5.5 -49.5q10 -22 40 -26.5t70 16.5l28 -106q-49 -28 -109 -35t-111.5 17.5t-63.5 81.5q-8 39 14 76t64 52h-58l-8 54
q-57 -68 -157 -66q-87 1 -140.5 55t-53.5 178v139z" />
    <glyph glyph-name="Wcircumflex" unicode="&#x174;" horiz-adv-x="1134" 
d="M1124 545h-74l-199 -545h-162l-124 335l-119 -335h-160l-203 545h-75v155h360v-155h-70l33 -91q14 -44 37 -163l125 398h143l130 -398q12 64 39 168l31 86h-72v155h360v-155zM495 918h137l181 -164v-8h-188l-61 49l-62 -49h-188v8z" />
    <glyph glyph-name="wcircumflex" unicode="&#x175;" horiz-adv-x="912" 
d="M401 487h110l85 -273l48 147h-48v136h303v-136h-68l-130 -362h-180l-66 188l-66 -188h-177l-132 362h-70v136h305v-136h-43l43 -147zM391 708h133l177 -153v-7h-184l-60 45l-60 -45h-183v7z" />
    <glyph glyph-name="Ycircumflex" unicode="&#x176;" horiz-adv-x="783" 
d="M574 0h-365v156h83v85l-204 304h-74v155h347v-152l-46 -3q27 -38 77 -127q57 100 75 127l-44 3v152h346v-155h-75l-203 -304v-85h83v-156zM329 907h135l180 -156v-8h-187l-60 46l-61 -46h-186v8z" />
    <glyph glyph-name="ycircumflex" unicode="&#x177;" horiz-adv-x="668" 
d="M215 -29q-25 -64 -107 -20l-50 -136q67 -40 126.5 -47t112 25.5t85.5 106.5l207 461h68v136h-298v-136h34l-58 -165l-60 165h41v136h-306v-136h71l154 -345zM271 708h134l179 -153v-8h-186l-60 46l-61 -46h-185v8z" />
    <glyph glyph-name="Ydieresis" unicode="&#x178;" horiz-adv-x="783" 
d="M574 0h-365v156h83v85l-204 304h-74v155h347v-152l-46 -3q27 -38 77 -127q57 100 75 127l-44 3v152h346v-155h-75l-203 -304v-85h83v-156zM141 828q0 43 29.5 68.5t69.5 25.5t70.5 -25.5t30.5 -68.5t-30.5 -67.5t-70.5 -24.5t-69.5 24.5t-29.5 67.5zM450 828
q0 44 29.5 69t71.5 25q40 0 69.5 -25.5t29.5 -68.5t-29.5 -67.5t-69.5 -24.5q-42 0 -71.5 24.5t-29.5 67.5z" />
    <glyph glyph-name="Zacute" unicode="&#x179;" horiz-adv-x="680" 
d="M211 540l-7 -98h-159v258h586v-56l-303 -474h144l6 100h167v-270h-614v61l311 479h-131zM524 894v-12l-106 -133h-158v8l67 137h197z" />
    <glyph glyph-name="zacute" unicode="&#x17a;" horiz-adv-x="540" 
d="M170 351l-5 -41h-128v187h456v-63l-199 -275h77l5 53h133v-212h-480v57l204 294h-63zM444 693v-11l-102 -128h-151v8l64 131h189z" />
    <glyph glyph-name="Zdotaccent" unicode="&#x17b;" horiz-adv-x="680" 
d="M211 540l-7 -98h-159v258h586v-56l-303 -474h144l6 100h167v-270h-614v61l311 479h-131zM258 837q0 42 30 65.5t71 23.5t71 -23.5t30 -65.5t-30 -65.5t-71 -23.5t-71 23.5t-30 65.5z" />
    <glyph glyph-name="zdotaccent" unicode="&#x17c;" horiz-adv-x="540" 
d="M170 351l-5 -41h-128v187h456v-63l-199 -275h77l5 53h133v-212h-480v57l204 294h-63zM185 632q0 39 28 61t66 22q37 0 65 -22t28 -61q0 -38 -28 -60t-65 -22q-38 0 -66 22t-28 60z" />
    <glyph glyph-name="Zcaron" unicode="&#x17d;" horiz-adv-x="680" 
d="M211 540l-7 -98h-159v258h586v-56l-303 -474h144l6 100h167v-270h-614v61l311 479h-131zM410 741h-127l-169 155v8h175l57 -47l58 47h175v-8z" />
    <glyph glyph-name="zcaron" unicode="&#x17e;" horiz-adv-x="540" 
d="M170 351l-5 -41h-128v187h456v-63l-199 -275h77l5 53h133v-212h-480v57l204 294h-63zM336 539h-112l-149 148v8h155l50 -45l50 45h155v-8z" />
    <glyph glyph-name="longs" unicode="&#x17f;" horiz-adv-x="411" 
d="M298 135h90v-135h-357v135h83v212h-85v142h85v20q0 101 64 152t150 51q90 0 148 -55l-56 -111q-27 23 -67 23q-55 -2 -55 -60v-374z" />
    <glyph glyph-name="florin" unicode="&#x192;" horiz-adv-x="520" 
d="M459 337h-128v-338q0 -79 -38 -131.5t-92.5 -68.5t-115.5 -4t-107 51l56 111q28 -24 58 -24q24 0 39.5 16t15.5 49v339h-109v142h109v30q0 101 63.5 151.5t149.5 50.5q94 0 149 -54l-56 -111q-28 24 -67 24q-24 0 -39.5 -15.5t-15.5 -45.5v-30h128v-142z" />
    <glyph glyph-name="Aringacute" unicode="&#x1fa;" horiz-adv-x="880" 
d="M445 983h185l-114 -104h-168zM876 0h-348v141l62 6l-22 61h-248l-22 -62l66 -5v-141h-351v156h78l226 485q-30 26 -36.5 63.5t8.5 70.5t54.5 56.5t94.5 23.5q43 0 78 -13.5t54 -35.5t27 -48.5t0 -54.5t-30 -51l232 -496h77v-156zM379 363h130l-66 159zM440 759
q-29 0 -41 -19.5t0 -39t41 -19.5t40.5 19.5t-0.5 39t-40 19.5z" />
    <glyph glyph-name="aringacute" unicode="&#x1fb;" horiz-adv-x="682" 
d="M261 775l73 100h189l-108 -103h-153zM409 443l9 53h234v-136h-67v-224h67v-136h-231l-8 55q-30 -35 -74 -50t-89 -13q-107 6 -167 76t-60 181t67 184.5t174 73.5q104 0 145 -64zM306 358q-46 0 -72.5 -31t-26.5 -78q0 -50 28 -79t71 -29q45 0 73.5 31.5t28.5 76.5
q0 50 -27 79.5t-75 29.5zM339 748q65 0 102.5 -34t38 -75t-37 -75t-103.5 -34q-52 0 -87 22.5t-43.5 54.5t-0.5 64t43.5 54.5t87.5 22.5zM341 670q-25 0 -35 -15t0 -30.5t35 -15.5q24 0 33.5 15.5t-0.5 30.5t-33 15z" />
    <glyph glyph-name="AEacute" unicode="&#x1fc;" horiz-adv-x="1034" 
d="M267 544v156h717v-235h-150l-4 70h-126v-108h107v-154h-107v-109h139l4 73h150v-237h-539v153h74v68h-188l-42 -67h52v-154h-345v154h81l249 390h-72zM532 540l-101 -167h101v167zM810 884v-12l-106 -133h-158v8l67 137h197z" />
    <glyph glyph-name="aeacute" unicode="&#x1fd;" horiz-adv-x="937" 
d="M655 693l-107 -140h-137v6l67 134h177zM311 356q-43 0 -71 -29.5t-28 -79.5t28 -79t71 -29q46 0 75 28.5t29 74.5q0 54 -27.5 84t-76.5 30zM569 313h182q-2 37 -45 52.5t-87 0.5t-50 -53zM906 195h-338q9 -30 43.5 -46.5t69.5 -16.5q74 0 127 40l90 -101
q-88 -82 -225 -82q-94 0 -137 56l-3 -45h-113l-8 53q-30 -34 -74 -49t-89 -13q-107 7 -166.5 76.5t-59.5 179.5q0 111 66.5 184.5t173.5 73.5q103 0 145 -64l9 53h116l3 -41q63 52 148 50q116 -1 184.5 -84.5t37.5 -223.5z" />
    <glyph glyph-name="Oslashacute" unicode="&#x1fe;" horiz-adv-x="833" 
d="M607 769h173l-91 -140q118 -99 118 -279q0 -172 -106.5 -269.5t-282.5 -97.5q-71 0 -136 17l-48 -74h-171l90 139q-124 100 -124 285q0 170 107.5 268.5t281.5 98.5q76 0 142 -20zM418 548q-85 0 -138 -55.5t-53 -142.5q0 -68 33 -118l202 312q-28 4 -44 4zM609 350
q0 64 -28 112l-199 -307q18 -3 36 -3q86 0 138.5 55t52.5 143zM599 911v-12l-106 -133h-158v8l67 137h197z" />
    <glyph glyph-name="oslashacute" unicode="&#x1ff;" horiz-adv-x="609" 
d="M305 139q47 0 72.5 30t25.5 77t-25.5 77.5t-72.5 30.5t-72.5 -30.5t-25.5 -77.5t25.5 -77t72.5 -30zM305 505q28 0 61 -5l33 55h170l-67 -110q85 -69 85 -199q0 -67 -24 -118.5t-65 -81t-90 -44t-103 -14.5q-19 0 -57 4l-31 -52h-171l65 107q-88 68 -88 199
q0 130 81.5 194.5t200.5 64.5zM456 703v-12l-94 -128h-141v8l60 132h175z" />
    <glyph glyph-name="Scommaaccent" unicode="&#x218;" horiz-adv-x="669" 
d="M269 -294l36 77q-30 5 -48.5 25t-18.5 49q0 32 19.5 53.5t47 26t55 -1t47 -27.5t19.5 -53q0 -53 -62 -149h-95zM599 635v-169h-171l-3 81q-37 11 -89 11q-36 0 -66.5 -14t-30.5 -45q0 -33 29.5 -47t88.5 -20q58 -6 103.5 -18t89.5 -36t68.5 -67t24.5 -102
q0 -111 -89.5 -169t-219.5 -59q-176 -2 -293 97v175h171l3 -81q58 -22 120 -22q50 0 80.5 16.5t30.5 46.5q0 48 -118 60q-47 4 -84.5 11.5t-77 24t-66 40t-43 62t-16.5 88.5q0 55 27 99t70.5 69.5t94 38.5t103.5 13q156 0 263 -84z" />
    <glyph glyph-name="scommaaccent" unicode="&#x219;" horiz-adv-x="513" 
d="M209 -284l35 75q-29 4 -47 23.5t-18 47.5q0 31 18.5 52t45.5 25.5t53.5 -1t45 -26.5t18.5 -52q0 -51 -60 -144h-91zM31 33v137l157 -3v-37q40 -10 51 -10q32 0 49.5 8.5t16.5 28.5q0 13 -16 23t-42 11q-55 2 -99.5 15t-80 48t-35.5 89q0 84 66.5 126.5t162.5 42.5
q127 0 205 -57l-6 -120h-149v35q-17 4 -42 4q-53 -2 -53 -31t39 -31q36 -1 65 -4.5t62.5 -13.5t56 -26t38 -44t15.5 -66q1 -85 -68 -129.5t-172 -44.5q-60 -1 -121 12.5t-100 36.5z" />
    <glyph glyph-name="uni021A" unicode="&#x21a;" horiz-adv-x="719" 
d="M301 -281l36 77q-30 5 -48.5 25t-18.5 49q0 32 19.5 53.5t47 26t55 -1t47 -27.5t19.5 -53q0 -53 -62 -149h-95zM23 700h673v-271h-167l-6 103h-63v-376h82v-156h-365v156h83v376h-64l-6 -103h-167v271z" />
    <glyph glyph-name="uni021B" unicode="&#x21b;" horiz-adv-x="418" 
d="M175 -276l35 75q-29 5 -47.5 24.5t-18.5 47.5q0 31 19 52t46 25.5t54.5 -1t46.5 -26.5t19 -52q0 -51 -61 -145h-93zM88 614l183 20v-143h111v-141h-112v-162q1 -48 49 -48q29 0 54 17l40 -136q-58 -33 -142 -33q-83 0 -134 46t-49 154v162h-79v141h79v123z" />
    <glyph glyph-name="dotlessj" unicode="&#x237;" horiz-adv-x="330" 
d="M90 -18v378h-68v136h253v-514q0 -70 -26 -119.5t-69 -71t-99 -19t-115 30.5l35 130q41 -23 65 -10t24 59z" />
    <glyph glyph-name="circumflex" unicode="&#x2c6;" horiz-adv-x="475" 
d="M175 705h120l160 -157v-8h-166l-54 47l-54 -47h-166v8z" />
    <glyph glyph-name="caron" unicode="&#x2c7;" horiz-adv-x="475" 
d="M297 534h-120l-160 157v8h166l54 -47l54 47h166v-8z" />
    <glyph glyph-name="breve" unicode="&#x2d8;" horiz-adv-x="406" 
d="M23 700h140q0 -18 9 -28.5t17 -13t16 -2.5t16 2.5t17 13t9 28.5h140q2 -78 -49 -124t-133 -46t-133 46t-49 124z" />
    <glyph glyph-name="dotaccent" unicode="&#x2d9;" horiz-adv-x="276" 
d="M36 610q0 42 30 65.5t71 23.5t71 -23.5t30 -65.5t-30 -65.5t-71 -23.5t-71 23.5t-30 65.5z" />
    <glyph glyph-name="ring" unicode="&#x2da;" horiz-adv-x="427" 
d="M209 706q74 0 116 -43.5t42.5 -96t-41.5 -96t-117 -43.5q-73 0 -114 43.5t-41.5 96t41 96t114.5 43.5zM211 606q-27 0 -38.5 -19.5t0 -39t38.5 -19.5t38 19.5t-0.5 39t-37.5 19.5z" />
    <glyph glyph-name="ogonek" unicode="&#x2db;" horiz-adv-x="382" 
d="M224 2l3 -6q-25 -7 -36.5 -23.5t-9.5 -30t4 -21.5q9 -22 38.5 -26t68.5 16l27 -103q-35 -20 -78.5 -29t-84.5 -4.5t-72.5 29t-40.5 66.5t12 79.5t63 52.5h106z" />
    <glyph glyph-name="tilde" unicode="&#x2dc;" horiz-adv-x="487" 
d="M236 571q-32 20 -66.5 15t-52.5 -40l-101 64q20 52 60.5 80t83.5 26t85 -21q76 -41 112 19l97 -63q-30 -75 -86 -95.5t-132 15.5z" />
    <glyph glyph-name="hungarumlaut" unicode="&#x2dd;" horiz-adv-x="530" 
d="M113 700h168v-8l-102 -155h-164zM338 700h168v-8l-102 -155h-164z" />
    <glyph glyph-name="commaaccentcomb" unicode="&#x326;" horiz-adv-x="512" 
d="M186 -249l36 77q-30 5 -48.5 25t-18.5 49q0 32 19.5 53.5t47 26t55 -1t47 -27.5t19.5 -53q0 -53 -62 -149h-95z" />
    <glyph glyph-name="_375" unicode="&#x394;" horiz-adv-x="794" 
d="M785 17v-17h-804v12l303 688h200zM384 502l-140 -343h278z" />
    <glyph glyph-name="Omega" unicode="&#x3a9;" horiz-adv-x="834" 
d="M417 555q-83 0 -134 -58t-51 -140q-1 -67 31.5 -121.5t103.5 -71.5v-164h-309v157h93q-52 34 -80 97t-28 121q0 153 100.5 249t273.5 96t274 -96t101 -249q0 -63 -28.5 -125t-83.5 -93h97v-157h-309v164q73 18 106.5 72.5t33.5 121.5q0 87 -51.5 142t-139.5 55z" />
    <glyph glyph-name="mu" unicode="&#x3bc;" horiz-adv-x="666" 
d="M598 0h-149l-18 63q-14 -38 -50 -56t-77 -8.5t-68 45.5v-249h-172v699h179v-235q0 -51 26.5 -74t63.5 -23q38 0 63 24.5t26 73.5v234h176v-494z" />
    <glyph glyph-name="pi" unicode="&#x3c0;" horiz-adv-x="695" 
d="M292 0h-183v346h-93v147h653v-147h-93v-186q0 -56 73 -35l16 -124q-40 -10 -76.5 -13t-72 4.5t-61.5 26t-42 53.5t-16 85v189h-105v-346z" />
    <glyph glyph-name="Wgrave" unicode="&#x1e80;" horiz-adv-x="1134" 
d="M1124 545h-74l-199 -545h-162l-124 335l-119 -335h-160l-203 545h-75v155h360v-155h-70l33 -91q14 -44 37 -163l125 398h143l130 -398q12 64 39 168l31 86h-72v155h360v-155zM376 883v12h200l68 -139v-9h-160z" />
    <glyph glyph-name="wgrave" unicode="&#x1e81;" horiz-adv-x="912" 
d="M401 487h110l85 -273l48 147h-48v136h303v-136h-68l-130 -362h-180l-66 188l-66 -188h-177l-132 362h-70v136h305v-136h-43l43 -147zM284 689v12h196l67 -136v-8h-157z" />
    <glyph glyph-name="Wacute" unicode="&#x1e82;" horiz-adv-x="1134" 
d="M1124 545h-74l-199 -545h-162l-124 335l-119 -335h-160l-203 545h-75v155h360v-155h-70l33 -91q14 -44 37 -163l125 398h143l130 -398q12 64 39 168l31 86h-72v155h360v-155zM742 891v-12l-106 -133h-158v8l67 137h197z" />
    <glyph glyph-name="wacute" unicode="&#x1e83;" horiz-adv-x="912" 
d="M401 487h110l85 -273l48 147h-48v136h303v-136h-68l-130 -362h-180l-66 188l-66 -188h-177l-132 362h-70v136h305v-136h-43l43 -147zM626 694v-12l-101 -132h-149v8l63 136h187z" />
    <glyph glyph-name="Wdieresis" unicode="&#x1e84;" horiz-adv-x="1134" 
d="M1124 545h-74l-199 -545h-162l-124 335l-119 -335h-160l-203 545h-75v155h360v-155h-70l33 -91q14 -44 37 -163l125 398h143l130 -398q12 64 39 168l31 86h-72v155h360v-155zM322 838q0 42 28 66.5t67 24.5t68 -24.5t29 -66.5q0 -41 -29 -65t-68 -24t-67 24t-28 65z
M618 838q0 42 28.5 66.5t68.5 24.5q38 0 66.5 -24.5t28.5 -66.5q0 -41 -28.5 -65t-66.5 -24q-40 0 -68.5 24t-28.5 65z" />
    <glyph glyph-name="wdieresis" unicode="&#x1e85;" horiz-adv-x="912" 
d="M401 487h110l85 -273l48 147h-48v136h303v-136h-68l-130 -362h-180l-66 188l-66 -188h-177l-132 362h-70v136h305v-136h-43l43 -147zM228 626q0 38 26.5 60.5t62.5 22.5t63 -22.5t27 -60.5t-27 -59.5t-63 -21.5t-62.5 21.5t-26.5 59.5zM504 626q0 39 26.5 61t63.5 22
q36 0 62.5 -22.5t26.5 -60.5t-26.5 -59.5t-62.5 -21.5q-37 0 -63.5 21.5t-26.5 59.5z" />
    <glyph glyph-name="Ygrave" unicode="&#x1ef2;" horiz-adv-x="783" 
d="M574 0h-365v156h83v85l-204 304h-74v155h347v-152l-46 -3q27 -38 77 -127q57 100 75 127l-44 3v152h346v-155h-75l-203 -304v-85h83v-156zM212 883v12h200l68 -139v-9h-160z" />
    <glyph glyph-name="ygrave" unicode="&#x1ef3;" horiz-adv-x="668" 
d="M215 -29q-25 -64 -107 -20l-50 -136q67 -40 126.5 -47t112 25.5t85.5 106.5l207 461h68v136h-298v-136h34l-58 -165l-60 165h41v136h-306v-136h71l154 -345zM159 686v12h200l68 -139v-9h-160z" />
    <glyph glyph-name="endash" unicode="&#x2013;" horiz-adv-x="597" 
d="M48 210v147h501v-147h-501z" />
    <glyph glyph-name="emdash" unicode="&#x2014;" horiz-adv-x="685" 
d="M48 213v147h589v-147h-589z" />
    <glyph glyph-name="quoteleft" unicode="&#x2018;" horiz-adv-x="280" 
d="M254 701l-51 -259h-177l90 259h138z" />
    <glyph glyph-name="quoteright" unicode="&#x2019;" horiz-adv-x="276" 
d="M34 441l51 259h177l-90 -259h-138z" />
    <glyph glyph-name="quotesinglbase" unicode="&#x201a;" horiz-adv-x="276" 
d="M6 -155l52 256h180l-87 -256h-145z" />
    <glyph glyph-name="quotedblleft" unicode="&#x201c;" horiz-adv-x="488" 
d="M265 700l-70 -253h-170l106 253h134zM462 700l-49 -253h-173l87 253h135z" />
    <glyph glyph-name="quotedblright" unicode="&#x201d;" horiz-adv-x="480" 
d="M231 447l70 253h170l-106 -253h-134zM34 447l49 253h173l-87 -253h-135z" />
    <glyph glyph-name="quotedblbase" unicode="&#x201e;" horiz-adv-x="495" 
d="M6 -155l52 256h176l-83 -256h-145zM227 -155l55 256h173l-85 -256h-143z" />
    <glyph glyph-name="dagger" unicode="&#x2020;" horiz-adv-x="590" 
d="M386 700v-173h179v-157h-179v-462h-184v462h-177v157h177v173h184z" />
    <glyph glyph-name="daggerdbl" unicode="&#x2021;" horiz-adv-x="626" 
d="M404 701v-171h179v-150h-179v-164h179v-148h-179v-170h-182v170h-179v148h179v164h-179v150h179v171h182z" />
    <glyph glyph-name="bullet" unicode="&#x2022;" horiz-adv-x="408" 
d="M205 170q-68 0 -111.5 39t-43.5 102t44 103t111 40q66 0 110 -40t44 -103t-44 -102t-110 -39z" />
    <glyph glyph-name="ellipsis" unicode="&#x2026;" horiz-adv-x="805" 
d="M132 -8q-46 0 -73 28.5t-27 62t26.5 62t73.5 28.5q38 0 64 -18.5t32 -45t0 -53.5t-32 -45.5t-64 -18.5zM402 -8q-46 0 -73 28.5t-27 62t26.5 62t73.5 28.5q38 0 64 -18.5t32 -45t0 -53.5t-32 -45.5t-64 -18.5zM672 -8q-46 0 -73 28.5t-27 62t26.5 62t73.5 28.5
q38 0 64 -18.5t32 -45t0 -53.5t-32 -45.5t-64 -18.5z" />
    <glyph glyph-name="perthousand" unicode="&#x2030;" horiz-adv-x="1286" 
d="M202 710q87 0 133 -49.5t46 -118.5q0 -70 -46 -118.5t-133 -48.5t-132.5 48.5t-45.5 118.5q0 69 45.5 118.5t132.5 49.5zM579 699h180l-458 -699h-183zM202 498q23 0 35 13t12 31t-12 31t-35 13t-35 -13t-12 -31t12 -31t35 -13zM679 327q87 0 133 -49.5t46 -118.5
q0 -70 -46 -118.5t-133 -48.5t-132.5 48.5t-45.5 118.5q0 69 45.5 118.5t132.5 49.5zM679 115q23 0 35 13t12 31t-12 31t-35 13t-35 -13t-12 -31t12 -31t35 -13zM1084 327q87 0 133 -49.5t46 -118.5q0 -70 -46 -118.5t-133 -48.5t-132.5 48.5t-45.5 118.5q0 69 45.5 118.5
t132.5 49.5zM1084 115q23 0 35 13t12 31t-12 31t-35 13t-35 -13t-12 -31t12 -31t35 -13z" />
    <glyph glyph-name="guilsinglleft" unicode="&#x2039;" horiz-adv-x="386" 
d="M25 292l140 224l193 1l-139 -224l140 -225h-194z" />
    <glyph glyph-name="guilsinglright" unicode="&#x203a;" horiz-adv-x="385" 
d="M221 520l139 -223l-139 -223h-194l138 222l-138 224h194z" />
    <glyph glyph-name="fraction" unicode="&#x2044;" horiz-adv-x="200" 
d="M211 696h162l-385 -701h-162z" />
    <glyph glyph-name="zerosuperior" unicode="&#x2070;" horiz-adv-x="392" 
d="M28 625v55q0 78 50.5 120t119.5 42q65 0 115.5 -43.5t50.5 -118.5v-55q0 -80 -48 -123t-122 -43q-71 0 -118.5 43.5t-47.5 122.5zM133 677v-54q0 -42 31.5 -59t63.5 0t32 59v54q0 43 -32 61t-63.5 0t-31.5 -61z" />
    <glyph glyph-name="foursuperior" unicode="&#x2074;" horiz-adv-x="376" 
d="M165 831h144v-223h42v-85h-42v-62h-103v62h-185l-6 84zM122 608h84v132z" />
    <glyph glyph-name="fivesuperior" unicode="&#x2075;" horiz-adv-x="368" 
d="M139 701h52q67 0 110.5 -30t42.5 -99q0 -64 -44.5 -93.5t-106.5 -29.5q-157 0 -157 123h100q4 -33 52 -33q49 0 49 37q0 17 -13.5 28t-34.5 11h-142v216h270v-90h-178v-40z" />
    <glyph glyph-name="sixsuperior" unicode="&#x2076;" horiz-adv-x="377" 
d="M138 716v-35q32 20 81 20q132 0 132 -117q0 -62 -48 -92.5t-113 -30.5q-72 0 -113.5 31.5t-41.5 94.5v129q0 58 46.5 92.5t107.5 34.5q67 0 111 -28t44 -85h-104q-4 26 -48 26q-24 0 -39 -10.5t-15 -29.5zM135 584q0 -18 16 -27t39 -9t39 9.5t16 25.5q0 18 -16.5 27.5
t-38.5 9.5t-39 -10t-16 -26z" />
    <glyph glyph-name="sevensuperior" unicode="&#x2077;" horiz-adv-x="347" 
d="M337 832l4 -41l-144 -329h-122l123 274h-76l-6 -47h-94v143h315z" />
    <glyph glyph-name="eightsuperior" unicode="&#x2078;" horiz-adv-x="379" 
d="M26 574q0 23 15 46t42 34q-48 26 -48 74q0 58 43.5 86t110.5 28q65 0 110.5 -28.5t45.5 -85.5q0 -52 -47 -74q28 -12 41.5 -36t13.5 -47q0 -63 -47 -91t-119 -26q-71 0 -117.5 28.5t-43.5 91.5zM188 691q50 0 50 35q0 16 -13 26t-36 10t-36.5 -10t-13.5 -25q0 -16 13 -26
t36 -10zM244 573q0 15 -15 25t-39 10q-26 0 -41 -9.5t-15 -26.5q-1 -6 2.5 -13t17 -14t35.5 -7q31 0 43.5 11.5t11.5 23.5z" />
    <glyph glyph-name="ninesuperior" unicode="&#x2079;" horiz-adv-x="379" 
d="M239 589v35q-32 -20 -81 -20q-132 0 -132 117q0 62 48 92.5t113 30.5q72 0 114.5 -32.5t42.5 -93.5v-129q0 -58 -48 -92.5t-110 -34.5q-67 0 -111 28t-44 85h104q4 -26 48 -26q25 0 40.5 11t15.5 29zM242 721q0 18 -16 27t-39 9t-39 -9.5t-16 -25.5q0 -18 16.5 -27.5
t38.5 -9.5t39 10t16 26z" />
    <glyph glyph-name="zeroinferior" unicode="&#x2080;" horiz-adv-x="392" 
d="M28 73v55q0 78 50.5 120t119.5 42q65 0 115.5 -43.5t50.5 -118.5v-55q0 -80 -48 -123t-122 -43q-71 0 -118.5 43.5t-47.5 122.5zM133 125v-54q0 -42 31.5 -59t63.5 0t32 59v54q0 43 -32 61t-63.5 0t-31.5 -61z" />
    <glyph glyph-name="oneinferior" unicode="&#x2081;" horiz-adv-x="275" 
d="M26 -83v88h65v166l-52 -14v93l158 39v-284h63v-88h-234z" />
    <glyph glyph-name="twoinferior" unicode="&#x2082;" horiz-adv-x="373" 
d="M143 178h-102q1 56 42.5 88.5t106.5 32.5q70 0 108.5 -29.5t38.5 -89.5q0 -92 -132 -105q-29 -3 -50.5 -18t-21.5 -45h108l4 47h94v-141h-309v97q0 48 37 85.5t82 45.5q9 2 26 4t24 3.5t16.5 5t13 9t3.5 14.5q0 27 -42 29q-47 0 -47 -33z" />
    <glyph glyph-name="threeinferior" unicode="&#x2083;" horiz-adv-x="361" 
d="M127 194l-3 -28h-90v118h301v-17l-93 -128q40 -5 64.5 -31.5t24.5 -69.5q0 -31 -10 -55.5t-26 -38.5t-37.5 -23t-42 -12t-42.5 -3q-61 0 -103.5 31t-43.5 92h101q9 -28 48 -28q22 0 35.5 10.5t13.5 29.5q0 14 -11 25.5t-34 11.5h-48l-10 15l74 101h-68z" />
    <glyph glyph-name="fourinferior" unicode="&#x2084;" horiz-adv-x="375" 
d="M164 287h144v-223h42v-85h-42v-62h-103v62h-185l-6 84zM121 64h84v132z" />
    <glyph glyph-name="fiveinferior" unicode="&#x2085;" horiz-adv-x="364" 
d="M137 161h52q67 0 110.5 -30t42.5 -99q0 -64 -44.5 -93.5t-106.5 -29.5q-157 0 -157 123h100q4 -33 52 -33q49 0 49 37q0 17 -13.5 28t-34.5 11h-142v216h270v-90h-178v-40z" />
    <glyph glyph-name="sixinferior" unicode="&#x2086;" horiz-adv-x="376" 
d="M138 162v-35q32 20 81 20q132 0 132 -117q0 -62 -48 -92.5t-113 -30.5q-72 0 -113.5 31.5t-41.5 94.5v129q0 58 46.5 92.5t107.5 34.5q67 0 111 -28t44 -85h-104q-4 26 -48 26q-24 0 -39 -10.5t-15 -29.5zM135 30q0 -18 16 -27t39 -9t39 9.5t16 25.5q0 18 -16.5 27.5
t-38.5 9.5t-39 -10t-16 -26z" />
    <glyph glyph-name="seveninferior" unicode="&#x2087;" horiz-adv-x="343" 
d="M334 287l4 -41l-144 -329h-122l123 274h-76l-6 -46h-94v142h315z" />
    <glyph glyph-name="eightinferior" unicode="&#x2088;" horiz-adv-x="379" 
d="M26 29q0 23 15 46t42 34q-48 26 -48 74q0 58 43.5 86t110.5 28q65 0 110.5 -28.5t45.5 -85.5q0 -52 -47 -74q28 -12 41.5 -36t13.5 -47q0 -63 -47 -91t-119 -26q-71 0 -117.5 28.5t-43.5 91.5zM188 146q50 0 50 35q0 16 -13 26t-36 10t-36.5 -10t-13.5 -25q0 -16 13 -26
t36 -10zM244 28q0 15 -15 25t-39 10q-26 0 -41 -9.5t-15 -26.5q-1 -6 2.5 -13t17 -14t35.5 -7q31 0 43.5 11.5t11.5 23.5z" />
    <glyph glyph-name="nineinferior" unicode="&#x2089;" horiz-adv-x="376" 
d="M239 36v35q-32 -20 -81 -20q-132 0 -132 117q0 62 48 92.5t113 30.5q72 0 113.5 -31.5t41.5 -94.5v-129q0 -58 -47 -92.5t-109 -34.5q-67 0 -111 28t-44 85h104q4 -26 48 -26q25 0 40.5 11t15.5 29zM242 168q0 18 -16 27t-39 9t-39 -9.5t-16 -25.5q0 -18 16.5 -27.5
t38.5 -9.5t39 10t16 26z" />
    <glyph glyph-name="Euro" unicode="&#x20ac;" horiz-adv-x="627" 
d="M34 199v121h55v50h-55v117h83q26 73 80.5 124t120.5 73t138.5 21t136.5 -26l-48 -141q-61 27 -125 16.5t-97 -67.5h181l-29 -117h-199q-1 -25 0 -50h188l-26 -121h-113q38 -42 107 -56t122 7l48 -144q-67 -21 -140 -21q-135 0 -224.5 56t-125.5 158h-78z" />
    <glyph glyph-name="afii61289" unicode="&#x2113;" horiz-adv-x="403" 
d="M227 239v-86q0 -25 15.5 -39t41.5 -14q14 0 65 14v-97q-63 -21 -110 -21q-141 0 -154 143q-37 -19 -41 -20l-22 75q43 18 61 28v308q0 94 37 133t133 39q131 0 131 -144q0 -28 -3 -54q-16 -136 -154 -265zM224 530v-98q0 -12 -0.5 -28t-0.5 -21v-13q58 85 64 147
q4 26 4 45q0 62 -36 62q-15 0 -23 -28t-8 -66z" />
    <glyph glyph-name="uni2117" unicode="&#x2117;" horiz-adv-x="781" 
d="M390 717q168 0 265 -105t97 -260t-97 -260t-265 -105q-167 0 -264 105t-97 260t97 260t264 105zM138 352q2 -117 69 -193t183 -76q117 0 184 76t67 193q0 116 -67 192.5t-184 76.5q-116 0 -183 -76t-69 -193zM364 267h66q39 0 70 14t47 37t23.5 50.5t0 54.5t-23 50
t-46.5 37t-70 14h-170v-356h103v99zM364 430h67q23 0 34 -19t2 -37.5t-35 -18.5h-68v75z" />
    <glyph glyph-name="trademark" unicode="&#x2122;" horiz-adv-x="821" 
d="M259 592v-196h-121v196h-90v108h303v-108h-92zM512 700l69 -87l67 87h119v-305h-120v69l4 72l-57 -79h-28l-57 80l4 -73v-69h-119v305h118z" />
    <glyph glyph-name="estimated" unicode="&#x212e;" horiz-adv-x="613" 
d="M314 -7q-120 0 -198.5 77t-78.5 216q0 140 78 217t198 77q56 0 103 -14.5t86 -45t61 -85t22 -128.5q0 -31 -5 -59h-375v-151q43 -34 109 -34q124 0 185 92l54 -40q-47 -67 -105 -94.5t-134 -27.5zM313 514q-66 0 -108 -31v-162h219v164q-45 29 -111 29z" />
    <glyph glyph-name="uni2153" unicode="&#x2153;" horiz-adv-x="807" 
d="M30 334v90h62v170l-52 -14v92l157 39v-287h60v-90h-227zM234 -4h-119l389 712h123zM572 277l-3 -28h-90v118h301v-17l-93 -128q40 -5 64.5 -31.5t24.5 -69.5q0 -31 -10 -55.5t-26 -38.5t-37.5 -23t-42 -12t-42.5 -3q-61 0 -103.5 31t-43.5 92h101q9 -28 48 -28
q22 0 35.5 10.5t13.5 29.5q0 14 -11 25.5t-34 11.5h-48l-10 15l74 101h-68z" />
    <glyph glyph-name="uni2154" unicode="&#x2154;" horiz-adv-x="886" 
d="M317 -4h-121l394 712h124zM651 277l-3 -28h-90v118h301v-17l-93 -128q40 -5 64.5 -31.5t24.5 -69.5q0 -31 -10 -55.5t-26 -38.5t-37.5 -23t-42 -12t-42.5 -3q-61 0 -103.5 31t-43.5 92h101q9 -28 48 -28q22 0 35.5 10.5t13.5 29.5q0 14 -11 25.5t-34 11.5h-48l-10 15
l74 101h-68zM142 592h-102q1 56 42.5 88.5t106.5 32.5q70 0 108.5 -29.5t38.5 -89.5q0 -92 -132 -105q-29 -3 -50.5 -18t-21.5 -45h108l4 47h94v-141h-309v97q0 48 37 85.5t82 45.5q9 2 26 4t24 3.5t16.5 5t13 9t3.5 14.5q0 27 -42 29q-47 0 -47 -33z" />
    <glyph glyph-name="oneeighth" unicode="&#x215b;" horiz-adv-x="807" 
d="M32 334v90h62v170l-52 -14v92l157 39v-287h60v-90h-227zM224 -4h-119l407 712h123zM454 111q0 23 15 46t42 34q-48 26 -48 74q0 58 43.5 86t110.5 28q65 0 110.5 -28.5t45.5 -85.5q0 -52 -47 -74q28 -12 41.5 -36t13.5 -47q0 -63 -47 -91t-119 -26q-71 0 -117.5 28.5
t-43.5 91.5zM616 228q50 0 50 35q0 16 -13 26t-36 10t-36.5 -10t-13.5 -25q0 -16 13 -26t36 -10zM672 110q0 15 -15 25t-39 10q-26 0 -41 -9.5t-15 -26.5q-1 -6 2.5 -13t17 -14t35.5 -7q31 0 43.5 11.5t11.5 23.5z" />
    <glyph glyph-name="threeeighths" unicode="&#x215c;" horiz-adv-x="857" 
d="M291 -4h-120l389 712h124zM505 111q0 23 15 46t42 34q-48 26 -48 74q0 58 43.5 86t110.5 28q65 0 110.5 -28.5t45.5 -85.5q0 -52 -47 -74q28 -12 41.5 -36t13.5 -47q0 -63 -47 -91t-119 -26q-71 0 -117.5 28.5t-43.5 91.5zM667 228q50 0 50 35q0 16 -13 26t-36 10
t-36.5 -10t-13.5 -25q0 -16 13 -26t36 -10zM723 110q0 15 -15 25t-39 10q-26 0 -41 -9.5t-15 -26.5q-1 -6 2.5 -13t17 -14t35.5 -7q31 0 43.5 11.5t11.5 23.5zM129 609l-3 -28h-90v118h301v-17l-93 -128q40 -5 64.5 -31.5t24.5 -69.5q0 -31 -10 -55.5t-26 -38.5t-37.5 -23
t-42 -12t-42.5 -3q-61 0 -103.5 31t-43.5 92h101q9 -28 48 -28q22 0 35.5 10.5t13.5 29.5q0 14 -11 25.5t-34 11.5h-48l-10 15l74 101h-68z" />
    <glyph glyph-name="fiveeighths" unicode="&#x215d;" horiz-adv-x="862" 
d="M295 -4h-119l389 712h124zM510 111q0 23 15 46t42 34q-48 26 -48 74q0 58 43.5 86t110.5 28q65 0 110.5 -28.5t45.5 -85.5q0 -52 -47 -74q28 -12 41.5 -36t13.5 -47q0 -63 -47 -91t-119 -26q-71 0 -117.5 28.5t-43.5 91.5zM672 228q50 0 50 35q0 16 -13 26t-36 10
t-36.5 -10t-13.5 -25q0 -16 13 -26t36 -10zM728 110q0 15 -15 25t-39 10q-26 0 -41 -9.5t-15 -26.5q-1 -6 2.5 -13t17 -14t35.5 -7q31 0 43.5 11.5t11.5 23.5zM131 572h52q67 0 110.5 -30t42.5 -99q0 -64 -44.5 -93.5t-106.5 -29.5q-157 0 -157 123h100q4 -33 52 -33
q49 0 49 37q0 17 -13.5 28t-34.5 11h-142v216h270v-90h-178v-40z" />
    <glyph glyph-name="seveneighths" unicode="&#x215e;" horiz-adv-x="796" 
d="M217 -4h-120l389 712h124zM444 111q0 23 15 46t42 34q-48 26 -48 74q0 58 43.5 86t110.5 28q65 0 110.5 -28.5t45.5 -85.5q0 -52 -47 -74q28 -12 41.5 -36t13.5 -47q0 -63 -47 -91t-119 -26q-71 0 -117.5 28.5t-43.5 91.5zM606 228q50 0 50 35q0 16 -13 26t-36 10
t-36.5 -10t-13.5 -25q0 -16 13 -26t36 -10zM662 110q0 15 -15 25t-39 10q-26 0 -41 -9.5t-15 -26.5q-1 -6 2.5 -13t17 -14t35.5 -7q31 0 43.5 11.5t11.5 23.5zM343 700l4 -41l-148 -329h-122l127 274h-76l-6 -46h-94v142h315z" />
    <glyph glyph-name="arrowleft" unicode="&#x2190;" horiz-adv-x="593" 
d="M246 102l-244 245l244 243l83 -80l-99 -97h320v-136h-323l98 -104z" />
    <glyph glyph-name="arrowup" unicode="&#x2191;" horiz-adv-x="545" 
d="M25 387l245 245l242 -247l-78 -80l-98 97v-317h-138v318l-102 -96z" />
    <glyph glyph-name="arrowright" unicode="&#x2192;" horiz-adv-x="593" 
d="M335 592l245 -245l-245 -245l-83 80l97 99h-317v135h320l-95 102z" />
    <glyph glyph-name="arrowdown" unicode="&#x2193;" horiz-adv-x="539" 
d="M509 310l-245 -245l-244 245l78 83l99 -97v317h137v-320l101 95z" />
    <glyph glyph-name="uni2196" unicode="&#x2196;" horiz-adv-x="514" 
d="M52 193v345h350l2 -114h-140l226 -226l-96 -96l-225 227l-7 -140z" />
    <glyph glyph-name="uni2197" unicode="&#x2197;" horiz-adv-x="516" 
d="M451 536v-345l-115 -2v139l-225 -226l-97 96l228 226l-138 5l2 107h345z" />
    <glyph glyph-name="uni2198" unicode="&#x2198;" horiz-adv-x="603" 
d="M487 494v-348h-347l-4 106l142 8l-228 225l96 98l227 -224v137z" />
    <glyph glyph-name="uni2199" unicode="&#x2199;" horiz-adv-x="603" 
d="M104 146v348l116 2v-137l226 224l95 -98l-226 -224l139 -8l-4 -107h-346z" />
    <glyph glyph-name="partialdiff" unicode="&#x2202;" horiz-adv-x="577" 
d="M377 238q0 40 -18 66.5t-44.5 32.5t-52.5 -0.5t-44 -33t-18 -64.5t18 -64t44 -32t52.5 0.5t44.5 32t18 62.5zM262 482q36 0 56 -8q-28 36 -88 64.5t-104 32.5l28 130q179 -13 288.5 -141t109.5 -310q-1 -116 -71.5 -187t-192.5 -71q-125 0 -195 72.5t-70 173.5
q0 106 63 175t176 69z" />
    <glyph glyph-name="increment" unicode="&#x2206;" horiz-adv-x="839" 
d="M821 17v-17h-804v12l303 688h200zM420 502l-140 -343h278z" />
    <glyph glyph-name="product" unicode="&#x220f;" horiz-adv-x="696" 
d="M624 -181h-185v724h-178v-724h-189v881h552v-881z" />
    <glyph glyph-name="summation" unicode="&#x2211;" horiz-adv-x="594" 
d="M395 366l-140 -204h302v-162h-529v103l177 265l-168 245v87h514v-154h-271z" />
    <glyph glyph-name="minus" unicode="&#x2212;" horiz-adv-x="516" 
d="M48 201v152h420v-152h-420z" />
    <glyph glyph-name="uni2215" unicode="&#x2215;" horiz-adv-x="509" 
d="M365 696h162l-385 -701h-162z" />
    <glyph glyph-name="uni2219" unicode="&#x2219;" horiz-adv-x="280" 
d="M35 312q0 45 31 70.5t74 25.5q42 0 73.5 -25.5t31.5 -70.5t-31.5 -70t-73.5 -25q-43 0 -74 25t-31 70z" />
    <glyph glyph-name="radical" unicode="&#x221a;" horiz-adv-x="614" 
d="M624 727l-240 -727h-127l-158 296l-70 -27l-38 93l219 99l115 -243l181 544z" />
    <glyph glyph-name="infinity" unicode="&#x221e;" horiz-adv-x="739" 
d="M367 225q-82 -82 -151 -76q-84 3 -130.5 51t-47.5 114q0 69 50 119.5t137 50.5q33 0 74.5 -23t67.5 -53q33 34 72.5 55t71.5 21q89 0 139 -48t50 -122q0 -67 -47.5 -115t-133.5 -50q-72 -4 -152 76zM517 271q34 0 48 23t0 46t-48 23q-24 0 -73 -47q45 -45 73 -45z
M221 271q28 0 73 45q-49 47 -73 47q-34 0 -48 -23t0 -46t48 -23z" />
    <glyph glyph-name="integral" unicode="&#x222b;" horiz-adv-x="506" 
d="M155 13v486q4 76 43.5 128t95 70t117.5 11t111 -39l-63 -137q-29 18 -55.5 23.5t-46 -7.5t-19.5 -49v-486q-3 -73 -38.5 -124t-86.5 -70.5t-112 -10.5t-115 47l59 125q14 -11 31.5 -18.5t35.5 -8.5t30.5 14t12.5 46z" />
    <glyph glyph-name="approxequal" unicode="&#x2248;" horiz-adv-x="544" 
d="M122 313l-88 51q25 56 69 87t96 20q16 -4 52.5 -19t61.5 -23.5t51.5 -2.5t37.5 35l92 -38q-34 -134 -150 -115q-34 3 -108 29q-23 9 -35 12t-29 4t-29 -9.5t-21 -30.5zM134 124l-87 50q24 56 68 87.5t96 20.5q16 -4 53 -19t62 -24t51.5 -3t37.5 36l92 -39
q-17 -68 -57 -95.5t-94 -18.5q-36 3 -107 29q-22 8 -35 11.5t-29.5 4t-29 -9.5t-21.5 -30z" />
    <glyph glyph-name="notequal" unicode="&#x2260;" horiz-adv-x="587" 
d="M61 121v149h164q5 8 17 32.5t21 39.5h-202v150h286l55 97l94 -51l-28 -46h58v-150h-140q-5 -9 -19.5 -33t-21.5 -39h181v-149h-266l-55 -99l-92 53l27 46h-79z" />
    <glyph glyph-name="lessequal" unicode="&#x2264;" horiz-adv-x="435" 
d="M35 44v122h365v-122h-365zM34 426v8l254 216l92 -89l-143 -128l142 -126l-91 -93z" />
    <glyph glyph-name="greaterequal" unicode="&#x2265;" horiz-adv-x="435" 
d="M400 166v-122h-365v122h365zM401 434v-8l-254 -212l-91 93l142 126l-143 128l92 89z" />
    <glyph glyph-name="lozenge" unicode="&#x25ca;" horiz-adv-x="625" 
d="M605 350l-214 -351h-154l-217 351l217 352h154zM209 350l106 -183l100 182l-100 186z" />
    <glyph glyph-name="fi" unicode="&#xfb01;" horiz-adv-x="748" 
d="M408 0v137h64v220h-177v-219h70v-138h-332v138h78v219h-85v139h85v13q0 101 64 153t150 52q57 0 106 -27l-41 -125q-20 9 -40 9q-24 -1 -39.5 -16.5t-15.5 -45.5v-13h363v-359h70v-137h-320zM463 630q0 45 31 70t75 25q41 0 71.5 -25t30.5 -70q0 -43 -31 -68.5t-71 -25.5
q-43 0 -74.5 25t-31.5 69z" />
    <glyph glyph-name="fl" unicode="&#xfb02;" horiz-adv-x="737" 
d="M400 0v145h59v418q-22 6 -45 8.5t-51.5 1t-46.5 -17.5t-18 -46v-20h105v-142h-105v-202h65v-145h-332v145h83v202h-85v142h85v20q0 110 69 160.5t178 52.5q75 1 153 -14.5t130 -38.5v-524h70v-145h-314z" />
    <glyph glyph-name="a.alt" horiz-adv-x="599" 
d="M341 300q0 105 -124 74v-37l-153 -6l-6 118q73 57 213 59q251 0 251 -207v-165h68v-136h-227l-17 51q-54 -60 -135 -60q-89 0 -140 45.5t-51 111.5q0 55 32.5 92t81.5 50t104.5 17t102.5 -7zM342 194q-14 7 -37 10.5t-45.5 2t-39 -12t-16.5 -29.5q0 -40 57 -38
q25 0 50.5 17.5t30.5 49.5z" />
    <glyph glyph-name="aacute.alt" horiz-adv-x="599" 
d="M358 562h-155v6l64 131h196zM341 300q0 105 -124 74v-37l-153 -6l-6 118q73 57 213 59q251 0 251 -207v-165h68v-136h-227l-17 51q-54 -60 -135 -60q-89 0 -140 45.5t-51 111.5q0 55 32.5 92t81.5 50t104.5 17t102.5 -7zM342 194q-14 7 -37 10.5t-45.5 2t-39 -12
t-16.5 -29.5q0 -40 57 -38q25 0 50.5 17.5t30.5 49.5z" />
    <glyph glyph-name="abreve.alt" horiz-adv-x="599" 
d="M341 300q0 105 -124 74v-37l-153 -6l-6 118q73 57 213 59q251 0 251 -207v-165h68v-136h-227l-17 51q-54 -60 -135 -60q-89 0 -140 45.5t-51 111.5q0 55 32.5 92t81.5 50t104.5 17t102.5 -7zM342 194q-14 7 -37 10.5t-45.5 2t-39 -12t-16.5 -29.5q0 -40 57 -38
q25 0 50.5 17.5t30.5 49.5zM107 705h143q0 -16 9 -25.5t17 -12t16 -2.5t16.5 2.5t17.5 12t9 25.5h142q3 -72 -49.5 -114t-135.5 -42q-82 0 -134.5 42t-50.5 114z" />
    <glyph glyph-name="acircumflex.alt" horiz-adv-x="599" 
d="M341 300q0 105 -124 74v-37l-153 -6l-6 118q73 57 213 59q251 0 251 -207v-165h68v-136h-227l-17 51q-54 -60 -135 -60q-89 0 -140 45.5t-51 111.5q0 55 32.5 92t81.5 50t104.5 17t102.5 -7zM342 194q-14 7 -37 10.5t-45.5 2t-39 -12t-16.5 -29.5q0 -40 57 -38
q25 0 50.5 17.5t30.5 49.5zM224 702h130l149 -142v-7h-162l-52 44l-52 -44h-161v7z" />
    <glyph glyph-name="adieresis.alt" horiz-adv-x="599" 
d="M175 545q-35 0 -60.5 21.5t-25.5 60.5q0 41 26 63t61 22t60.5 -22t25.5 -61q0 -40 -25.5 -62t-61.5 -22zM400 543q-36 0 -61 22t-25 62t25.5 62.5t60.5 22.5t61 -22t26 -63q0 -40 -26 -62t-61 -22zM341 300q0 105 -124 74v-37l-153 -6l-6 118q73 57 213 59
q251 0 251 -207v-165h68v-136h-227l-17 51q-54 -60 -135 -60q-89 0 -140 45.5t-51 111.5q0 55 32.5 92t81.5 50t104.5 17t102.5 -7zM342 194q-14 7 -37 10.5t-45.5 2t-39 -12t-16.5 -29.5q0 -40 57 -38q25 0 50.5 17.5t30.5 49.5z" />
    <glyph glyph-name="agrave.alt" horiz-adv-x="599" 
d="M341 300q0 105 -124 74v-37l-153 -6l-6 118q73 57 213 59q251 0 251 -207v-165h68v-136h-227l-17 51q-54 -60 -135 -60q-89 0 -140 45.5t-51 111.5q0 55 32.5 92t81.5 50t104.5 17t102.5 -7zM342 194q-14 7 -37 10.5t-45.5 2t-39 -12t-16.5 -29.5q0 -40 57 -38
q25 0 50.5 17.5t30.5 49.5zM366 561h-155l-105 137h196l64 -131v-6z" />
    <glyph glyph-name="amacron.alt" horiz-adv-x="599" 
d="M132 566v133h313v-133h-313zM341 300q0 105 -124 74v-37l-153 -6l-6 118q73 57 213 59q251 0 251 -207v-165h68v-136h-227l-17 51q-54 -60 -135 -60q-89 0 -140 45.5t-51 111.5q0 55 32.5 92t81.5 50t104.5 17t102.5 -7zM342 194q-14 7 -37 10.5t-45.5 2t-39 -12
t-16.5 -29.5q0 -40 57 -38q25 0 50.5 17.5t30.5 49.5z" />
    <glyph glyph-name="aogonek.alt" horiz-adv-x="600" 
d="M341 300q0 105 -124 74v-37l-153 -6l-6 118q73 57 213 59q251 0 251 -207v-165h68v-136q-35 1 -59.5 -5.5t-35 -16.5t-14.5 -22.5t-3 -21.5t4 -15q9 -22 38.5 -26t68.5 16l27 -103q-35 -20 -78.5 -29t-84.5 -4.5t-72.5 29t-40.5 66.5q-9 41 13.5 79t61.5 53h-52l-17 51
q-54 -60 -135 -60q-89 0 -140 45.5t-51 111.5q0 55 32.5 92t81.5 50t104.5 17t102.5 -7zM342 194q-14 7 -37 10.5t-45.5 2t-39 -12t-16.5 -29.5q0 -40 57 -38q25 0 50.5 17.5t30.5 49.5z" />
    <glyph glyph-name="aring.alt" horiz-adv-x="599" 
d="M341 300q0 105 -124 74v-37l-153 -6l-6 118q73 57 213 59q251 0 251 -207v-165h68v-136h-227l-17 51q-54 -60 -135 -60q-89 0 -140 45.5t-51 111.5q0 55 32.5 92t81.5 50t104.5 17t102.5 -7zM342 194q-14 7 -37 10.5t-45.5 2t-39 -12t-16.5 -29.5q0 -40 57 -38
q25 0 50.5 17.5t30.5 49.5zM281 759q45 0 79 -16t49 -40.5t15 -52.5t-15 -52.5t-48.5 -40.5t-79.5 -16q-53 0 -89.5 22.5t-45 54.5t0 64t45 54.5t89.5 22.5zM283 681q-25 0 -35.5 -15.5t0 -30.5t35.5 -15t34.5 15t-0.5 30.5t-34 15.5z" />
    <glyph glyph-name="aringacute.alt" horiz-adv-x="599" 
d="M218 766l77 100h173l-122 -103h-128v3zM284 535q-58 0 -95.5 24t-37.5 79q0 45 41 72.5t95 27.5q53 0 92 -25t39 -75t-39 -76.5t-95 -26.5zM284 664q-17 0 -27 -9t-10 -22q0 -10 8.5 -18.5t28.5 -8.5q37 0 37 28q0 12 -9.5 21t-27.5 9zM341 300q0 105 -124 74v-37
l-153 -6l-6 118q73 57 213 59q251 0 251 -207v-165h68v-136h-227l-17 51q-54 -60 -135 -60q-89 0 -140 45.5t-51 111.5q0 55 32.5 92t81.5 50t104.5 17t102.5 -7zM342 194q-14 7 -37 10.5t-45.5 2t-39 -12t-16.5 -29.5q0 -40 57 -38q25 0 50.5 17.5t30.5 49.5z" />
    <glyph glyph-name="atilde.alt" horiz-adv-x="599" 
d="M341 300q0 105 -124 74v-37l-153 -6l-6 118q73 57 213 59q251 0 251 -207v-165h68v-136h-227l-17 51q-54 -60 -135 -60q-89 0 -140 45.5t-51 111.5q0 55 32.5 92t81.5 50t104.5 17t102.5 -7zM342 194q-14 7 -37 10.5t-45.5 2t-39 -12t-16.5 -29.5q0 -40 57 -38
q25 0 50.5 17.5t30.5 49.5zM282 571q-30 20 -62.5 15.5t-50.5 -39.5l-95 63q19 52 57.5 79t78.5 25t80 -21q71 -41 106 19l91 -62q-28 -74 -81 -94t-124 15z" />
    <glyph glyph-name="g.alt" horiz-adv-x="680" 
d="M305 358q-43 0 -71 -28.5t-28 -78.5q0 -48 28.5 -77t70.5 -29q46 0 74.5 30.5t28.5 73.5q0 50 -27 79.5t-76 29.5zM660 497v-136h-67v-357q0 -123 -77 -186.5t-201 -63.5q-121 0 -195 53t-79 158l184 -2q5 -30 30 -45t60 -15q46 0 72.5 26t26.5 71v65q-50 -69 -165 -63
q-108 7 -167 73t-59 176q0 112 66.5 184.5t174.5 72.5q105 0 145 -64l10 53h241z" />
    <glyph glyph-name="gbreve.alt" horiz-adv-x="680" 
d="M305 358q-43 0 -71 -28.5t-28 -78.5q0 -48 28.5 -77t70.5 -29q46 0 74.5 30.5t28.5 73.5q0 50 -27 79.5t-76 29.5zM660 497v-136h-67v-357q0 -123 -77 -186.5t-201 -63.5q-121 0 -195 53t-79 158l184 -2q5 -30 30 -45t60 -15q46 0 72.5 26t26.5 71v65q-50 -69 -165 -63
q-108 7 -167 73t-59 176q0 112 66.5 184.5t174.5 72.5q105 0 145 -64l10 53h241zM141 711h147q0 -24 15 -33t29 -9q9 0 17.5 2.5t17.5 12.5t9 27h147q3 -75 -51 -119t-140 -44q-85 0 -139 44t-52 119z" />
    <glyph glyph-name="gcircumflex.alt" horiz-adv-x="680" 
d="M305 358q-43 0 -71 -28.5t-28 -78.5q0 -48 28.5 -77t70.5 -29q46 0 74.5 30.5t28.5 73.5q0 50 -27 79.5t-76 29.5zM660 497v-136h-67v-357q0 -123 -77 -186.5t-201 -63.5q-121 0 -195 53t-79 158l184 -2q5 -30 30 -45t60 -15q46 0 72.5 26t26.5 71v65q-50 -69 -165 -63
q-108 7 -167 73t-59 176q0 112 66.5 184.5t174.5 72.5q105 0 145 -64l10 53h241zM282 712h123l164 -156v-8h-170l-55 46l-55 -46h-171v8z" />
    <glyph glyph-name="gcommaaccent.alt" horiz-adv-x="680" 
d="M281 775h109l-23 -80q59 -5 60 -57q2 -41 -29.5 -63t-74.5 -22q-57 0 -82 34t-11 79q11 34 51 109zM305 358q-43 0 -71 -28.5t-28 -78.5q0 -48 28.5 -77t70.5 -29q46 0 74.5 30.5t28.5 73.5q0 50 -27 79.5t-76 29.5zM660 497v-136h-67v-357q0 -123 -77 -186.5t-201 -63.5
q-121 0 -195 53t-79 158l184 -2q5 -30 30 -45t60 -15q46 0 72.5 26t26.5 71v65q-50 -69 -165 -63q-108 7 -167 73t-59 176q0 112 66.5 184.5t174.5 72.5q105 0 145 -64l10 53h241z" />
    <glyph glyph-name="gdotaccent.alt" horiz-adv-x="680" 
d="M305 358q-43 0 -71 -28.5t-28 -78.5q0 -48 28.5 -77t70.5 -29q46 0 74.5 30.5t28.5 73.5q0 50 -27 79.5t-76 29.5zM660 497v-136h-67v-357q0 -123 -77 -186.5t-201 -63.5q-121 0 -195 53t-79 158l184 -2q5 -30 30 -45t60 -15q46 0 72.5 26t26.5 71v65q-50 -69 -165 -63
q-108 7 -167 73t-59 176q0 112 66.5 184.5t174.5 72.5q105 0 145 -64l10 53h241zM232 644q0 42 30 65.5t71 23.5t71 -23.5t30 -65.5t-30 -65.5t-71 -23.5t-71 23.5t-30 65.5z" />
    <glyph glyph-name="y.alt" horiz-adv-x="650" 
d="M256 497v-243q0 -109 80 -109q74 0 74 106v110h-66v136h251v-493q0 -128 -70.5 -189t-194.5 -61q-118 0 -184.5 52t-70.5 157l185 2q8 -62 70 -62q88 0 88 97v58q-25 -33 -52.5 -44.5t-71.5 -11.5q-113 0 -167 67t-54 182v110h-66v136h249z" />
    <glyph glyph-name="yacute.alt" horiz-adv-x="650" 
d="M256 497v-243q0 -109 80 -109q74 0 74 106v110h-66v136h251v-493q0 -128 -70.5 -189t-194.5 -61q-118 0 -184.5 52t-70.5 157l185 2q8 -62 70 -62q88 0 88 97v58q-25 -33 -52.5 -44.5t-71.5 -11.5q-113 0 -167 67t-54 182v110h-66v136h249zM504 701v-12l-106 -133h-158v8
l67 137h197z" />
    <glyph glyph-name="ycircumflex.alt" horiz-adv-x="650" 
d="M256 497v-243q0 -109 80 -109q74 0 74 106v110h-66v136h251v-493q0 -128 -70.5 -189t-194.5 -61q-118 0 -184.5 52t-70.5 157l185 2q8 -62 70 -62q88 0 88 97v58q-25 -33 -52.5 -44.5t-71.5 -11.5q-113 0 -167 67t-54 182v110h-66v136h249zM258 715h120l160 -157v-8h-166
l-54 47l-54 -47h-166v8z" />
    <glyph glyph-name="ydieresis.alt" horiz-adv-x="650" 
d="M256 497v-243q0 -109 80 -109q74 0 74 106v110h-66v136h251v-493q0 -128 -70.5 -189t-194.5 -61q-118 0 -184.5 52t-70.5 157l185 2q8 -62 70 -62q88 0 88 97v58q-25 -33 -52.5 -44.5t-71.5 -11.5q-113 0 -167 67t-54 182v110h-66v136h249zM88 624q0 41 27.5 65t64.5 24
q38 0 66.5 -24t28.5 -65t-28.5 -64.5t-66.5 -23.5q-37 0 -64.5 23.5t-27.5 64.5zM376 624q0 41 28 65t66 24q37 0 65 -24t28 -65t-28 -64.5t-65 -23.5q-38 0 -66 23.5t-28 64.5z" />
    <glyph glyph-name="ygrave.alt" horiz-adv-x="650" 
d="M256 497v-243q0 -109 80 -109q74 0 74 106v110h-66v136h251v-493q0 -128 -70.5 -189t-194.5 -61q-118 0 -184.5 52t-70.5 157l185 2q8 -62 70 -62q88 0 88 97v58q-25 -33 -52.5 -44.5t-71.5 -11.5q-113 0 -167 67t-54 182v110h-66v136h249zM143 689v12h197l67 -137v-8
h-158z" />
    <glyph glyph-name="zero.denom" horiz-adv-x="456" 
d="M60 153v55q0 78 50.5 120t119.5 42q65 0 115.5 -43.5t50.5 -118.5v-55q0 -80 -48 -123t-122 -43q-71 0 -118.5 43.5t-47.5 122.5zM165 205v-54q0 -42 31.5 -59t63.5 0t32 59v54q0 43 -32 61t-63.5 0t-31.5 -61z" />
    <glyph glyph-name="one.denom" horiz-adv-x="341" 
d="M59 0v88h65v166l-52 -14v93l158 39v-284h63v-88h-234z" />
    <glyph glyph-name="two.denom" horiz-adv-x="374" 
d="M145 260h-102q1 56 42.5 88.5t106.5 32.5q70 0 108.5 -29.5t38.5 -89.5q0 -92 -132 -105q-72 -7 -72 -60h108l4 44h94v-141h-309v97q0 48 37 85.5t82 45.5q9 2 26 4t24 3.5t16.5 5t13 9t3.5 14.5q0 27 -42 29q-47 0 -47 -33z" />
    <glyph glyph-name="three.denom" horiz-adv-x="361" 
d="M126 282l-3 -28h-90v118h301v-17l-93 -128q40 -5 64.5 -31.5t24.5 -69.5q0 -31 -10 -55.5t-26 -38.5t-37.5 -23t-42 -12t-42.5 -3q-61 0 -103.5 31t-43.5 92h101q9 -28 48 -28q22 0 35.5 10.5t13.5 29.5q0 14 -11 25.5t-34 11.5h-48l-10 15l74 101h-68z" />
    <glyph glyph-name="four.denom" horiz-adv-x="375" 
d="M164 370h144v-223h42v-85h-42v-62h-103v62h-185l-6 84zM121 147h84v132z" />
    <glyph glyph-name="five.denom" horiz-adv-x="364" 
d="M136 240h52q67 0 110.5 -30t42.5 -99q0 -64 -44.5 -93.5t-106.5 -29.5q-157 0 -157 123h100q4 -33 52 -33q49 0 49 37q0 17 -13.5 28t-34.5 11h-142v216h270v-90h-178v-40z" />
    <glyph glyph-name="six.denom" horiz-adv-x="374" 
d="M135 248v-35q32 20 81 20q132 0 132 -117q0 -62 -48 -92.5t-113 -30.5q-72 0 -113.5 31.5t-41.5 94.5v129q0 58 46.5 92.5t107.5 34.5q67 0 111 -28t44 -85h-104q-4 26 -48 26q-24 0 -39 -10.5t-15 -29.5zM132 116q0 -18 16 -27t39 -9t39 9.5t16 25.5q0 18 -16.5 27.5
t-38.5 9.5t-39 -10t-16 -26z" />
    <glyph glyph-name="seven.denom" horiz-adv-x="344" 
d="M335 370l4 -41l-144 -329h-122l123 274h-76l-6 -46h-94v142h315z" />
    <glyph glyph-name="eight.denom" horiz-adv-x="379" 
d="M26 110q0 23 15 46t42 34q-48 26 -48 74q0 58 43.5 86t110.5 28q65 0 110.5 -28.5t45.5 -85.5q0 -52 -47 -74q28 -12 41.5 -36t13.5 -47q0 -63 -47 -91t-119 -26q-71 0 -117.5 28.5t-43.5 91.5zM188 227q50 0 50 35q0 16 -13 26t-36 10t-36.5 -10t-13.5 -25q0 -16 13 -26
t36 -10zM244 109q0 15 -15 25t-39 10q-26 0 -41 -9.5t-15 -26.5q-1 -6 2.5 -13t17 -14t35.5 -7q31 0 43.5 11.5t11.5 23.5z" />
    <glyph glyph-name="nine.denom" horiz-adv-x="374" 
d="M239 120v35q-32 -20 -81 -20q-132 0 -132 117q0 62 48 92.5t113 30.5q72 0 113.5 -31.5t41.5 -94.5v-129q0 -58 -47 -92.5t-109 -34.5q-67 0 -111 28t-44 85h104q4 -26 48 -26q25 0 40.5 11t15.5 29zM242 252q0 18 -16 27t-39 9t-39 -9.5t-16 -25.5q0 -18 16.5 -27.5
t38.5 -9.5t39 10t16 26z" />
    <glyph glyph-name="zero.num" horiz-adv-x="392" 
d="M28 496v55q0 78 50.5 120t119.5 42q65 0 115.5 -43.5t50.5 -118.5v-55q0 -80 -48 -123t-122 -43q-71 0 -118.5 43.5t-47.5 122.5zM133 548v-54q0 -42 31.5 -59t63.5 0t32 59v54q0 43 -32 61t-63.5 0t-31.5 -61z" />
    <glyph glyph-name="one.num" horiz-adv-x="341" 
d="M59 343v88h65v166l-52 -14v93l158 39v-284h63v-88h-234z" />
    <glyph glyph-name="two.num" horiz-adv-x="373" 
d="M144 594h-102q1 56 42.5 88.5t106.5 32.5q70 0 108.5 -29.5t38.5 -89.5q0 -92 -132 -105q-72 -7 -72 -60h108l4 44h94v-141h-309v97q0 48 37 85.5t82 45.5q9 2 26 4t24 3.5t16.5 5t13 9t3.5 14.5q0 27 -42 29q-47 0 -47 -33z" />
    <glyph glyph-name="three.num" horiz-adv-x="360" 
d="M126 616l-3 -28h-90v118h301v-17l-93 -128q40 -5 64.5 -31.5t24.5 -69.5q0 -31 -10 -55.5t-26 -38.5t-37.5 -23t-42 -12t-42.5 -3q-61 0 -103.5 31t-43.5 92h101q9 -28 48 -28q22 0 35.5 10.5t13.5 29.5q0 14 -11 25.5t-34 11.5h-48l-10 15l74 101h-68z" />
    <glyph glyph-name="four.num" horiz-adv-x="375" 
d="M164 704h144v-223h42v-85h-42v-62h-103v62h-185l-6 84zM121 481h84v132z" />
    <glyph glyph-name="five.num" horiz-adv-x="364" 
d="M136 575h52q67 0 110.5 -30t42.5 -99q0 -64 -44.5 -93.5t-106.5 -29.5q-157 0 -157 123h100q4 -33 52 -33q49 0 49 37q0 17 -13.5 28t-34.5 11h-142v216h270v-90h-178v-40z" />
    <glyph glyph-name="six.num" horiz-adv-x="374" 
d="M135 584v-35q32 20 81 20q132 0 132 -117q0 -62 -48 -92.5t-113 -30.5q-72 0 -113.5 31.5t-41.5 94.5v129q0 58 46.5 92.5t107.5 34.5q67 0 111 -28t44 -85h-104q-4 26 -48 26q-24 0 -39 -10.5t-15 -29.5zM132 452q0 -18 16 -27t39 -9t39 9.5t16 25.5q0 18 -16.5 27.5
t-38.5 9.5t-39 -10t-16 -26z" />
    <glyph glyph-name="seven.num" horiz-adv-x="344" 
d="M335 701l4 -41l-144 -329h-122l123 274h-76l-6 -47h-94v143h315z" />
    <glyph glyph-name="eight.num" horiz-adv-x="379" 
d="M26 444q0 23 15 46t42 34q-48 26 -48 74q0 58 43.5 86t110.5 28q65 0 110.5 -28.5t45.5 -85.5q0 -52 -47 -74q28 -12 41.5 -36t13.5 -47q0 -63 -47 -91t-119 -26q-71 0 -117.5 28.5t-43.5 91.5zM188 561q50 0 50 35q0 16 -13 26t-36 10t-36.5 -10t-13.5 -25q0 -16 13 -26
t36 -10zM244 443q0 15 -15 25t-39 10q-26 0 -41 -9.5t-15 -26.5q-1 -6 2.5 -13t17 -14t35.5 -7q31 0 43.5 11.5t11.5 23.5z" />
    <glyph glyph-name="nine.num" horiz-adv-x="376" 
d="M239 457v35q-32 -20 -81 -20q-132 0 -132 117q0 62 48 92.5t113 30.5q72 0 114.5 -32.5t42.5 -93.5v-129q0 -58 -48 -92.5t-110 -34.5q-67 0 -111 28t-44 85h104q4 -26 48 -26q25 0 40.5 11t15.5 29zM242 589q0 18 -16 27t-39 9t-39 -9.5t-16 -25.5q0 -18 16.5 -27.5
t38.5 -9.5t39 10t16 26z" />
    <glyph glyph-name="zero.tf" 
d="M227 392v-95q0 -77 34 -115.5t89 -38.5q56 0 90 38.5t34 115.5v95q0 74 -33.5 112t-88.5 38t-90 -37.5t-35 -112.5zM33 297v96q0 161 89.5 238.5t229.5 77.5t227.5 -79.5t87.5 -236.5v-95q0 -159 -88.5 -238t-224.5 -79q-65 0 -120.5 17.5t-101.5 54t-72.5 99
t-26.5 145.5z" />
    <glyph glyph-name="one.tf" 
d="M69 0v149h203v340l-164 -52v178l350 104v-570h188v-149h-577z" />
    <glyph glyph-name="two.tf" 
d="M641 0h-597v161q0 259 298 267q21 0 35.5 2t32 7t26.5 17.5t9 30.5q0 35 -27 51.5t-68 16.5q-96 0 -102 -75h-192q1 115 84 173t210 58q55 0 105.5 -12.5t93 -37.5t68 -69.5t25.5 -102.5q0 -53 -17 -92t-43.5 -61.5t-68 -36.5t-81 -19t-90.5 -6q-44 -2 -77 -26t-33 -79
h229l6 82h174v-249z" />
    <glyph glyph-name="three.tf" 
d="M362 315h-52l-28 56l118 169h-168l-6 -88h-166v248h581v-92l-134 -207q74 -27 110.5 -70t36.5 -118q0 -103 -72.5 -168t-233.5 -65q-60 0 -113 14.5t-96.5 43.5t-68 78.5t-24.5 113.5h192q1 -41 32.5 -63.5t80.5 -22.5q46 0 74.5 20.5t28.5 63.5q0 42 -24.5 64.5
t-67.5 22.5z" />
    <glyph glyph-name="four.tf" 
d="M397 700h183v-423h75v-156h-75v-121h-186v121h-357l-13 164zM228 277h166v183z" />
    <glyph glyph-name="five.tf" 
d="M613 699v-161h-349v-83h94q63 0 111.5 -10t91.5 -34t66 -71.5t23 -115.5q0 -62 -26 -108.5t-69 -73t-92 -39t-101 -12.5q-135 0 -213.5 57.5t-79.5 183.5h193q0 -41 30 -61.5t68 -20.5q13 0 27.5 3t31.5 10.5t27.5 23t10.5 37.5q0 24 -9.5 40.5t-26.5 23.5t-31.5 9.5
t-31.5 2.5h-277v399h532z" />
    <glyph glyph-name="six.tf" 
d="M647 497h-189q-3 30 -32 45.5t-73 15.5t-77 -23t-33 -61v-66q64 48 162 48q115 0 186.5 -59.5t71.5 -167.5q0 -62 -25.5 -110t-69.5 -75.5t-97 -41.5t-113 -14q-80 0 -147.5 23.5t-114.5 80.5t-47 139v243q0 79 44.5 134.5t111 79.5t147.5 24q62 0 113 -11t93 -35
t65.5 -67t23.5 -102zM358 150q47 0 77.5 21.5t30.5 57.5q0 40 -29 62.5t-78 22.5q-55 0 -84.5 -23.5t-29.5 -60.5q0 -33 30 -56.5t83 -23.5z" />
    <glyph glyph-name="seven.tf" 
d="M372 0h-214l251 537h-163l-6 -95h-173v258h587l5 -89z" />
    <glyph glyph-name="eight.tf" 
d="M350 292q-52 0 -83 -19.5t-31 -54.5t32.5 -54.5t80.5 -19.5q47 0 79.5 19t31.5 54q0 34 -29 54.5t-81 20.5zM31 218q1 35 24.5 78t68.5 67q-70 50 -72 139q0 103 80.5 158t208.5 55q131 0 219.5 -55.5t88.5 -155.5q1 -41 -18.5 -76.5t-55.5 -57.5q49 -27 70 -70t22 -82
q2 -121 -84.5 -177t-233.5 -56q-95 0 -164.5 21.5t-112.5 75t-41 136.5zM345 422q37 0 62 14.5t31 36t0.5 42.5t-30.5 35.5t-62 14.5t-62 -14.5t-31 -35.5t0 -42.5t31 -36t61 -14.5z" />
    <glyph glyph-name="nine.tf" 
d="M46 203h189q3 -30 32 -45.5t73 -15.5q46 0 81.5 24t35.5 66v60q-60 -48 -162 -48q-115 0 -186.5 59.5t-71.5 167.5q0 62 25.5 110t69.5 75.5t97 41.5t113 14q80 0 147.5 -23.5t114.5 -80.5t47 -139v-236q0 -63 -26 -112t-71 -77t-98.5 -42t-113.5 -14q-49 0 -91.5 6.5
t-81 22.5t-65 40t-42.5 61.5t-16 84.5zM342 550q-47 0 -77.5 -21.5t-30.5 -57.5q0 -40 29 -62.5t78 -22.5q55 0 84.5 23.5t29.5 60.5q0 33 -30 56.5t-83 23.5z" />
    <glyph glyph-name="bullet.case" horiz-adv-x="367" 
d="M185 173q-68 0 -112 38.5t-44 102.5q0 63 44.5 103t111.5 40q65 0 109 -40t44 -103t-43.5 -102t-109.5 -39z" />
    <glyph glyph-name="periodcentered.case" horiz-adv-x="278" 
d="M139 229q-50 0 -77 28t-27 67q0 38 27.5 66.5t76.5 28.5t76.5 -28.5t27.5 -67.5q0 -38 -27.5 -66t-76.5 -28z" />
    <glyph glyph-name="braceleft.case" horiz-adv-x="377" 
d="M347 47v-132q-53 -10 -93 -10q-167 0 -167 175v141q0 11 -2 19t-8 17t-19.5 14t-33.5 5v128q38 0 50.5 15.5t12.5 40.5v133q0 90 39 137t128 47q42 0 93 -9v-122q-87 18 -87 -60v-140q0 -23 -0.5 -33.5t-4.5 -26.5t-14.5 -27t-27.5 -21q29 -16 38 -40.5t9 -63.5v-136
q0 -29 13 -42t32.5 -12t41.5 3z" />
    <glyph glyph-name="braceright.case" horiz-adv-x="377" 
d="M30 -85v132q22 -2 41.5 -3t32.5 12t13 42v136q0 39 9 63.5t38 40.5q-17 10 -27.5 21t-14.5 27t-4.5 26.5t-0.5 33.5v140q0 78 -87 60v122q51 9 93 9q89 0 128 -47t39 -137v-133q0 -16 3.5 -26.5t18 -20t41.5 -9.5v-128q-38 0 -50.5 -15.5t-12.5 -39.5v-141
q0 -175 -167 -175q-40 0 -93 10z" />
    <glyph glyph-name="bracketleft.case" horiz-adv-x="372" 
d="M343 -85h-271v860h271v-145h-106v-570h106v-145z" />
    <glyph glyph-name="bracketright.case" horiz-adv-x="372" 
d="M300 -85h-271v145h106v570h-106v145h271v-860z" />
    <glyph glyph-name="parenleft.case" horiz-adv-x="370" 
d="M272 829l91 -111q-81 -69 -125 -168t-44 -191q0 -110 43 -205t127 -162l-92 -118q-121 79 -184.5 211.5t-63.5 272.5q0 134 63.5 260.5t184.5 210.5z" />
    <glyph glyph-name="parenright.case" horiz-adv-x="370" 
d="M7 719l91 111q121 -84 184.5 -210.5t63.5 -260.5q0 -140 -63.5 -272.5t-184.5 -211.5l-92 118q84 67 127 162t43 205q0 92 -44 191t-125 168z" />
    <glyph glyph-name="emdash.case" horiz-adv-x="684" 
d="M48 251v146h588v-146h-588z" />
    <glyph glyph-name="endash.case" horiz-adv-x="597" 
d="M48 250v146h501v-146h-501z" />
    <glyph glyph-name="hyphen.case" horiz-adv-x="498" 
d="M48 258v147h402v-147h-402z" />
    <glyph glyph-name="guillemotleft.case" horiz-adv-x="589" 
d="M20 332l139 224h173l-139 -224l141 -223h-175zM252 332l139 224h173l-139 -224l141 -223h-175z" />
    <glyph glyph-name="guillemotright.case" horiz-adv-x="589" 
d="M430 556l139 -224l-139 -223h-175l141 223l-139 224h173zM198 556l139 -224l-139 -223h-175l141 223l-139 224h173z" />
    <glyph glyph-name="guilsinglleft.case" horiz-adv-x="357" 
d="M20 332l139 224h173l-139 -224l141 -223h-175z" />
    <glyph glyph-name="guilsinglright.case" horiz-adv-x="357" 
d="M198 556l139 -224l-139 -223h-175l141 223l-139 224h173z" />
    <glyph glyph-name="florin.tf" 
d="M548 337h-128v-338q0 -79 -38 -131.5t-92.5 -68.5t-115.5 -4t-107 51l56 111q28 -24 58 -24q24 0 39.5 16t15.5 49v339h-109v142h109v30q0 101 63.5 151.5t149.5 50.5q97 0 149 -51l-56 -114q-28 24 -67 24q-24 0 -39.5 -15.5t-15.5 -45.5v-30h128v-142z" />
    <glyph glyph-name="cent.tf" 
d="M492 184l105 -110q-67 -61 -144 -77v-76h-161v82q-82 23 -130.5 83t-48.5 160q0 98 49.5 159.5t129.5 85.5v85h161v-78q75 -16 131 -70l-98 -106q-35 36 -85 36q-51 0 -79.5 -32t-28.5 -81q0 -43 28.5 -72.5t78.5 -29.5q54 0 92 41z" />
    <glyph glyph-name="dollar.tf" 
d="M613 635v-169h-171l-3 81q-37 11 -89 11q-36 0 -66.5 -14t-30.5 -45q0 -33 29.5 -47t88.5 -20q58 -6 103.5 -18t89.5 -36t68.5 -67t24.5 -102q0 -92 -63.5 -148t-163.5 -73v-83h-160v80q-124 15 -215 93v175h171l3 -81q58 -22 120 -22q50 0 80.5 16.5t30.5 46.5
q0 48 -118 60q-47 4 -84.5 11.5t-77 24t-66 40t-43 62t-16.5 88.5q0 87 61.5 141t153.5 71v85h160v-82q101 -15 183 -79z" />
    <glyph glyph-name="Euro.tf" 
d="M70 199v121h55v50h-55v117h83q26 73 80.5 124t120.5 73t138.5 21t136.5 -26l-48 -141q-61 27 -125 16.5t-97 -67.5h181l-29 -117h-199q-1 -25 0 -50h188l-26 -121h-113q38 -42 107 -56t122 7l48 -144q-67 -21 -140 -21q-135 0 -224.5 56t-125.5 158h-78z" />
    <glyph glyph-name="sterling.tf" 
d="M378 555q-40 0 -60 -23.5t-17.5 -55.5t11.5 -64h133v-124h-110q3 -26 -4 -66t-21 -58h162l6 99h166v-263h-583v156q30 1 51.5 24.5t29.5 53t6 54.5h-87v124h60q-12 51 -12 59q-5 107 65.5 173t198.5 66q119 0 187 -57t63 -169h-176q-1 35 -19.5 53t-49.5 18z" />
    <glyph glyph-name="yen.tf" 
d="M90 193v79h157v34h-157v91h68q-19 31 -55 82.5l-46 65.5h-73v156h346v-153l-39 -3l56 -107q14 24 59 107l-37 3v153h346v-156h-74l-101 -148h61v-91h-159v-34h159v-79h-159v-37h82v-156h-360v156h83v37h-157z" />
    <glyph glyph-name="bar.case" horiz-adv-x="323" 
d="M250 735v-819h-177v819h177z" />
    <glyph glyph-name="commaaccentcomb.alt" horiz-adv-x="570" 
d="M178 613q0 48 58 161h97l-21 -98q53 -10 53 -64q0 -36 -28.5 -56.5t-69.5 -20.5q-37 0 -63 20.5t-26 57.5z" />
    <glyph glyph-name="_0004" horiz-adv-x="0" 
 />
    <glyph glyph-name="asterisk.alt" horiz-adv-x="424" 
d="M214 444l-29 -47v1q-13 -28 -43 -28q-25 0 -47 18t-22 42q0 17 13 33l37 45q-13 2 -36 6.5t-33 5.5q-27 9 -27 44q0 31 20 54.5t46 14.5l64 -25l-7 56q0 24 17.5 37t42.5 13q24 0 43 -13t20 -36l-6 -56l62 27q26 9 47 -15t21 -54q0 -35 -34 -47l-60 -12l40 -45
q13 -16 13 -33q0 -24 -21 -42.5t-46 -18.5q-29 0 -43 27z" />
    <glyph glyph-name="_127" horiz-adv-x="500" 
 />
    <glyph glyph-name="_129" horiz-adv-x="500" 
 />
    <glyph glyph-name="_141" horiz-adv-x="500" 
 />
    <glyph glyph-name="_143" horiz-adv-x="500" 
 />
    <glyph glyph-name="_144" horiz-adv-x="500" 
 />
    <glyph glyph-name="_157" horiz-adv-x="500" 
 />
    <glyph glyph-name="ring.001" horiz-adv-x="0" 
 />
    </font>
</defs>
</svg>
